<?xml version="1.0" encoding="UTF-8"?>
<!DOCTYPE svg PUBLIC "-//W3C//DTD SVG 1.1//EN" "http://www.w3.org/Graphics/SVG/1.1/DTD/svg11.dtd">
<svg xmlns="http://www.w3.org/2000/svg" version="1.1" width="494px" height="484px" style="shape-rendering:geometricPrecision; text-rendering:geometricPrecision; image-rendering:optimizeQuality; fill-rule:evenodd; clip-rule:evenodd" xmlns:xlink="http://www.w3.org/1999/xlink">
<g><path style="opacity:1" fill="#fefefe" d="M -0.5,-0.5 C 164.167,-0.5 328.833,-0.5 493.5,-0.5C 493.5,160.833 493.5,322.167 493.5,483.5C 328.833,483.5 164.167,483.5 -0.5,483.5C -0.5,322.167 -0.5,160.833 -0.5,-0.5 Z"/></g>
<g><path style="opacity:1" fill="#e7397e" d="M 240.5,139.5 C 240.5,139.833 240.5,140.167 240.5,140.5C 240.5,177.167 240.5,213.833 240.5,250.5C 240.5,250.833 240.5,251.167 240.5,251.5C 168.833,251.5 97.1667,251.5 25.5,251.5C 27.0618,177.872 57.0618,119.039 115.5,75C 153.005,48.8882 194.672,35.7216 240.5,35.5C 240.5,70.1667 240.5,104.833 240.5,139.5 Z"/></g>
<g><path style="opacity:1" fill="#a8f755" d="M 348.5,238.5 C 347.833,239.167 347.167,239.833 346.5,240.5C 338.291,187.79 308.291,154.957 256.5,142C 251.22,140.905 245.887,140.405 240.5,140.5C 240.5,140.167 240.5,139.833 240.5,139.5C 285.728,135.403 318.228,113.069 338,72.5C 343.041,59.9596 346.041,46.9596 347,33.5C 352.622,83.7783 379.122,117.612 426.5,135C 434.368,137.3 442.368,138.967 450.5,140C 403.017,146.491 370.517,171.991 353,216.5C 350.546,223.647 349.046,230.98 348.5,238.5 Z"/></g>
<g><path style="opacity:1" fill="#d7fbaa" d="M 348.5,238.5 C 348.322,241.216 347.822,243.883 347,246.5C 346.505,244.527 346.338,242.527 346.5,240.5C 347.167,239.833 347.833,239.167 348.5,238.5 Z"/></g>
<g><path style="opacity:1" fill="#bbf3f9" d="M 240.5,251.5 C 240.5,251.167 240.5,250.833 240.5,250.5C 312.167,250.5 383.833,250.5 455.5,250.5C 455.821,255.695 455.487,260.695 454.5,265.5C 454.5,260.833 454.5,256.167 454.5,251.5C 383.167,251.5 311.833,251.5 240.5,251.5 Z"/></g>
<g><path style="opacity:1" fill="#2e2b7c" d="M 25.5,251.5 C 97.1667,251.5 168.833,251.5 240.5,251.5C 240.5,322.5 240.5,393.5 240.5,464.5C 183.955,463.708 134.955,444.375 93.5,406.5C 90.1667,403.5 86.8333,400.5 83.5,397.5C 81.5698,393.9 78.9031,390.9 75.5,388.5C 43.4433,348.682 26.7766,303.015 25.5,251.5 Z"/></g>
<g><path style="opacity:1" fill="#6ce1f0" d="M 240.5,251.5 C 311.833,251.5 383.167,251.5 454.5,251.5C 454.5,256.167 454.5,260.833 454.5,265.5C 447.233,342.868 410.233,401.034 343.5,440C 273.127,475.984 203.127,475.317 133.5,438C 119.203,429.707 106.037,419.873 94,408.5C 93.5357,407.906 93.369,407.239 93.5,406.5C 134.955,444.375 183.955,463.708 240.5,464.5C 240.5,393.5 240.5,322.5 240.5,251.5 Z"/></g>
<g><path style="opacity:1" fill="#83cfe4" d="M 75.5,388.5 C 78.9031,390.9 81.5698,393.9 83.5,397.5C 80.0969,395.1 77.4302,392.1 75.5,388.5 Z"/></g>
</svg>
