<?xml version="1.0" encoding="UTF-8"?>
<svg version="1.1" xmlns="http://www.w3.org/2000/svg" width="442" height="320">
<path d="M0 0 C1.50723574 3.99520707 0.62456872 7.74523532 -0.125 11.8125 C-0.26333252 12.56515137 -0.40166504 13.31780273 -0.54418945 14.09326172 C-4.11975016 32.48682685 -11.60717047 48.00445481 -24 62 C-24.57363281 62.71671875 -25.14726562 63.4334375 -25.73828125 64.171875 C-40.29625688 82.10007411 -65.59129354 92.17860133 -87.94458008 94.80371094 C-116.75339235 97.55490289 -141.79108498 87.94246556 -164 70 C-164.7734375 69.39414063 -165.546875 68.78828125 -166.34375 68.1640625 C-169.51595085 65.60290034 -171.27974684 64.02998791 -172 60 C-169.0318551 58.58463461 -166.03205041 57.27242053 -163 56 C-162.30777344 55.68417969 -161.61554688 55.36835938 -160.90234375 55.04296875 C-158.9375 54.3125 -158.9375 54.3125 -155 54 C-151.93342953 55.90338857 -149.55887385 58.47448205 -147 61 C-130.78169158 74.86739766 -108.53962349 77.28399132 -88 76 C-66.89629834 73.46585217 -47.8228901 62.98487291 -34 47 C-30.86931055 42.87404107 -28.26020913 38.65582249 -26 34 C-25.34 34 -24.68 34 -24 34 C-23.7525 32.865625 -23.505 31.73125 -23.25 30.5625 C-23.06566406 29.75425781 -22.88132812 28.94601563 -22.69140625 28.11328125 C-22.15026307 25.67660828 -21.64429369 23.23964335 -21.15234375 20.79296875 C-20.83131056 19.27852247 -20.50969098 17.76420038 -20.1875 16.25 C-20.04666992 15.51724854 -19.90583984 14.78449707 -19.76074219 14.02954102 C-18.66396278 9.01446567 -17.13126946 6.31613109 -13 3 C-8.90460422 0.7273656 -4.70237842 -0.44084798 0 0 Z " fill="#989898" transform="translate(332,173)"/>
<path d="M0 0 C10.69882101 8.17363344 10.69882101 8.17363344 14 12 C14.125 14.5 14.125 14.5 13 17 C7.88216769 20.09202369 2.91915688 20.9138972 -3 20 C-5.92546927 18.63656965 -8.34040844 16.79541909 -10.875 14.8125 C-12.27440749 13.79104298 -13.67806003 12.77537586 -15.0859375 11.765625 C-15.75850586 11.28158203 -16.43107422 10.79753906 -17.12402344 10.29882812 C-21.17044104 7.49730006 -25.3685973 5.61147437 -30 4 C-31.65902344 3.41605469 -31.65902344 3.41605469 -33.3515625 2.8203125 C-54.51244833 -3.53233439 -76.6891577 -1.27213954 -96.21728516 8.72680664 C-115.16893576 18.93888982 -129.27221412 34.17250289 -136.09375 54.66015625 C-136.95193111 57.82284955 -137.48966498 60.88250219 -137.9375 64.125 C-138.5538717 68.04788907 -138.70479894 68.72492628 -141.75 71.5625 C-147.06971807 73.91545223 -151.12591694 75.27971824 -157 75 C-160.62206001 64.13381997 -152.73703231 46.85937348 -148 37 C-144.06847745 29.40871913 -139.52317754 22.51824394 -134 16 C-133.26007813 15.11441406 -132.52015625 14.22882813 -131.7578125 13.31640625 C-97.97614444 -25.59187278 -41.13289265 -28.59815712 0 0 Z " fill="#989898" transform="translate(288,85)"/>
<path d="M0 0 C3.53952243 3.84134218 4.61328911 6.62908732 4.69921875 11.890625 C4.46695841 16.51260575 3.77781597 20.54948263 2.19921875 24.890625 C2.83859375 25.48875 3.47796875 26.086875 4.13671875 26.703125 C7.32185459 30.08129937 7.50226016 33.16474077 7.40234375 37.7109375 C6.87608615 43.35808637 4.99599059 47.51283981 0.94921875 51.515625 C-6.77546596 57.77849553 -19.93495105 62.890625 -29.80078125 62.890625 C-31.07547532 60.34123685 -30.92094309 58.56021502 -30.91430664 55.70654297 C-30.91423111 54.62557343 -30.91415558 53.54460388 -30.91407776 52.43087769 C-30.90891647 51.26001617 -30.90375519 50.08915466 -30.8984375 48.8828125 C-30.89702255 47.68705597 -30.8956076 46.49129944 -30.89414978 45.25930786 C-30.88853788 41.42805513 -30.87598333 37.59686016 -30.86328125 33.765625 C-30.85826778 31.17317793 -30.85370461 28.58072994 -30.84960938 25.98828125 C-30.83856458 19.62237602 -30.82181484 13.25650463 -30.80078125 6.890625 C-29.38500545 6.24764041 -27.96771317 5.60799438 -26.54980469 4.96972656 C-25.76071716 4.61315979 -24.97162964 4.25659302 -24.15863037 3.88922119 C-20.83454984 2.4814067 -17.54610745 1.55434098 -14.05078125 0.640625 C-12.7978125 0.30546875 -11.54484375 -0.0296875 -10.25390625 -0.375 C-3.08390001 -1.89984296 -3.08390001 -1.89984296 0 0 Z M-16.80078125 14.890625 C-16.80078125 17.530625 -16.80078125 20.170625 -16.80078125 22.890625 C-12.32194429 22.44358514 -12.32194429 22.44358514 -8.80078125 19.890625 C-8.63397016 16.80714674 -8.63397016 16.80714674 -8.80078125 13.890625 C-12.20332614 12.6754304 -13.73329251 13.02822112 -16.80078125 14.890625 Z M-14.61328125 33.890625 C-17.1982214 35.80909978 -17.1982214 35.80909978 -17.17578125 39.515625 C-17.17494755 42.72469038 -17.17494755 42.72469038 -15.80078125 43.890625 C-10.77578431 43.60593297 -10.77578431 43.60593297 -6.80078125 40.890625 C-6.63400843 37.30718524 -6.63400843 37.30718524 -6.80078125 33.890625 C-9.94055851 32.90383786 -11.47196954 32.77371417 -14.61328125 33.890625 Z " fill="#9A9A9A" transform="translate(133.80078125,178.109375)"/>
<path d="M0 0 C0.02528903 7.65380144 0.04284104 15.30759217 0.05493164 22.96142578 C0.0599703 25.56689863 0.0668013 28.17236863 0.07543945 30.77783203 C0.08752544 34.51595764 0.09323288 38.25404597 0.09765625 41.9921875 C0.10281754 43.16304901 0.10797882 44.33391052 0.11329651 45.54025269 C0.11337204 46.62122223 0.11344757 47.70219177 0.11352539 48.81591797 C0.115746 49.77078094 0.11796661 50.72564392 0.12025452 51.70944214 C0 54 0 54 -1 56 C-2.92578125 56.88671875 -2.92578125 56.88671875 -5.3125 57.6875 C-6.09238281 57.95949219 -6.87226563 58.23148438 -7.67578125 58.51171875 C-10 59 -10 59 -14 58 C-14 51.73 -14 45.46 -14 39 C-16.64 39.66 -19.28 40.32 -22 41 C-22.33 48.59 -22.66 56.18 -23 64 C-32 67.375 -32 67.375 -36 67 C-36.88858709 63.9389575 -37.13616157 61.18655607 -37.16113281 58.00366211 C-37.17074036 57.01260971 -37.1803479 56.02155731 -37.19024658 55.00047302 C-37.19449646 53.93684036 -37.19874634 52.8732077 -37.203125 51.77734375 C-37.20882507 50.68031631 -37.21452515 49.58328888 -37.22039795 48.45301819 C-37.22983708 46.13559939 -37.23637761 43.81816723 -37.24023438 41.50073242 C-37.24997254 37.94751874 -37.28101983 34.39487564 -37.3125 30.84179688 C-37.31902701 28.59114927 -37.32427867 26.34049753 -37.328125 24.08984375 C-37.3404718 23.02418686 -37.3528186 21.95852997 -37.36553955 20.86058044 C-37.36253845 19.87268021 -37.35953735 18.88477997 -37.35644531 17.86694336 C-37.36009094 16.99742538 -37.36373657 16.12790741 -37.36749268 15.23204041 C-36.91894878 12.50771919 -36.16339053 11.66305946 -34 10 C-31.51953125 9.05078125 -31.51953125 9.05078125 -28.8125 8.3125 C-27.46091797 7.93544922 -27.46091797 7.93544922 -26.08203125 7.55078125 C-25.39496094 7.36902344 -24.70789063 7.18726563 -24 7 C-22.45049732 8.54950268 -22.78344807 10.09990594 -22.68359375 12.25390625 C-22.62075195 13.53491211 -22.62075195 13.53491211 -22.55664062 14.84179688 C-22.49766602 16.18854492 -22.49766602 16.18854492 -22.4375 17.5625 C-22.39431641 18.46419922 -22.35113281 19.36589844 -22.30664062 20.29492188 C-22.20021858 22.52978485 -22.09820012 24.76476308 -22 27 C-19.69 26.34 -17.38 25.68 -15 25 C-14.98541748 24.40985107 -14.97083496 23.81970215 -14.95581055 23.21166992 C-14.88131156 20.53628771 -14.78466005 17.86215108 -14.6875 15.1875 C-14.66494141 14.25873047 -14.64238281 13.32996094 -14.61914062 12.37304688 C-14.58369141 11.48037109 -14.54824219 10.58769531 -14.51171875 9.66796875 C-14.48553467 8.84578857 -14.45935059 8.0236084 -14.43237305 7.17651367 C-13.90077917 4.50053434 -13.12762692 3.66586428 -11 2 C-4.31465517 -1.40344828 -4.31465517 -1.40344828 0 0 Z " fill="#979797" transform="translate(259,130)"/>
<path d="M0 0 C2.70088548 2.23787654 3.88243679 3.51549822 5.1875 6.8125 C5.42633856 10.49372908 5.36165368 14.12947214 5.1875 17.8125 C0.56552694 20.03104707 -2.58074163 21.19531159 -7.8125 20.8125 C-8.1425 18.8325 -8.4725 16.8525 -8.8125 14.8125 C-10.4625 15.1425 -12.1125 15.4725 -13.8125 15.8125 C-14.7892249 25.84137177 -14.92099626 35.74645765 -14.8125 45.8125 C-12.28868933 45.14098416 -12.28868933 45.14098416 -9.8125 43.8125 C-9.07392976 41.76770709 -9.07392976 41.76770709 -9 39.4375 C-8.29505312 35.22815371 -8.29505312 35.22815371 -6.09375 33.33203125 C-2.18795886 31.31355337 0.76813167 30.63510825 5.1875 30.8125 C5.79858887 39.89395956 4.78762234 46.54919722 -1.1875 53.625 C-7.86374925 59.18854104 -12.13605108 61.26915521 -20.8125 60.8125 C-24.81683278 59.72040924 -26.66233336 58.36027496 -28.8125 54.8125 C-30.55894352 49.57316944 -30.07781496 43.94951606 -30.10766602 38.46362305 C-30.11912464 37.00030806 -30.13947852 35.53703282 -30.16918945 34.07397461 C-30.375208 23.9192168 -29.54741483 15.8150417 -24.0625 7 C-17.54715153 0.66563343 -8.96584324 -3.78557826 0 0 Z " fill="#999999" transform="translate(211.8125,148.1875)"/>
<path d="M0 0 C0.08114106 1.77007714 0.13925505 3.54122098 0.1875 5.3125 C0.23970703 6.79169922 0.23970703 6.79169922 0.29296875 8.30078125 C0 11 0 11 -1.09375 12.71875 C-3.80273942 14.53954617 -6.55784281 15.28888556 -9.6875 16.1875 C-10.86699219 16.53167969 -12.04648437 16.87585938 -13.26171875 17.23046875 C-14.16535156 17.48441406 -15.06898438 17.73835938 -16 18 C-16.33 20.31 -16.66 22.62 -17 25 C-16.38511719 24.7834375 -15.77023437 24.566875 -15.13671875 24.34375 C-14.32847656 24.0653125 -13.52023437 23.786875 -12.6875 23.5 C-11.88699219 23.2215625 -11.08648437 22.943125 -10.26171875 22.65625 C-8 22 -8 22 -5 22 C-3.83656773 24.32686453 -3.80104012 25.84721413 -3.75 28.4375 C-3.72421875 29.21996094 -3.6984375 30.00242188 -3.671875 30.80859375 C-4 33 -4 33 -5.19140625 34.7109375 C-8.65952188 37.18281257 -12.87223373 37.3031044 -17 38 C-17.33 41.3 -17.66 44.6 -18 48 C-17.19175781 47.71125 -16.38351562 47.4225 -15.55078125 47.125 C-14.48214844 46.75375 -13.41351563 46.3825 -12.3125 46 C-11.25675781 45.62875 -10.20101563 45.2575 -9.11328125 44.875 C-6.20261112 44.05694466 -3.9971819 43.74078427 -1 44 C0 45 0 45 0.1328125 47.21484375 C0.13023437 48.11332031 0.12765625 49.01179688 0.125 49.9375 C0.12886719 51.28134766 0.12886719 51.28134766 0.1328125 52.65234375 C0 55 0 55 -1 57 C-4.60265494 58.63862961 -8.38557847 59.83444354 -12.125 61.125 C-13.15882813 61.49753906 -14.19265625 61.87007812 -15.2578125 62.25390625 C-20.6755012 64.14042285 -25.24892277 65.62130751 -31 65 C-32 64 -32 64 -32.12025452 61.82969666 C-32.11803391 60.87261307 -32.11581329 59.91552948 -32.11352539 58.92944336 C-32.11344986 57.84839828 -32.11337433 56.76735321 -32.11329651 55.65354919 C-32.10813522 54.4775264 -32.10297394 53.3015036 -32.09765625 52.08984375 C-32.0962413 50.89267227 -32.09482635 49.69550079 -32.09336853 48.46205139 C-32.08774979 44.62050934 -32.07519411 40.77902457 -32.0625 36.9375 C-32.05748741 34.34049563 -32.05292409 31.74349035 -32.04882812 29.14648438 C-32.03777427 22.76430321 -32.02101792 16.3821557 -32 10 C-25.78798477 7.21256741 -19.56321586 4.57902546 -13.1875 2.1875 C-12.35541016 1.86330078 -11.52332031 1.53910156 -10.66601562 1.20507812 C-9.86228516 0.90408203 -9.05855469 0.60308594 -8.23046875 0.29296875 C-7.51270264 0.0199292 -6.79493652 -0.25311035 -6.05541992 -0.53442383 C-3.69056275 -1.07009108 -2.27609788 -0.76168756 0 0 Z " fill="#999999" transform="translate(335,103)"/>
<path d="M0 0 C1.16343227 2.32686453 1.19895988 3.84721413 1.25 6.4375 C1.27578125 7.21996094 1.3015625 8.00242188 1.328125 8.80859375 C1 11 1 11 -0.13671875 12.64453125 C-2.61752297 14.44922531 -5.1670467 15.25083993 -8.0625 16.25 C-12.26761267 17.76943682 -12.26761267 17.76943682 -15.23046875 20.87890625 C-15.86218197 22.99445507 -15.86218197 22.99445507 -16 26 C-15.38511719 25.7834375 -14.77023438 25.566875 -14.13671875 25.34375 C-13.32847656 25.0653125 -12.52023438 24.786875 -11.6875 24.5 C-10.88699219 24.2215625 -10.08648437 23.943125 -9.26171875 23.65625 C-7 23 -7 23 -4 23 C-3.7763663 24.41433206 -3.57173524 25.83167618 -3.375 27.25 C-3.20097656 28.43335938 -3.20097656 28.43335938 -3.0234375 29.640625 C-2.99569977 32.43288948 -3.36635417 33.73727861 -5 36 C-7.12890625 36.984375 -7.12890625 36.984375 -9.5625 37.75 C-11.9997763 38.62914272 -11.9997763 38.62914272 -14 40 C-15.14698051 42.86745128 -15.05255294 44.84682376 -15 48 C-14.08476562 47.71125 -13.16953125 47.4225 -12.2265625 47.125 C-11.03804687 46.75375 -9.84953125 46.3825 -8.625 46 C-7.44164062 45.62875 -6.25828125 45.2575 -5.0390625 44.875 C-2 44 -2 44 0 44 C1.49712312 46.99424624 1.11407813 49.6917343 1 53 C0.97808594 53.67160156 0.95617187 54.34320313 0.93359375 55.03515625 C-0.61533567 58.295037 -3.84945023 58.9180211 -7.0625 60.0625 C-7.74626709 60.31854004 -8.43003418 60.57458008 -9.13452148 60.83837891 C-10.48456477 61.34281891 -11.83682523 61.84137126 -13.19140625 62.33349609 C-15.33888752 63.124887 -17.4466951 64.00305696 -19.5625 64.875 C-22.94182096 65.98095959 -25.4732894 66.26450329 -29 66 C-30.24225317 63.51549367 -30.14028353 61.82666954 -30.16113281 59.04711914 C-30.17074036 58.01587418 -30.1803479 56.98462921 -30.19024658 55.9221344 C-30.19449646 54.80443161 -30.19874634 53.68672882 -30.203125 52.53515625 C-30.20882507 51.39090683 -30.21452515 50.24665741 -30.22039795 49.06773376 C-30.22985619 46.64420499 -30.23638519 44.22066331 -30.24023438 41.79711914 C-30.2499508 38.08131628 -30.28097158 34.36606383 -30.3125 30.65039062 C-30.31902872 28.29948246 -30.3242797 25.94857033 -30.328125 23.59765625 C-30.3404718 22.48197769 -30.3528186 21.36629913 -30.36553955 20.21681213 C-30.36253845 19.18241501 -30.35953735 18.14801788 -30.35644531 17.08227539 C-30.36009094 16.17119522 -30.36373657 15.26011505 -30.36749268 14.32142639 C-29.92561233 11.53009812 -29.21270282 10.70013645 -27 9 C-24.50390625 7.83325195 -24.50390625 7.83325195 -21.5625 6.73828125 C-20.50289062 6.34189453 -19.44328125 5.94550781 -18.3515625 5.53710938 C-17.24554688 5.13298828 -16.13953125 4.72886719 -15 4.3125 C-13.89398438 3.89677734 -12.78796875 3.48105469 -11.6484375 3.05273438 C-3.4075585 0 -3.4075585 0 0 0 Z " fill="#959595" transform="translate(176,158)"/>
<path d="M0 0 C0.08114106 1.77007714 0.13925505 3.54122098 0.1875 5.3125 C0.23970703 6.79169922 0.23970703 6.79169922 0.29296875 8.30078125 C0 11 0 11 -1.07421875 12.73046875 C-3.83795273 14.55240292 -6.82567552 15.13527576 -10 16 C-10.02505615 17.29212402 -10.0501123 18.58424805 -10.07592773 19.91552734 C-10.16991624 24.69769656 -10.27015766 29.47971762 -10.37231445 34.26171875 C-10.41569577 36.33362366 -10.45736846 38.40556507 -10.49731445 40.47753906 C-10.55493965 43.45128391 -10.61865625 46.42484448 -10.68359375 49.3984375 C-10.70866249 50.79381241 -10.70866249 50.79381241 -10.73423767 52.21737671 C-10.75418289 53.07811798 -10.77412811 53.93885925 -10.79467773 54.82568359 C-10.81022202 55.58513275 -10.8257663 56.34458191 -10.84178162 57.12704468 C-11 59 -11 59 -12 61 C-13.92578125 61.88671875 -13.92578125 61.88671875 -16.3125 62.6875 C-17.48232422 63.09548828 -17.48232422 63.09548828 -18.67578125 63.51171875 C-21 64 -21 64 -25 63 C-25 49.47 -25 35.94 -25 22 C-26.98 22.66 -28.96 23.32 -31 24 C-32.65 23.67 -34.3 23.34 -36 23 C-36 19.37 -36 15.74 -36 12 C-29.47464531 9.03392969 -22.89083155 6.34825281 -16.1875 3.8125 C-15.26001953 3.45736328 -14.33253906 3.10222656 -13.37695312 2.73632812 C-2.66642129 -1.33321065 -2.66642129 -1.33321065 0 0 Z " fill="#979797" transform="translate(299,115)"/>
<path d="M0 0 C0.33 13.53 0.66 27.06 1 41 C4.96 39.68 8.92 38.36 13 37 C14.32 37.33 15.64 37.66 17 38 C17 41.63 17 45.26 17 49 C11.34605989 51.97235709 5.75755797 54.27861415 -0.3125 56.25 C-1.10978516 56.518125 -1.90707031 56.78625 -2.72851562 57.0625 C-8.60526945 59 -8.60526945 59 -12 59 C-13.27469407 56.45061185 -13.12016184 54.66959002 -13.11352539 51.81591797 C-13.11344986 50.73494843 -13.11337433 49.65397888 -13.11329651 48.54025269 C-13.10813522 47.36939117 -13.10297394 46.19852966 -13.09765625 44.9921875 C-13.0962413 43.79643097 -13.09482635 42.60067444 -13.09336853 41.36868286 C-13.08775663 37.53743013 -13.07520208 33.70623516 -13.0625 29.875 C-13.05748653 27.28255293 -13.05292336 24.69010494 -13.04882812 22.09765625 C-13.03778333 15.73175102 -13.02103359 9.36587963 -13 3 C-3.44262295 -1.14754098 -3.44262295 -1.14754098 0 0 Z " fill="#979797" transform="translate(353,96)"/>
<path d="M0 0 C0.66 0.33 1.32 0.66 2 1 C1.34 1.66 0.68 2.32 0 3 C-0.27139476 5.16236687 -0.27139476 5.16236687 -0.17944336 7.67749023 C-0.16469215 9.1342643 -0.16469215 9.1342643 -0.14964294 10.62046814 C-0.12004234 12.19859032 -0.12004234 12.19859032 -0.08984375 13.80859375 C-0.06942269 16.02148218 -0.049248 18.2343729 -0.02929688 20.44726562 C0.01424725 23.94777027 0.06266326 27.44812399 0.11645508 30.94848633 C0.1646221 34.31851724 0.19457176 37.68834459 0.22265625 41.05859375 C0.24441422 42.10865097 0.26617218 43.15870819 0.28858948 44.24058533 C0.29527145 45.2149202 0.30195343 46.18925507 0.30883789 47.19311523 C0.32153214 48.05090073 0.33422638 48.90868622 0.3473053 49.79246521 C-0.07275327 52.46243285 -0.93455691 53.32670567 -3 55 C-3.0758691 47.48867235 -3.12852324 39.97744296 -3.16479492 32.46582031 C-3.1799107 29.90881661 -3.20040366 27.35183894 -3.22631836 24.79492188 C-3.26257862 21.12623683 -3.27969836 17.4578936 -3.29296875 13.7890625 C-3.30845261 12.64007477 -3.32393646 11.49108704 -3.33988953 10.30728149 C-3.34011612 9.2463327 -3.34034271 8.18538391 -3.34057617 7.09228516 C-3.34723801 6.15518707 -3.35389984 5.21808899 -3.36076355 4.25259399 C-3.24171158 3.50923798 -3.12265961 2.76588196 -3 2 C-2.01 1.34 -1.02 0.68 0 0 Z " fill="#888888" transform="translate(106,183)"/>
<path d="M0 0 C0 5.28 0 10.56 0 16 C-0.33 16 -0.66 16 -1 16 C-1.33 11.38 -1.66 6.76 -2 2 C-3.65 2.33 -5.3 2.66 -7 3 C-7.66 2.67 -8.32 2.34 -9 2 C-9.66 5.96 -10.32 9.92 -11 14 C-11.33 14 -11.66 14 -12 14 C-12.33 10.37 -12.66 6.74 -13 3 C-3.44262295 -1.14754098 -3.44262295 -1.14754098 0 0 Z " fill="#868686" transform="translate(353,96)"/>
<path d="M0 0 C-4.625 4 -4.625 4 -8 4 C-8 4.66 -8 5.32 -8 6 C-9.32 5.67 -10.64 5.34 -12 5 C-12 4.34 -12 3.68 -12 3 C-10.3789897 2.30314502 -8.75303934 1.61777139 -7.125 0.9375 C-6.22007812 0.55464844 -5.31515625 0.17179687 -4.3828125 -0.22265625 C-2 -1 -2 -1 0 0 Z " fill="#929292" transform="translate(330,104)"/>
<path d="M0 0 C-2.55068845 2.35448165 -3.71017358 2.98327924 -7.25 3.1875 C-8.1575 3.125625 -9.065 3.06375 -10 3 C-10.33 3.66 -10.66 4.32 -11 5 C-11.66 4.34 -12.32 3.68 -13 3 C-11.40084119 2.30093058 -9.79544955 1.61610532 -8.1875 0.9375 C-7.29417969 0.55464844 -6.40085937 0.17179687 -5.48046875 -0.22265625 C-3 -1 -3 -1 0 0 Z " fill="#919191" transform="translate(280,122)"/>
<path d="M0 0 C0.66 0.33 1.32 0.66 2 1 C1.67 3.64 1.34 6.28 1 9 C-0.32 8.34 -1.64 7.68 -3 7 C-1.125 1.125 -1.125 1.125 0 0 Z " fill="#8B8B8B" transform="translate(317,120)"/>
<path d="M0 0 C0.66 0.33 1.32 0.66 2 1 C1.58846263 5.97093824 1.20399168 10.44508386 -1 15 C-1.33 15 -1.66 15 -2 15 C-1.85816304 13.24967156 -1.71136571 11.49974466 -1.5625 9.75 C-1.48128906 8.77546875 -1.40007812 7.8009375 -1.31640625 6.796875 C-1.04925416 4.43538247 -0.64628032 2.28098935 0 0 Z " fill="#8D8D8D" transform="translate(133,141)"/>
<path d="M0 0 C0.99 0.33 1.98 0.66 3 1 C1.68 3.31 0.36 5.62 -1 8 C-1.66 7.67 -2.32 7.34 -3 7 C-2.67 5.68 -2.34 4.36 -2 3 C-1.34 3 -0.68 3 0 3 C0 2.01 0 1.02 0 0 Z " fill="#909090" transform="translate(157,121)"/>
<path d="M0 0 C0.66 0.33 1.32 0.66 2 1 C1.34 2.65 0.68 4.3 0 6 C-0.66 6 -1.32 6 -2 6 C-2.33 4.68 -2.66 3.36 -3 2 C-2.01 1.34 -1.02 0.68 0 0 Z " fill="#919191" transform="translate(117,210)"/>
</svg>
