<svg xmlns="http://www.w3.org/2000/svg" xmlns:xlink="http://www.w3.org/1999/xlink" id="Layer_1" x="0px" y="0px" viewBox="0 0 106.1 80" style="enable-background:new 0 0 106.1 80;" xml:space="preserve"> <style type="text/css"> .st0{fill:#999999;} </style> <path class="st0" d="M56.8,35.4L52.4,37v-8.6L47.6,30v22.2l4.9-1.7v-8.9l4.4-1.6v8.9l4.9-1.7V25l-4.9,1.7L56.8,35.4z"></path> <path class="st0" d="M64.1,28.8l4.3-1.5v17.5l4.9-1.7V25.5l4.3-1.5v-4.7L64.2,24v4.8H64.1z"></path> <path class="st0" d="M99.5,28.9V11.3L94.7,13v22.2l11.5-4.1v-4.7L99.5,28.9z"></path> <path class="st0" d="M11.6,54.1c1.1-1.5,1.7-3.2,1.7-5c0-1-0.3-3.9-2.8-4.6c-1.1-0.2-2.3-0.1-3.4,0.3l-7,2.5v22.2l9.3-3.3 c1.3-0.4,2.5-1.2,3.4-2.3c1.1-1.5,1.6-3.3,1.6-5.1C14.3,56.7,13.5,54.5,11.6,54.1 M4.9,50.1c0,0,2-0.7,2.4-0.9C8.6,48.8,9,50,9,50.9 c0,1.2-0.7,2.2-1.8,2.6c-0.3,0.1-2.4,0.8-2.4,0.8L4.9,50.1z M8.2,61.9L4.9,63v-4.7l2.8-1c1.1-0.4,2,0.4,2,1.8 C9.9,60.2,9.3,61.4,8.2,61.9"></path> <path class="st0" d="M80.2,40.7L92,36.6v-4.7l-6.9,2.4v-4.7l5.3-1.9v-4.2l-5.3,1.9v-4L92,19v-4.7l-11.8,4.2V40.7z"></path> <path class="st0" d="M17.2,63L29,58.8v-4.7l-7,2.5v-4.7l5.3-1.9v-4.2L22,47.7v-4l6.9-2.4v-4.7l-11.8,4.2L17.2,63z"></path> <path class="st0" d="M44.7,44.9l-4.4,1.5v2.3c0,1.3-0.8,2.5-2,2.9s-1.9,0-1.9-1.2V40c0-1.3,0.8-2.4,2.1-2.8c1.3-0.4,1.9,0,1.9,1.3 v2.4l4.4-1.5V37c0-3.2-1.7-5-4.5-4.7c-0.7,0.1-1.3,0.2-2,0.5c-4,1.3-6.7,4.9-6.7,9.1v9.8c0,3.3,2,5.2,5,4.9c0.7-0.1,1.3-0.2,1.9-0.5 c3.8-1.2,6.3-4.7,6.3-8.6L44.7,44.9z"></path> <path class="st0" d="M50.2,6.1c8.6,0,16.8,3.3,23,9.2l6.3-2.2C65-3.1,40.2-4.5,24,10c-7.8,7-12.5,16.8-13,27.3l6.3-2.2 C19.4,18.5,33.5,6.1,50.2,6.1"></path> <path class="st0" d="M52,73.9c-8.7,0-17-3.4-23.2-9.4l-6.3,2.2C37,83,61.8,84.5,78.1,70.1c8-7.1,12.7-17,13.2-27.7L85,44.7 C83,61.4,68.8,73.9,52,73.9"></path> </svg>