<?xml version="1.0" encoding="UTF-8"?>
<svg version="1.1" xmlns="http://www.w3.org/2000/svg" width="922" height="236">
<path d="M0 0 C304.26 0 608.52 0 922 0 C922 77.88 922 155.76 922 236 C617.74 236 313.48 236 0 236 C0 158.12 0 80.24 0 0 Z " fill="#FEFEFE" transform="translate(0,0)"/>
<path d="M0 0 C7.26 0 14.52 0 22 0 C22 49.5 22 99 22 150 C14.74 150 7.48 150 0 150 C-0.495 144.06 -0.495 144.06 -1 138 C-2.2375 139.216875 -3.475 140.43375 -4.75 141.6875 C-15.31833488 151.11873556 -28.17280999 152.93084742 -41.8359375 152.2265625 C-50.89325207 151.27832379 -58.86063872 146.34698999 -66 141 C-66.86625 140.4225 -67.7325 139.845 -68.625 139.25 C-74.47835047 133.70472061 -78.89576653 126.41566884 -82 119 C-82.2990625 118.33484375 -82.598125 117.6696875 -82.90625 116.984375 C-87.85348493 103.88336398 -86.14220263 87.28347311 -80.55859375 74.76953125 C-73.87735043 61.29853253 -63.89258818 52.58425559 -49.7734375 47.33203125 C-44.71121218 45.71949317 -39.9085736 45.50173601 -34.625 45.5625 C-33.70106445 45.57007324 -32.77712891 45.57764648 -31.82519531 45.58544922 C-19.54142601 45.88204358 -9.71430545 50.28569455 -1 59 C-0.67 39.53 -0.34 20.06 0 0 Z " fill="#17373E" transform="translate(470,33)"/>
<path d="M0 0 C1.25296875 0.68642578 1.25296875 0.68642578 2.53125 1.38671875 C14.42072689 8.61948386 21.13319711 20.76533653 24.9375 33.875 C26 40 26 40 26 56 C-0.4 56 -26.8 56 -54 56 C-47.6575452 70.22250877 -47.6575452 70.22250877 -35.52392578 78.19946289 C-31.2122067 79.56705109 -27.05356462 79.5934788 -22.5625 79.5 C-21.63743652 79.48864014 -20.71237305 79.47728027 -19.75927734 79.46557617 C-9.63238039 79.1765686 -2.90812461 76.18896709 5 70 C8.78336048 71.54104843 10.97944825 73.85809607 13.6875 76.875 C14.47511719 77.73867187 15.26273438 78.60234375 16.07421875 79.4921875 C17.85623213 81.81278098 18.60896815 83.15010688 19 86 C6.87775163 96.16043523 -5.44879015 101.60745094 -21.375 101.375 C-22.38868652 101.36412354 -23.40237305 101.35324707 -24.44677734 101.34204102 C-38.93816535 101.03339146 -52.61495143 96.87452576 -63.453125 86.70703125 C-76.31815577 72.51001497 -78.88361215 56.80349668 -78.17480469 38.31835938 C-77.8013762 33.36573795 -76.28739254 29.3575846 -74 25 C-73.51402344 24.00742188 -73.02804687 23.01484375 -72.52734375 21.9921875 C-68.54257898 14.47482985 -63.71496202 9.18011356 -57 4 C-56.35289062 3.49726562 -55.70578125 2.99453125 -55.0390625 2.4765625 C-39.91476668 -8.05301054 -15.96878722 -8.90025052 0 0 Z " fill="#17373E" transform="translate(591,84)"/>
<path d="M0 0 C1.25296875 0.68642578 1.25296875 0.68642578 2.53125 1.38671875 C14.42072689 8.61948386 21.13319711 20.76533653 24.9375 33.875 C26 40 26 40 26 56 C-0.4 56 -26.8 56 -54 56 C-48.79640864 68.00381452 -48.79640864 68.00381452 -40 76 C-39.16082031 76.53367187 -38.32164062 77.06734375 -37.45703125 77.6171875 C-32.66760474 79.5329581 -28.36096379 79.47548689 -23.25 79.4375 C-22.3115625 79.45748047 -21.373125 79.47746094 -20.40625 79.49804688 C-10.36531521 79.49111253 -2.81825128 76.11863144 5 70 C8.36202939 71.42609159 10.23675579 73.14348515 12.5625 75.9375 C15.01177688 78.87687117 15.01177688 78.87687117 17.77734375 81.50390625 C19 83 19 83 18.90234375 85.00390625 C15.95780324 91.51758678 6.2795017 95.43884822 0 98 C-7.20266769 100.67541691 -13.71626344 101.48678306 -21.375 101.375 C-22.38868652 101.36412354 -23.40237305 101.35324707 -24.44677734 101.34204102 C-38.93816535 101.03339146 -52.61495143 96.87452576 -63.453125 86.70703125 C-75.86242631 73.01292854 -78.7401251 57.9883881 -78.13183594 40.12646484 C-77.34280675 27.39971621 -70.23248326 15.50073501 -61 7 C-44.3241215 -6.44597377 -19.29149759 -10.75217292 0 0 Z " fill="#17373E" transform="translate(226,84)"/>
<path d="M0 0 C6.93 0 13.86 0 21 0 C21.33 32.01 21.66 64.02 22 97 C31.74501395 86.64995426 31.74501395 86.64995426 41.1640625 76.0859375 C43.72492222 73.17636497 46.36422719 70.34164858 49 67.5 C57.10941184 59.17436645 57.10941184 59.17436645 63.828125 49.80078125 C65.80149833 47.42806561 66.83334393 47.02735275 69.93188477 46.51879883 C73.57589922 46.40857658 77.16988271 46.47801389 80.8125 46.625 C82.71032227 46.66560547 82.71032227 46.66560547 84.64648438 46.70703125 C87.7660547 46.77766303 90.88215841 46.87626354 94 47 C90.76167484 51.45722611 87.5610234 55.68489511 83.5625 59.5 C80.20599712 62.77844467 77.06845181 66.13619449 74.01953125 69.69921875 C72.39846824 71.54603908 70.75278916 73.35074915 69.07421875 75.14453125 C68.28494995 75.98902832 68.28494995 75.98902832 67.47973633 76.85058594 C66.43993354 77.95983546 65.39698965 79.06615222 64.3503418 80.16894531 C60.86107 83.89772762 57.89681308 87.79272386 55 92 C60.89468906 100.61346402 66.82420637 109.20129897 72.8125 117.75 C73.39032227 118.57580566 73.96814453 119.40161133 74.56347656 120.25244141 C77.69711335 124.72721962 80.8432342 129.19270937 84.00390625 133.6484375 C84.97589966 135.02370605 84.97589966 135.02370605 85.9675293 136.42675781 C87.21902572 138.19708143 88.47427634 139.9647583 89.73364258 141.72949219 C90.57318481 142.91913574 90.57318481 142.91913574 91.4296875 144.1328125 C91.92710449 144.83293457 92.42452148 145.53305664 92.93701172 146.25439453 C94 148 94 148 94 150 C74.19695998 152.83281047 74.19695998 152.83281047 67.76464844 148.49121094 C63.79870615 144.3758454 61.07651187 139.48570533 58.37939453 134.48046875 C56.23575347 130.62570889 53.67676288 127.09143442 51.125 123.5 C50.23278058 122.19989971 49.34334955 120.89788041 48.45703125 119.59375 C45.3456655 115.03380207 42.178745 110.51316696 39 106 C37.3743156 107.30761571 35.76507601 108.63849673 34.21875 110.0390625 C32 112 32 112 29.34375 113.8984375 C23.55099138 118.77567392 21.80622645 122.2460466 21.140625 129.71875 C20.80019988 136.48659797 20.83702896 143.22711548 21 150 C14.07 150 7.14 150 0 150 C0 100.5 0 51 0 0 Z " fill="#17363D" transform="translate(735,33)"/>
<path d="M0 0 C29.04 0 58.08 0 88 0 C88 21 88 21 85.17358398 26.19458008 C83.30064392 28.05293274 83.30064392 28.05293274 81.24609375 29.76953125 C80.55242203 30.4311174 79.85875031 31.09270355 79.14405823 31.77433777 C76.95330128 33.84282049 74.70231878 35.82571027 72.4375 37.8125 C70.95023234 39.18552474 69.467763 40.563766 67.99023438 41.94726562 C65.89997653 43.90196065 63.80660717 45.84718201 61.67198181 47.75337219 C56.97684615 51.9508036 53.22170228 56.17519739 49 61 C42.07 67.93 35.14 74.86 28 82 C58.195 82.495 58.195 82.495 89 83 C89 89.27 89 95.54 89 102 C58.97 102 28.94 102 -2 102 C-2 82 -2 82 0.55102539 77.19433594 C2.24195862 75.51776123 2.24195862 75.51776123 4.09765625 73.984375 C4.72473984 73.38796204 5.35182343 72.79154907 5.99790955 72.17706299 C7.97707262 70.31454864 10.01280671 68.53426713 12.0625 66.75 C13.40500987 65.51672833 14.74294468 64.27845711 16.07617188 63.03515625 C18.61704247 60.67219144 21.17651163 58.33273269 23.75219727 56.0078125 C26.81109747 53.21637804 29.53794552 50.26633938 32.18579102 47.08300781 C36.64286578 41.96555903 41.62232383 37.27831451 46.4375 32.5 C50.253125 28.705 54.06875 24.91 58 21 C38.86 20.67 19.72 20.34 0 20 C0 13.4 0 6.8 0 0 Z " fill="#16363D" transform="translate(41,81)"/>
<path d="M0 0 C0.96454102 0.00757324 1.92908203 0.01514648 2.92285156 0.02294922 C15.88849217 0.32229077 27.0407801 4.81667156 36.8125 13.4375 C47.8765857 25.23743938 48.28079225 39.1980407 48.22265625 54.4375 C48.2207881 55.88338166 48.21936607 57.32926396 48.21836853 58.77514648 C48.21457463 62.55623157 48.20477151 66.33727744 48.19366455 70.11834717 C48.18338274 73.9864448 48.17885649 77.85454885 48.17382812 81.72265625 C48.16314604 89.29429067 48.14557504 96.86588481 48.125 104.4375 C40.865 104.4375 33.605 104.4375 26.125 104.4375 C26.1156543 102.55111816 26.10630859 100.66473633 26.09667969 98.72119141 C26.06100813 92.45456858 26.00711954 86.1883041 25.94109726 79.92193031 C25.90176352 76.12648538 25.86950672 72.33126755 25.85400391 68.53564453 C25.83874324 64.865435 25.80413464 61.19585041 25.75669098 57.52592087 C25.74197323 56.13311605 25.73396456 54.74022195 25.73311615 53.34733963 C25.72122362 43.603477 25.04130491 35.28135081 18.75 27.5 C11.35548362 21.69002285 4.270641 20.75157693 -4.875 21.4375 C-12.06650993 22.91076071 -17.52960251 27.15394352 -21.75 33.0625 C-23.78640836 37.36158431 -24.0159531 41.11347134 -24.08032227 45.85839844 C-24.10026749 47.15944519 -24.12021271 48.46049194 -24.14076233 49.80096436 C-24.15774418 51.2162667 -24.17462307 52.63157028 -24.19140625 54.046875 C-24.21198755 55.49847999 -24.23298433 56.95007914 -24.25437927 58.40167236 C-24.30947851 62.21562972 -24.35894115 66.02964007 -24.40722656 69.84368896 C-24.45753049 73.73828834 -24.51317007 77.63281109 -24.56835938 81.52734375 C-24.6757923 89.16399933 -24.77677673 96.8007194 -24.875 104.4375 C-32.135 104.4375 -39.395 104.4375 -46.875 104.4375 C-46.92036745 96.13525732 -46.95698277 87.83311266 -46.97862434 79.53077888 C-46.9890165 75.6747689 -47.00309113 71.81884886 -47.02587891 67.96289062 C-47.04777165 64.23461917 -47.05960289 60.5064337 -47.06475449 56.77810287 C-47.06842099 55.36290002 -47.07557986 53.94770133 -47.08646011 52.53253555 C-47.19520565 37.78829052 -45.70875733 24.28899563 -35.125 13.0625 C-24.92915044 3.73891894 -13.68941657 -0.15135719 0 0 Z " fill="#16363D" transform="translate(319.875,78.5625)"/>
<path d="M0 0 C4.87559737 3.36203676 9.9021309 6.84033843 13 12 C11.56934672 16.29195983 8.38967673 17.59257925 4.6875 19.8125 C3.67139648 20.4612207 3.67139648 20.4612207 2.63476562 21.12304688 C-2.3718232 24.1524491 -2.3718232 24.1524491 -5.26953125 23.44921875 C-7.59077939 21.50523893 -9.82583488 19.52053565 -12.0234375 17.4375 C-16.77328458 13.98306576 -21.7791014 13.70494176 -27.5 13.6875 C-28.7684375 13.67074219 -30.036875 13.65398437 -31.34375 13.63671875 C-36.07403837 14.10671535 -39.44777506 15.49951589 -42.875 18.8125 C-44.40719117 21.79176061 -44.48221759 23.69336511 -44 27 C-40.04435052 32.32491276 -33.92750249 34.21685513 -27.67578125 35.61328125 C-26.48146484 35.89236328 -25.28714844 36.17144531 -24.05664062 36.45898438 C-21.58164311 37.02318569 -19.10508772 37.58060055 -16.62695312 38.13085938 C-4.73285338 40.93360215 4.78779483 45.05039311 12.25 55 C15.64024118 60.81184202 15.64281163 67.41797109 15 74 C12.39485515 83.27431566 6.48110999 90.7231928 -1.6328125 95.75 C-13.88533046 102.21997648 -29.9894272 102.89050635 -43.43359375 100.3515625 C-46.13182101 99.43518343 -48.50262613 98.36991868 -51 97 C-51.94101562 96.49082031 -52.88203125 95.98164063 -53.8515625 95.45703125 C-61.64659006 90.86615922 -67.86974086 85.65688892 -71 77 C-68.04550087 75.3264663 -65.0857982 73.66236015 -62.125 72 C-61.28324219 71.52304688 -60.44148437 71.04609375 -59.57421875 70.5546875 C-58.76855469 70.10351562 -57.96289062 69.65234375 -57.1328125 69.1875 C-56.38918457 68.76855469 -55.64555664 68.34960938 -54.87939453 67.91796875 C-53 67 -53 67 -51 67 C-50.484375 67.86625 -49.96875 68.7325 -49.4375 69.625 C-46.01442042 75.01507306 -40.41157636 78.01750593 -34.625 80.375 C-26.05549855 81.85250025 -19.79431852 81.52697472 -11.99609375 77.484375 C-8.65633711 75.00079863 -8.10579076 72.58184917 -7.375 68.5625 C-7.62636436 65.11661104 -7.62636436 65.11661104 -9.33203125 63.67700195 C-15.68050862 59.60979981 -22.32599809 58.2196258 -29.625 56.625 C-56.01813738 50.41966348 -56.01813738 50.41966348 -62.95703125 40.7265625 C-67.27566905 33.57735686 -68.16496135 27.36480448 -67 19 C-63.36637531 8.12489632 -57.71370771 2.80051735 -47.8125 -2.3125 C-33.43212677 -9.34577625 -13.52574884 -8.55968618 0 0 Z " fill="#18373E" transform="translate(702,84)"/>
<path d="M0 0 C0.62261719 0.350625 1.24523437 0.70125 1.88671875 1.0625 C8.29750532 5.06750332 12.7597434 11.83936247 15 19 C16.020788 30.82214939 15.39545969 39.78502588 7.75 49.25 C2.30792024 55.11249794 -4.53055929 59.49088518 -12.56640625 60.40625 C-23.22209864 60.65623692 -31.0092328 59.17294865 -39.375 51.94921875 C-46.32057094 44.76106353 -49.15851959 37.56306093 -49.625 27.625 C-49.34949601 18.21986363 -45.97458974 10.84729945 -39.5625 4 C-28.94264578 -5.61178859 -12.34889937 -7.6457544 0 0 Z " fill="#FDFDFD" transform="translate(456,104)"/>
<path d="M0 0 C5.38454569 3.38591519 9.27430435 7.20564619 11.7890625 13.125 C12.2840625 17.085 12.2840625 17.085 12.7890625 21.125 C-5.6909375 21.125 -24.1709375 21.125 -43.2109375 21.125 C-40.66831506 10.95451023 -36.66288687 5.19727431 -28.2109375 -0.875 C-19.50733779 -4.59653918 -8.37551074 -4.51712939 0 0 Z " fill="#FCFCFD" transform="translate(580.2109375,101.875)"/>
<path d="M0 0 C4.91807935 3.59328307 9.20480596 7.52141968 12 13 C12.495 16.96 12.495 16.96 13 21 C-5.15 21 -23.3 21 -42 21 C-40.87138082 11.97104655 -38.62937674 8.08356675 -32.0625 2.1875 C-23.00112377 -4.28491159 -9.92514841 -6.10117348 0 0 Z " fill="#FCFDFD" transform="translate(215,102)"/>
</svg>
