<?xml version="1.0" encoding="UTF-8"?>
<svg version="1.1" xmlns="http://www.w3.org/2000/svg" width="1004" height="668">
<path d="M0 0 C331.32 0 662.64 0 1004 0 C1004 220.44 1004 440.88 1004 668 C672.68 668 341.36 668 0 668 C0 447.56 0 227.12 0 0 Z " fill="#479FDB" transform="translate(0,0)"/>
<path d="M0 0 C331.32 0 662.64 0 1004 0 C1004 220.44 1004 440.88 1004 668 C672.68 668 341.36 668 0 668 C0 447.56 0 227.12 0 0 Z M278 45 C277.22889893 45.13543213 276.45779785 45.27086426 275.66333008 45.41040039 C243.654656 51.43752841 215.07058518 68.41409098 192 91 C191.26523438 91.68449219 190.53046875 92.36898437 189.7734375 93.07421875 C163.52493798 118.01552208 145.02058633 158.26391615 143.80932617 194.38427734 C143.72546546 198.30655138 143.7185244 202.22714533 143.73925781 206.15014648 C143.75000331 208.5632428 143.7392822 210.97559757 143.7265625 213.38867188 C143.71426384 225.71011884 145.03035983 237.38582154 148.25 249.3125 C148.46035889 250.10503174 148.67071777 250.89756348 148.88745117 251.71411133 C151.06863749 259.67635385 153.92728396 267.34460781 157 275 C155.98873047 275.33644531 155.98873047 275.33644531 154.95703125 275.6796875 C131.1257007 286.32036085 112.69769844 311.57774661 101 334 C100.65751221 334.64912354 100.31502441 335.29824707 99.9621582 335.96704102 C97.55511928 340.63314282 95.64640272 345.35161529 93.9375 350.3125 C93.69451172 350.99505859 93.45152344 351.67761719 93.20117188 352.38085938 C92.43366029 354.57753046 91.71342303 356.78515851 91 359 C90.74207672 359.78542175 90.48415344 360.57084351 90.21841431 361.38006592 C87.98871711 368.74700853 87.517955 375.6090557 87.49609375 383.27734375 C87.48610855 384.52391251 87.47612335 385.77048126 87.46583557 387.05482483 C87.45072172 389.68275665 87.44360767 392.31074546 87.4440918 394.9387207 C87.43756891 398.89569775 87.38311278 402.85011038 87.32617188 406.80664062 C87.22570043 421.84686147 88.35450806 434.9909638 94 449 C94.32760818 449.81374588 94.65521637 450.62749176 94.99275208 451.46589661 C103.45205576 472.17038219 114.92171973 489.34483237 131 505 C131.67482422 505.7425 131.67482422 505.7425 132.36328125 506.5 C148.7943212 524.11342248 173.80199614 535.86074991 197 541 C198.26714844 541.2990625 199.53429687 541.598125 200.83984375 541.90625 C219.56846193 545.98927718 239.14527078 544.51696028 258 542 C258.19851563 542.67160156 258.39703125 543.34320312 258.6015625 544.03515625 C264.6540879 561.93861879 275.97442391 578.43560347 289 592 C289.82733643 592.87857666 289.82733643 592.87857666 290.67138672 593.77490234 C311.68338894 615.99605787 336.4861954 629.98467201 366 638 C366.62928909 638.17173233 367.25857819 638.34346466 367.90693665 638.520401 C374.30300377 640.11104066 380.49483693 640.37068498 387.06640625 640.44140625 C388.21753403 640.45517807 389.3686618 640.46894989 390.55467224 640.48313904 C392.98944363 640.50633282 395.42427741 640.52363781 397.85913086 640.53540039 C401.50044781 640.56204593 405.13872366 640.63696807 408.77929688 640.71289062 C448.26591435 641.15185099 484.50267547 622.86927175 512.5625 595.75 C525.86797787 582.14169475 535.89906091 566.13960747 544 549 C545.03898437 549.39832031 546.07796875 549.79664063 547.1484375 550.20703125 C565.34040626 557.1405328 582.70004077 561.61067087 602.25 561.4375 C602.96345581 561.43512329 603.67691162 561.43274658 604.4119873 561.43029785 C616.31494242 561.36855571 627.50816725 560.17955847 639 557 C640.1653125 556.71125 641.330625 556.4225 642.53125 556.125 C663.46389248 550.43457292 682.46793761 537.56963979 697.60546875 522.38671875 C698.92556104 521.07093345 700.25695697 519.76517329 701.6328125 518.5078125 C705.92799764 514.52745768 709.3599697 510.0170096 712.8125 505.3125 C713.53300537 504.33144287 713.53300537 504.33144287 714.26806641 503.33056641 C716.45877633 500.29900933 718.38409512 497.38400921 720 494 C722.12513038 494.14392093 724.25009756 494.29025196 726.375 494.4375 C727.55835938 494.51871094 728.74171875 494.59992188 729.9609375 494.68359375 C732.90403907 494.89663723 735.8289522 495.19893515 738.76171875 495.5234375 C768.33952027 498.52225109 798.57755218 494.31485992 826 483 C827.02480469 482.5771875 828.04960938 482.154375 829.10546875 481.71875 C841.36861296 476.35702077 853.13513756 469.80911988 864 462 C865.051875 461.2471875 866.10375 460.494375 867.1875 459.71875 C882.35480556 448.50156445 896.31196548 434.54960578 907 419 C907.43183594 418.38543945 907.86367188 417.77087891 908.30859375 417.13769531 C916.27966837 405.72867137 922.33618978 393.6890874 928 381 C928.53753906 379.81921875 929.07507813 378.6384375 929.62890625 377.421875 C932.10448122 371.77608611 933.88351639 366.19723178 935.2265625 360.1796875 C935.87264194 357.52358316 936.6424787 354.99638865 937.48046875 352.3984375 C939.24172901 346.58215746 940.02553292 340.7789366 940.6875 334.75 C940.87638794 333.05133789 940.87638794 333.05133789 941.0690918 331.31835938 C942.74896127 315.0587697 942.51764659 299.09961422 940.25585938 282.91796875 C940.03225125 281.24176127 939.8630553 279.55847688 939.703125 277.875 C937.75816478 260.4629752 930.71992183 242.66245293 923 227 C922.5364209 226.05423096 922.5364209 226.05423096 922.06347656 225.08935547 C915.92476994 212.72780767 908.4027753 201.69388026 899.62890625 191.0234375 C898 189 898 189 896 186 C895.34 186 894.68 186 894 186 C893.77828125 185.45472656 893.5565625 184.90945312 893.328125 184.34765625 C891.57933577 181.25641411 889.25507887 178.91482065 886.75 176.4375 C886.22059814 175.9130127 885.69119629 175.38852539 885.14575195 174.84814453 C848.04156507 138.79974584 799.40541882 123.03499867 748.46380615 123.67457581 C727.24307082 124.0592122 707.4309189 128.51663991 687.94140625 136.86328125 C685 138 685 138 682 138 C680.4921875 135.76171875 680.4921875 135.76171875 678.875 132.6875 C675.20906075 126.14556239 670.93217645 120.62885627 666 115 C665.16597656 114.03191406 664.33195313 113.06382813 663.47265625 112.06640625 C637.83655632 82.82254543 600.79357577 64.08975382 562 61 C520.63350431 58.39130207 481.63086111 71.67931122 450.55078125 98.98828125 C447.99256046 101.28239181 445.4818667 103.62329715 443 106 C439.18556522 104.72852174 438.20674979 103.02754257 435.75 99.875 C417.95108533 77.66928009 392.24739711 61.36530716 365.578125 51.9296875 C363.92228203 51.33258049 362.27896692 50.69878141 360.65478516 50.02026367 C358.08896735 49.03419115 355.62371214 48.35242338 352.9453125 47.74609375 C352.00042969 47.53146484 351.05554688 47.31683594 350.08203125 47.09570312 C348.61830078 46.76989258 348.61830078 46.76989258 347.125 46.4375 C346.15691406 46.21642578 345.18882812 45.99535156 344.19140625 45.76757812 C336.33303121 43.99810728 328.79258244 42.8443572 320.71484375 42.83203125 C319.54762535 42.82703865 319.54762535 42.82703865 318.35682678 42.82194519 C316.71551092 42.81690717 315.07418492 42.81453589 313.43286133 42.81469727 C310.96873251 42.8125275 308.50506449 42.79438469 306.04101562 42.77539062 C296.49140102 42.74099385 287.41898367 43.28540377 278 45 Z " fill="#FEFEFE" transform="translate(0,0)"/>
<path d="M0 0 C8.6235069 5.50351139 13.31773835 13.01180881 16.515625 22.60546875 C16.80384709 26.78806815 16.79348529 30.97656364 16.828125 35.16796875 C16.87163086 36.88209961 16.87163086 36.88209961 16.91601562 38.63085938 C16.99929408 49.83501405 13.97980728 58.22232936 6.515625 66.60546875 C-0.9291639 74.05025765 -8.75629037 76.00237505 -18.984375 76.10546875 C-28.00904642 76.01450482 -36.17278308 74.66712259 -43.046875 68.26171875 C-52.50934854 57.35930359 -55.25672028 45.59429859 -54.765625 31.4375 C-54.00819913 21.11757247 -50.76705116 11.29856052 -42.859375 4.2734375 C-30.58326992 -4.98367978 -14.08962794 -7.02513572 0 0 Z " fill="#FAFDFD" transform="translate(642.484375,287.39453125)"/>
<path d="M0 0 C0.99064453 -0.02900391 1.98128906 -0.05800781 3.00195312 -0.08789062 C10.96253391 -0.15575131 17.81001435 1.21464119 24.21484375 6.171875 C24.72144531 6.79578125 25.22804688 7.4196875 25.75 8.0625 C26.27464844 8.67609375 26.79929687 9.2896875 27.33984375 9.921875 C32.00008561 17.48704216 32.22338007 24.22582928 32.10546875 32.90625 C32.10122391 34.09351685 32.09697906 35.28078369 32.09260559 36.50402832 C32.07589339 40.2737554 32.03825381 44.04293612 32 47.8125 C31.98494358 50.37759641 31.97125685 52.94270126 31.95898438 55.5078125 C31.92601423 61.77622619 31.87588896 68.04432405 31.8125 74.3125 C21.03934523 78.03111167 11.10825651 79.66137184 -0.3125 79.625 C-1.84197266 79.64916992 -1.84197266 79.64916992 -3.40234375 79.67382812 C-12.49328094 79.67966313 -19.97375334 78.24714098 -26.75 71.92578125 C-31.49767721 66.59754569 -32.4697574 60.52338704 -32.32421875 53.671875 C-31.89442896 46.25493114 -29.8154296 41.75542104 -24.5390625 36.3671875 C-14.54569304 27.63543943 -3.15345542 28.73648991 9.42163086 29.11962891 C11.66168849 29.30033406 13.6564338 29.6946963 15.8125 30.3125 C15.70391768 23.66426107 15.70391768 23.66426107 13 17.8125 C8.08007508 14.4388372 4.13878233 13.92834042 -1.8125 13.9375 C-3.0193042 13.93447876 -3.0193042 13.93447876 -4.25048828 13.93139648 C-9.83620851 14.02657563 -14.2495585 14.8777892 -19.2421875 17.53515625 C-21.1875 18.3125 -21.1875 18.3125 -23.33203125 18.171875 C-25.1875 17.3125 -25.1875 17.3125 -26.26953125 15.60546875 C-26.51058594 14.91066406 -26.75164062 14.21585937 -27 13.5 C-27.25394531 12.81292969 -27.50789063 12.12585938 -27.76953125 11.41796875 C-28.27010607 8.89638158 -28.30853818 7.64192999 -27.1875 5.3125 C-24.859375 4.08203125 -24.859375 4.08203125 -21.9375 3.125 C-20.98359375 2.80144531 -20.0296875 2.47789062 -19.046875 2.14453125 C-12.64881592 0.28280094 -6.62771457 0.06344334 0 0 Z " fill="#FAFCFD" transform="translate(311.1875,283.6875)"/>
<path d="M0 0 C9.12247044 4.56914031 14.00359949 11.55494411 17.5625 20.9375 C18.90837411 27.50373431 18.52488055 34.65119556 18.1875 41.3125 C17.1875 42.3125 17.1875 42.3125 15.16905212 42.43275452 C14.28302811 42.43053391 13.39700409 42.42831329 12.48413086 42.42602539 C11.48316879 42.42594986 10.48220673 42.42587433 9.45091248 42.42579651 C8.3623848 42.42063522 7.27385712 42.41547394 6.15234375 42.41015625 C5.04395645 42.4087413 3.93556915 42.40732635 2.79359436 42.40586853 C-0.76263069 42.40025033 -4.31879383 42.38769475 -7.875 42.375 C-10.27929597 42.36998734 -12.68359292 42.36542403 -15.08789062 42.36132812 C-20.99611504 42.35027499 -26.9043031 42.33351917 -32.8125 42.3125 C-32.51095538 43.92011095 -32.20390839 45.52669049 -31.89453125 47.1328125 C-31.7241333 48.02758301 -31.55373535 48.92235352 -31.37817383 49.84423828 C-30.12460533 55.31406025 -27.30215008 58.13689385 -22.8125 61.3125 C-18.41248976 63.85572408 -14.53412945 63.64415111 -9.5625 63.625 C-8.33080078 63.64916992 -8.33080078 63.64916992 -7.07421875 63.67382812 C-2.8187612 63.67720012 0.58472154 63.34158537 4.546875 61.73046875 C8.1875 60.3125 8.1875 60.3125 12.1875 61.3125 C13.1775 64.9425 14.1675 68.5725 15.1875 72.3125 C9.7894079 77.7105921 0.03709129 77.71376577 -7.17773438 77.77148438 C-8.23283203 77.76439453 -9.28792969 77.75730469 -10.375 77.75 C-11.43396484 77.76998047 -12.49292969 77.78996094 -13.58398438 77.81054688 C-24.39467661 77.80388594 -32.73608924 74.48525641 -40.8125 67.3125 C-48.85191467 59.04338776 -50.70644296 49.74860119 -50.5625 38.5625 C-50.5529126 37.32346924 -50.5433252 36.08443848 -50.53344727 34.80786133 C-50.18702083 22.86989627 -47.42086554 15.14176971 -39.375 6.1875 C-29.20475802 -2.90373211 -12.63261515 -4.8050438 0 0 Z " fill="#F8FBFC" transform="translate(836.8125,285.6875)"/>
<path d="M0 0 C1.25731934 0.01027222 1.25731934 0.01027222 2.54003906 0.02075195 C8.64050739 0.17963071 13.41250434 0.99287571 18.5625 4.4375 C19.1915625 4.79972656 19.820625 5.16195313 20.46875 5.53515625 C27.77188609 10.09961631 31.03534491 17.11867364 33.06640625 25.27734375 C34.01032658 31.29019055 33.97435663 37.37053497 33.5625 43.4375 C32.5625 44.4375 32.5625 44.4375 30.54405212 44.55775452 C29.65802811 44.55553391 28.77200409 44.55331329 27.85913086 44.55102539 C26.85816879 44.55094986 25.85720673 44.55087433 24.82591248 44.55079651 C23.7373848 44.54563522 22.64885712 44.54047394 21.52734375 44.53515625 C20.41895645 44.5337413 19.31056915 44.53232635 18.16859436 44.53086853 C14.61236931 44.52525033 11.05620617 44.51269475 7.5 44.5 C5.09570403 44.49498734 2.69140708 44.49042403 0.28710938 44.48632812 C-5.62111504 44.47527499 -11.5293031 44.45851917 -17.4375 44.4375 C-17.1448403 46.3760418 -16.84375191 48.31331252 -16.5390625 50.25 C-16.37229004 51.32894531 -16.20551758 52.40789062 -16.03369141 53.51953125 C-15.27723658 57.22188507 -14.33693456 58.9958709 -11.4375 61.4375 C-5.64264122 65.14706812 -0.74009703 66.04424599 6.0625 65.875 C6.86558594 65.88208984 7.66867187 65.88917969 8.49609375 65.89648438 C14.16480775 65.83676535 18.33241016 64.58069986 23.5625 62.4375 C24.5525 62.4375 25.5425 62.4375 26.5625 62.4375 C27.26156942 64.03665881 27.94639468 65.64205045 28.625 67.25 C29.00785156 68.14332031 29.39070313 69.03664063 29.78515625 69.95703125 C30.5625 72.4375 30.5625 72.4375 29.5625 75.4375 C22.26486641 80.06036535 13.32481585 79.8621207 5 79.9375 C3.948125 79.95578857 2.89625 79.97407715 1.8125 79.99291992 C-9.51250483 79.90543744 -18.10491215 76.83889459 -26.2734375 68.9296875 C-35.26398315 58.57595442 -36.34167693 45.66720463 -35.6328125 32.49414062 C-34.51598129 20.73390803 -28.17041898 12.64650193 -19.7578125 4.98046875 C-13.52717654 0.83720073 -7.36864419 -0.09236668 0 0 Z " fill="#F8FCFC" transform="translate(424.4375,283.5625)"/>
<path d="M0 0 C-0.48575446 4.7765855 -1.08861101 8.56340198 -3 13 C-3.86882812 12.96519531 -4.73765625 12.93039062 -5.6328125 12.89453125 C-14.46491348 12.31191088 -14.46491348 12.31191088 -22 16 C-24.68564107 21.14318659 -26.59442574 26.37770298 -28 32 C-22.06 32 -16.12 32 -10 32 C-10.54380741 36.35045925 -11.14016499 40.70082496 -12 45 C-17.94 45 -23.88 45 -30 45 C-30.38091797 47.69736328 -30.38091797 47.69736328 -30.76953125 50.44921875 C-31.11689961 52.86202063 -31.46457218 55.27477873 -31.8125 57.6875 C-31.97814453 58.86634766 -32.14378906 60.04519531 -32.31445312 61.25976562 C-33.33322729 68.27585188 -34.65579129 75.12211454 -36.31079102 82.01489258 C-37.26570273 86.15081377 -37.94128242 90.30315911 -38.5625 94.5 C-38.75344238 95.71780151 -38.75344238 95.71780151 -38.94824219 96.96020508 C-39.49698034 100.48546376 -39.999518 103.99558406 -40.38671875 107.54296875 C-41.13130444 113.98803846 -42.76169645 119.50979578 -45.3125 125.4375 C-45.59641602 126.10031982 -45.88033203 126.76313965 -46.17285156 127.44604492 C-49.51699288 134.77879084 -53.73549027 139.43378613 -61 143 C-65.12648847 144.2482935 -69.22299038 144.18386926 -73.5 144.1875 C-74.25925781 144.19974609 -75.01851562 144.21199219 -75.80078125 144.22460938 C-80.00522625 144.23565433 -82.15171997 143.92414002 -86 142 C-85.01 138.37 -84.02 134.74 -83 131 C-79.37203016 130.09300754 -77.20308106 130.02782862 -73.5625 130.25 C-69.49054295 130.28795433 -68.39372478 130.28709099 -65 127.8125 C-61.43738726 122.80257584 -59.41937901 118.57924385 -58.24609375 112.53125 C-58.02651756 111.45611145 -58.02651756 111.45611145 -57.80250549 110.35925293 C-57.49483932 108.84391197 -57.19169852 107.32764598 -56.89282227 105.81054688 C-56.44402346 103.53310352 -55.9821634 101.25864465 -55.51757812 98.984375 C-53.77005443 90.35306906 -52.27409669 81.71512293 -51 73 C-50.32290734 68.62334557 -49.63051418 64.24915793 -48.9375 59.875 C-48.76412109 58.76640625 -48.59074219 57.6578125 -48.41210938 56.515625 C-48.24388672 55.45601563 -48.07566406 54.39640625 -47.90234375 53.3046875 C-47.67792603 51.8813208 -47.67792603 51.8813208 -47.44897461 50.42919922 C-47 48 -47 48 -46 45 C-49.96 45 -53.92 45 -58 45 C-57.125 33.125 -57.125 33.125 -56 32 C-53.81360547 31.92741054 -51.62499611 31.91626217 -49.4375 31.9375 C-47.64119141 31.95103516 -47.64119141 31.95103516 -45.80859375 31.96484375 C-44.88175781 31.97644531 -43.95492187 31.98804688 -43 32 C-42.99742187 31.34515625 -42.99484375 30.6903125 -42.9921875 30.015625 C-42.58385159 20.37889761 -39.18775587 12.134753 -32.6875 4.9375 C-25.3582164 -1.53880663 -9.01560559 -4.5078028 0 0 Z " fill="#FAFDFD" transform="translate(597,253)"/>
<path d="M0 0 C2.35546875 1.63671875 2.35546875 1.63671875 4 3 C3.49202991 7.3177458 2.80317221 11.03302114 1 15 C-1.98047995 14.58411908 -4.64509232 14.14560315 -7.4375 13 C-12.69869347 10.94685133 -18.09425979 10.86913938 -23.6875 10.6875 C-24.78449219 10.65011719 -25.88148438 10.61273438 -27.01171875 10.57421875 C-30.09173447 10.76728924 -30.09173447 10.76728924 -32.38671875 12.80078125 C-34.32902979 15.01635647 -34.32902979 15.01635647 -34.125 18.5 C-32.93823165 22.19216821 -32.10400075 23.03892824 -28.90820312 25.02246094 C-25.17352044 26.93567351 -21.17476835 28.10194757 -17.1875 29.375 C-8.09028226 32.42329099 0.63354348 35.50311052 6 44 C8.47459286 49.98026608 7.22005755 56.9674153 5.02734375 62.828125 C2.24396905 68.71236961 -1.15314484 71.92079433 -7.1875 74.375 C-8.78394195 74.93902711 -10.38746849 75.48376788 -12 76 C-12.99 76.33 -13.98 76.66 -15 77 C-29.04418911 77.93220406 -40.19419723 76.17324807 -52 68 C-51.14285714 59.42857143 -51.14285714 59.42857143 -49 56 C-45.23988592 56.58982182 -42.39843196 57.68710806 -39.0625 59.5 C-35.2888449 61.42851004 -32.28262712 62.7323358 -28 63 C-27.22785156 63.05027344 -26.45570313 63.10054688 -25.66015625 63.15234375 C-19.93837069 63.36744847 -16.06060353 62.69181039 -11 60 C-9.12735324 58.12735324 -9.76392622 55.50240053 -9.671875 53.0078125 C-10.10425648 50.36204966 -10.9492728 49.70396432 -13 48 C-15.36087146 46.94583938 -15.36087146 46.94583938 -18.04296875 46.1328125 C-19.53086914 45.63974609 -19.53086914 45.63974609 -21.04882812 45.13671875 C-23.12130234 44.4686779 -25.19421133 43.80198419 -27.26757812 43.13671875 C-36.53137673 40.06274039 -43.83998497 36.79770572 -49.078125 28.23828125 C-51.26996876 22.9165589 -50.78697191 16.08313677 -49.3828125 10.58203125 C-46.43437997 3.83716568 -40.80739888 0.53130848 -34.5625 -2.875 C-23.68631918 -6.4504374 -10.22751557 -4.5304106 0 0 Z " fill="#F8FCFC" transform="translate(263,287)"/>
<path d="M0 0 C0.67466309 0.16516113 1.34932617 0.33032227 2.04443359 0.50048828 C5.73189849 1.49108095 8.50694602 2.64701564 11.375 5.1875 C10.51785714 13.75892857 10.51785714 13.75892857 8.375 17.1875 C4.66472622 16.69930608 1.33244078 15.84233678 -2.1875 14.625 C-9.83716192 12.26055904 -18.26417855 11.77240539 -25.625 15.1875 C-26.56771002 18.44389659 -26.56771002 18.44389659 -26.625 22.1875 C-22.60769084 27.69942095 -17.17594044 29.08769592 -10.875 31.125 C-1.11665786 34.29183326 8.32060838 37.71051572 13.375 47.1875 C15.30657491 52.98222472 15.02163806 58.31714878 12.625 63.9375 C8.53536082 72.10257822 3.84238189 75.06129593 -4.4375 78.28125 C-16.01881734 81.57397748 -29.36639738 79.23794158 -39.8125 73.5625 C-43.35833333 71.45416667 -43.35833333 71.45416667 -44.625 70.1875 C-43.94575472 61.90070755 -43.94575472 61.90070755 -41.625 58.1875 C-37.86488592 58.77732182 -35.02343196 59.87460806 -31.6875 61.6875 C-27.9138449 63.61601004 -24.90762712 64.9198358 -20.625 65.1875 C-19.84125 65.23777344 -19.0575 65.28804688 -18.25 65.33984375 C-12.93583981 65.53754316 -9.17430648 65.25828187 -4.625 62.1875 C-2.26838002 58.65257003 -1.87653753 57.34562485 -2.625 53.1875 C-7.5153216 49.06466078 -11.8588929 47.20689222 -18 45.6875 C-26.78027576 43.30217282 -34.72313809 40.52011631 -40.625 33.1875 C-43.46660589 27.50428822 -43.65974284 20.22828407 -42.08984375 14.09765625 C-39.35792946 7.27533476 -35.1838483 3.15583253 -28.625 0.1875 C-19.21734937 -3.43782393 -9.59780678 -2.36474091 0 0 Z " fill="#F9FCFD" transform="translate(512.625,284.8125)"/>
<path d="M0 0 C-0.42188459 1.8161982 -0.86299165 3.62794073 -1.3125 5.4375 C-1.55613281 6.44683594 -1.79976562 7.45617187 -2.05078125 8.49609375 C-2.36402344 9.32238281 -2.67726563 10.14867187 -3 11 C-6.57200558 12.19066853 -8.31641888 11.65311722 -12 11 C-23.90278427 9.91709815 -23.90278427 9.91709815 -34.5234375 14.4453125 C-41.18433535 21.4586388 -42.46401369 30.07370297 -42.31640625 39.3828125 C-41.72668927 46.12451531 -39.83085882 51.68733623 -35.625 57 C-30.18756327 61.14280894 -25.72344367 62.47090205 -18.9375 62.3125 C-17.89625977 62.31733398 -17.89625977 62.31733398 -16.83398438 62.32226562 C-12.75356109 62.27964012 -9.70342377 61.65696857 -6 60 C-5.01 60 -4.02 60 -3 60 C-1.09171378 64.69120362 0.0882491 67.92199957 0 73 C-7.10919016 75.53004666 -13.47143442 76.49549315 -21 76.4375 C-21.92039062 76.45748047 -22.84078125 76.47746094 -23.7890625 76.49804688 C-30.61845168 76.49323745 -35.85469765 74.90576597 -42 72 C-42.886875 71.608125 -43.77375 71.21625 -44.6875 70.8125 C-52.57398434 64.63120146 -56.86393506 55.6195124 -59 46 C-60.15155041 33.04068989 -59.59892404 19.98160162 -51.8125 9.0625 C-39.35687755 -5.35005677 -17.00333219 -8.5016661 0 0 Z " fill="#FAFDFD" transform="translate(781,287)"/>
<path d="M0 0 C4.95 0 9.9 0 15 0 C15 35.97 15 71.94 15 109 C10.05 109 5.1 109 0 109 C-1.55174446 107.44825554 -1.12594875 105.98412024 -1.12698364 103.82434082 C-1.12980347 102.92409683 -1.13262329 102.02385284 -1.13552856 101.09632874 C-1.13350433 100.10096603 -1.1314801 99.10560333 -1.12939453 98.08007812 C-1.13114685 97.03790634 -1.13289917 95.99573456 -1.13470459 94.92198181 C-1.13912538 91.45838787 -1.13618431 87.99484451 -1.1328125 84.53125 C-1.13348547 82.1361083 -1.13445544 79.74096666 -1.13571167 77.3458252 C-1.13718895 72.31859692 -1.13503311 67.29138638 -1.13037109 62.26416016 C-1.1246738 55.80393309 -1.12795264 49.34374757 -1.13394356 42.88352203 C-1.13754835 37.93548263 -1.13641096 32.98745315 -1.13381577 28.03941345 C-1.13314627 25.65665177 -1.1339757 23.27388919 -1.13629532 20.89112854 C-1.13882051 17.56736851 -1.13498313 14.24367679 -1.12939453 10.91992188 C-1.13141876 9.92455917 -1.13344299 8.92919647 -1.13552856 7.90367126 C-1.13270874 7.00342728 -1.12988892 6.10318329 -1.12698364 5.17565918 C-1.12660662 4.388825 -1.12622959 3.60199081 -1.12584114 2.79131317 C-1 1 -1 1 0 0 Z " fill="#FCFEFD" transform="translate(360,253)"/>
<path d="M0 0 C5.24735622 3.83952895 8.68958541 8.6582379 10.5625 14.875 C11.05009267 18.27927046 11.13427734 21.6264811 11.125 25.0625 C11.12258301 25.98925537 11.12016602 26.91601074 11.11767578 27.87084961 C10.91255424 35.54011628 9.61363938 41.8157114 4.5625 47.875 C0.03679436 51.63888928 -3.15697866 52.42216869 -9 52.375 C-10.92005859 52.39046875 -10.92005859 52.39046875 -12.87890625 52.40625 C-17.00179808 51.79075792 -18.55823924 50.84089339 -21.4375 47.875 C-22.984375 45.5078125 -22.984375 45.5078125 -24.1875 43 C-24.59484375 42.17757812 -25.0021875 41.35515625 -25.421875 40.5078125 C-28.57942282 32.32247701 -29.17115349 19.52853809 -26.125 11.1875 C-25.568125 10.094375 -25.01125 9.00125 -24.4375 7.875 C-24.004375 6.9675 -23.57125 6.06 -23.125 5.125 C-17.34413726 -2.58281699 -8.66467515 -2.83571187 0 0 Z " fill="#4AA1DB" transform="translate(632.4375,298.125)"/>
<path d="M0 0 C-0.66498383 4.38889325 -2.18757677 7.9811485 -4 12 C-4.79664063 12.03738281 -5.59328125 12.07476562 -6.4140625 12.11328125 C-13.59759518 12.55897488 -18.89454925 12.98081177 -24.25 18.1875 C-28.38578162 24.8342919 -28.31246016 32.21357881 -28.37890625 39.80859375 C-28.39590073 40.81592056 -28.4128952 41.82324738 -28.43040466 42.86109924 C-28.48320444 46.05317053 -28.52371969 49.24523007 -28.5625 52.4375 C-28.60641348 55.65470263 -28.6530066 58.87180493 -28.70530701 62.08888245 C-28.73730548 64.08533631 -28.76418259 66.08187988 -28.78553772 68.07847595 C-28.79902756 68.97353348 -28.8125174 69.868591 -28.82641602 70.79077148 C-28.83592789 71.58160629 -28.84543976 72.3724411 -28.85523987 73.1872406 C-29 75 -29 75 -30 76 C-34.95 76 -39.9 76 -45 76 C-45 50.59 -45 25.18 -45 -1 C-40.05 -1 -35.1 -1 -30 -1 C-29.67 0.98 -29.34 2.96 -29 5 C-27.9790625 4.1028125 -27.9790625 4.1028125 -26.9375 3.1875 C-18.79938004 -2.8728021 -9.4790868 -4.09906456 0 0 Z " fill="#FAFCFD" transform="translate(718,286)"/>
<path d="M0 0 C0 7.59 0 15.18 0 23 C-4.54581062 24.51527021 -9.04968134 24.30726761 -13.8125 24.375 C-14.79798828 24.41238281 -15.78347656 24.44976562 -16.79882812 24.48828125 C-24.96362109 24.58698258 -24.96362109 24.58698258 -28.63671875 21.6015625 C-32.33002355 17.5358749 -32.35428649 14.82384761 -32.26953125 9.4765625 C-31.87146658 5.81898277 -30.82670526 4.33203184 -28 2 C-19.30047583 -2.67196668 -9.46830828 -1.57805138 0 0 Z " fill="#4AA1DB" transform="translate(327,326)"/>
<path d="M0 0 C3.06953015 2.55472425 5.44768203 4.99397579 6.80078125 8.80078125 C6.80078125 11.44078125 6.80078125 14.08078125 6.80078125 16.80078125 C-4.41921875 16.80078125 -15.63921875 16.80078125 -27.19921875 16.80078125 C-26.2533923 9.23416968 -25.64343329 6.0227884 -20.26171875 0.98828125 C-14.83613135 -2.1355418 -5.55240554 -3.02768828 0 0 Z " fill="#49A1DB" transform="translate(434.19921875,298.19921875)"/>
<path d="M0 0 C3.06953015 2.55472425 5.44768203 4.99397579 6.80078125 8.80078125 C6.80078125 11.44078125 6.80078125 14.08078125 6.80078125 16.80078125 C-4.41921875 16.80078125 -15.63921875 16.80078125 -27.19921875 16.80078125 C-26.06779964 8.88084751 -26.06779964 8.88084751 -23.82421875 5.48828125 C-23.40398438 4.83214844 -22.98375 4.17601562 -22.55078125 3.5 C-17.94975605 -2.2845259 -6.32601213 -3.44953059 0 0 Z " fill="#49A0DB" transform="translate(831.19921875,298.19921875)"/>
<path d="M0 0 C0.66 0.33 1.32 0.66 2 1 C-0.97 3.97 -3.94 6.94 -7 10 C-7.33 9.34 -7.66 8.68 -8 8 C-5.58443874 4.80800833 -3.31996462 2.25283313 0 0 Z " fill="#E0F1F8" transform="translate(603,289)"/>
<path d="M0 0 C0.66 0.33 1.32 0.66 2 1 C-0.31 3.31 -2.62 5.62 -5 8 C-5.33 7.34 -5.66 6.68 -6 6 C-4 4 -2 2 0 0 Z " fill="#5CADE0" transform="translate(615,298)"/>
</svg>
