<?xml version="1.0" encoding="UTF-8"?>
<svg version="1.1" xmlns="http://www.w3.org/2000/svg" width="794" height="178">
<path d="M0 0 C262.02 0 524.04 0 794 0 C794 58.74 794 117.48 794 178 C531.98 178 269.96 178 0 178 C0 119.26 0 60.52 0 0 Z " fill="#FEFEFE" transform="translate(0,0)"/>
<path d="M0 0 C1.26086426 -0.00570007 2.52172852 -0.01140015 3.82080078 -0.01727295 C6.48017987 -0.02669549 9.13944686 -0.03360724 11.79882812 -0.03710938 C15.19138794 -0.0426029 18.58354826 -0.06667214 21.97598267 -0.09508133 C25.23395769 -0.11826824 28.49195404 -0.12015977 31.75 -0.125 C32.96059082 -0.1373468 34.17118164 -0.1496936 35.41845703 -0.16241455 C43.38644758 -0.14140311 48.19752452 0.75147468 54.875 5.203125 C54.28361433 9.07247694 53.13269222 11.91868164 51.20703125 15.31640625 C50.65031738 16.30560059 50.09360352 17.29479492 49.52001953 18.31396484 C48.91528809 19.3705127 48.31055664 20.42706055 47.6875 21.515625 C47.06472168 22.61342285 46.44194336 23.7112207 45.80029297 24.84228516 C44.49095354 27.14439512 43.17887474 29.44459177 41.86083984 31.74169922 C40.56113943 34.00714702 39.26446778 36.2743358 37.97119141 38.54345703 C36.15566564 41.72647212 34.32997616 44.90339935 32.5 48.078125 C31.95448486 49.03243408 31.40896973 49.98674316 30.84692383 50.9699707 C19.34113991 70.76574388 6.11556266 83.58892923 -16.125 90.203125 C-19.80336182 90.94986011 -23.25060805 91.32243397 -27 91.265625 C-28.17175781 91.25208984 -28.17175781 91.25208984 -29.3671875 91.23828125 C-29.94726562 91.22667969 -30.52734375 91.21507813 -31.125 91.203125 C-29.94659681 106.6645876 -25.7747966 119.16708402 -17.125 132.203125 C-32.27264804 131.93263128 -44.87170081 123.26618857 -55.328125 113.05078125 C-68.67098517 98.96948034 -73.90539653 82.50897066 -73.64648438 63.50512695 C-73.03613431 46.85228043 -65.78769086 31.16485922 -54.125 19.203125 C-37.89274354 5.02004702 -21.05154685 0.07390317 0 0 Z " fill="#5AC4F4" transform="translate(82.125,34.796875)"/>
<path d="M0 0 C2.61771101 2.50389749 3.93634037 3.87223124 4.14717102 7.60722351 C4.15701523 8.71225723 4.16685944 9.81729095 4.17700195 10.95581055 C4.19625481 12.83498421 4.19625481 12.83498421 4.21589661 14.75212097 C4.22407311 16.13031617 4.23151508 17.5085159 4.23828125 18.88671875 C4.24235678 19.5832789 4.2464323 20.27983906 4.25063133 20.9975071 C4.27152281 24.69763518 4.28580066 28.39772604 4.29516602 32.09790039 C4.30612523 35.88114276 4.34039099 39.66377964 4.38033772 43.44681072 C4.4067989 46.38551239 4.41488445 49.32407771 4.41844749 52.26288795 C4.42325266 53.65444758 4.43468785 55.04600373 4.45348549 56.43744469 C4.69348013 75.41060039 -0.6536648 92.02686506 -13.88330078 105.96020508 C-27.7450208 120.02319708 -45.48913417 126.4918705 -65.01831055 126.78930664 C-69.03107997 126.65833296 -71.31045708 126.51351157 -74.5859375 124.07421875 C-76.51755734 121.12434682 -77.76232261 118.30298101 -79 115 C-79.55843029 113.68780509 -80.12245316 112.37797922 -80.69140625 111.0703125 C-83.74311543 103.89396644 -86.1482268 97.63686559 -86.0625 89.75 C-86.05347656 88.67234375 -86.04445312 87.5946875 -86.03515625 86.484375 C-86.02355469 85.66453125 -86.01195312 84.8446875 -86 84 C-84.65421875 83.88785156 -84.65421875 83.88785156 -83.28125 83.7734375 C-63.97108669 81.73868889 -48.17564531 74.50882619 -35.2331543 59.80175781 C-31.54815358 55.1784859 -28.7232872 50.16696359 -25.875 45 C-24.91570209 43.29881056 -23.95638185 41.59763332 -22.99584961 39.8971405 C-22.00161629 38.13354024 -21.01273952 36.36701424 -20.02441406 34.60009766 C-16.65794932 28.59585346 -13.19697435 22.64573299 -9.75 16.6875 C-9.11819824 15.59115234 -8.48639648 14.49480469 -7.83544922 13.36523438 C-7.24521973 12.34107422 -6.65499023 11.31691406 -6.046875 10.26171875 C-5.52963867 9.36412842 -5.01240234 8.46653809 -4.47949219 7.54174805 C-3.0082728 5.01421255 -1.51048171 2.5042345 0 0 Z " fill="#F4BD41" transform="translate(137,42)"/>
<path d="M0 0 C8.63193461 5.69304637 12.65087362 13.44320576 15.0078125 23.32421875 C15.30246964 26.43359953 15.34210029 29.51483986 15.3203125 32.63671875 C15.31185303 33.89911377 15.31185303 33.89911377 15.30322266 35.18701172 C15.08003717 46.60924697 11.82373425 55.34674362 3.7578125 63.63671875 C-5.64949908 69.40938722 -15.09238892 70.99152175 -25.9921875 69.32421875 C-34.22454574 66.84273783 -39.79925579 62.78398701 -43.9921875 55.32421875 C-47.81863924 47.81039729 -48.61381824 41.18633241 -48.4921875 32.82421875 C-48.50765625 31.76074219 -48.523125 30.69726562 -48.5390625 29.6015625 C-48.49032765 19.6718369 -46.02366963 11.33001518 -39 4.0859375 C-28.92997827 -4.74982087 -12.05046027 -5.98324247 0 0 Z " fill="#505050" transform="translate(595.9921875,51.67578125)"/>
<path d="M0 0 C3.21814394 1.0203871 6.28712434 2.12761082 9.375 3.5 C17.6563839 6.92677954 25.05414453 7.3377799 33.9375 7.3125 C35.06607422 7.32861328 36.19464844 7.34472656 37.35742188 7.36132812 C43.47841555 7.36488891 48.5260372 6.93386963 54.19750977 4.54760742 C56 4 56 4 59 5 C58.35933594 5.59425781 57.71867187 6.18851562 57.05859375 6.80078125 C50.9089998 12.69376025 46.19488225 18.59726662 42 26 C41.60039063 26.66515625 41.20078125 27.3303125 40.7890625 28.015625 C33.55162165 40.96683494 32.32535213 59.6476621 36.13671875 73.84375 C38.66391197 81.82805237 42.33041914 89.04886497 47 96 C47.33 96.66 47.66 97.32 48 98 C32.85235196 97.72950628 20.25329919 89.06306357 9.796875 78.84765625 C-3.55868138 64.75295648 -8.74624458 48.32303809 -8.52807617 29.31298828 C-8.14823262 18.46161037 -5.22429484 9.51567989 0 0 Z " fill="#5FA2E5" transform="translate(17,69)"/>
<path d="M0 0 C0.99 0.33 1.98 0.66 3 1 C2.40861433 4.86935194 1.25769222 7.71555664 -0.66796875 11.11328125 C-1.22468262 12.10247559 -1.78139648 13.09166992 -2.35498047 14.11083984 C-2.95971191 15.1673877 -3.56444336 16.22393555 -4.1875 17.3125 C-4.81027832 18.41029785 -5.43305664 19.5080957 -6.07470703 20.63916016 C-7.38404646 22.94127012 -8.69612526 25.24146677 -10.01416016 27.53857422 C-11.31386057 29.80402202 -12.61053222 32.0712108 -13.90380859 34.34033203 C-15.71933436 37.52334712 -17.54502384 40.70027435 -19.375 43.875 C-19.92051514 44.82930908 -20.46603027 45.78361816 -21.02807617 46.7668457 C-32.53386009 66.56261888 -45.75943734 79.38580423 -68 86 C-71.67836182 86.74673511 -75.12560805 87.11930897 -78.875 87.0625 C-80.04675781 87.04896484 -80.04675781 87.04896484 -81.2421875 87.03515625 C-81.82226562 87.02355469 -82.40234375 87.01195313 -83 87 C-83.98459885 70.84528549 -78.44547218 55.99657962 -67.80273438 43.92602539 C-60.31540227 35.79212989 -52.69438335 30.46555896 -43.125 25.0625 C-41.39192885 24.07371893 -39.65886556 23.08492363 -37.92637634 22.09512329 C-36.73916899 21.41714797 -35.5515536 20.73988666 -34.36354065 20.06332397 C-28.11270907 16.50243495 -21.89851388 12.87989438 -15.6875 9.25 C-14.18630615 8.37420288 -14.18630615 8.37420288 -12.65478516 7.48071289 C-7.45847085 4.47066899 -7.45847085 4.47066899 -2.38598633 1.26074219 C-1.59861084 0.84469727 -0.81123535 0.42865234 0 0 Z " fill="#9DDB68" transform="translate(134,39)"/>
<path d="M0 0 C6.74650493 5.14830377 10.07412617 11.27603255 12.01171875 19.53515625 C13.33939351 29.6974518 13.33939351 29.6974518 10.10449219 34.17504883 C5.71689727 37.52323955 2.2699829 37.17143504 -3.1015625 37.0234375 C-4.07111374 37.01636276 -5.04066498 37.00928802 -6.03959656 37.0019989 C-9.12745262 36.97407499 -12.213476 36.91133928 -15.30078125 36.84765625 C-17.39776022 36.82257083 -19.49476769 36.79975809 -21.59179688 36.77929688 C-26.72466134 36.72425463 -31.85616089 36.63799484 -36.98828125 36.53515625 C-36.40655035 38.62874719 -35.80829762 40.71775195 -35.203125 42.8046875 C-34.70607056 44.55036011 -34.70607056 44.55036011 -34.19897461 46.33129883 C-32.10890664 51.86224497 -28.53301847 54.06188733 -23.61328125 56.91015625 C-16.36192218 58.63667031 -9.74258019 57.57664583 -2.98828125 54.53515625 C-2.28703125 53.97828125 -1.58578125 53.42140625 -0.86328125 52.84765625 C2.07514158 50.79076027 4.54518556 51.1499859 8.01171875 51.53515625 C10.01171875 54.53515625 10.01171875 54.53515625 9.94921875 56.97265625 C8.42813808 61.13027675 5.64566199 62.7393497 1.75 64.63671875 C-0.48338737 65.63652823 -2.73113208 66.59061249 -4.98828125 67.53515625 C-5.97828125 68.03015625 -5.97828125 68.03015625 -6.98828125 68.53515625 C-17.95012243 69.22593343 -28.00291386 69.69663553 -37.1875 62.91015625 C-43.63231769 57.19201856 -47.41824692 50.3777466 -48.25439453 41.80761719 C-48.43580719 38.67155315 -48.51822131 35.55123297 -48.55078125 32.41015625 C-48.57301758 30.89035156 -48.57301758 30.89035156 -48.59570312 29.33984375 C-48.46950355 20.10924625 -45.90180483 11.76279618 -39.98828125 4.53515625 C-29.69601314 -4.83373551 -12.24817043 -7.46535345 0 0 Z " fill="#525252" transform="translate(298.98828125,52.46484375)"/>
<path d="M0 0 C3.0625 0.3125 3.0625 0.3125 4.64755249 1.57077026 C6.22057666 3.50708448 6.94397658 5.14052218 7.76416016 7.49267578 C8.06101715 8.33009308 8.35787415 9.16751038 8.66372681 10.03030396 C8.97321259 10.93038177 9.28269836 11.83045959 9.6015625 12.7578125 C10.09104874 14.14623856 10.09104874 14.14623856 10.59042358 15.56271362 C11.63090878 18.51819765 12.65971586 21.47757773 13.6875 24.4375 C14.72439537 27.40382648 15.76370187 30.36927727 16.80599976 33.33370972 C17.45398719 35.17874294 18.09846154 37.02501428 18.73916626 38.87258911 C19.02971893 39.70370209 19.32027161 40.53481506 19.61962891 41.39111328 C19.87483307 42.12596954 20.13003723 42.86082581 20.39297485 43.61795044 C20.93438453 45.31698482 20.93438453 45.31698482 22.0625 46.3125 C22.41030518 45.06114258 22.75811035 43.80978516 23.11645508 42.52050781 C24.41043765 37.87382486 25.71582261 33.23040969 27.0246582 28.58789062 C27.58929468 26.57899737 28.15084447 24.56923387 28.70922852 22.55859375 C29.51286827 19.66691931 30.32759511 16.77856715 31.14453125 13.890625 C31.39153275 12.99257141 31.63853424 12.09451782 31.89302063 11.16925049 C32.13304306 10.32868103 32.37306549 9.48811157 32.62036133 8.62207031 C32.93013664 7.51620575 32.93013664 7.51620575 33.24617004 6.38800049 C34.20082812 3.96080388 35.30869899 2.24266117 37.0625 0.3125 C40.0625 -0.125 40.0625 -0.125 43.0625 0.3125 C45.69209686 2.39707369 46.60239514 4.28224878 47.48876953 7.47680664 C47.72556427 8.31099625 47.96235901 9.14518585 48.20632935 10.00465393 C48.57212601 11.35006508 48.57212601 11.35006508 48.9453125 12.72265625 C49.20504852 13.64590195 49.46478455 14.56914764 49.73239136 15.52037048 C50.56014187 18.46938555 51.37424274 21.42195864 52.1875 24.375 C53.01061884 27.33078856 53.83649847 30.28578575 54.66403198 33.24034119 C55.17805227 35.07910667 55.68898335 36.91873901 56.19656372 38.7592926 C56.54229935 40.00584877 56.54229935 40.00584877 56.89501953 41.27758789 C57.09692902 42.01022354 57.2988385 42.74285919 57.50686646 43.49769592 C58.03013736 45.38591942 58.03013736 45.38591942 59.0625 47.3125 C60.55658083 42.97519414 62.04986932 38.63761653 63.54248047 34.29980469 C64.04845715 32.82968093 64.55463591 31.35962669 65.06103516 29.88964844 C65.5529408 28.46166097 66.04451966 27.03356089 66.5357666 25.60534668 C67.02167236 24.19330244 67.50856766 22.78159833 67.99645996 21.37023926 C69.79281518 16.15686075 71.47970578 10.91370563 73.09667969 5.64160156 C74.11247779 3.19197723 74.958574 1.91096266 77.0625 0.3125 C80.125 0 80.125 0 83.0625 0.3125 C85.0625 2.3125 85.0625 2.3125 85.46801758 5.12426758 C85.27793251 11.14395096 82.66453537 16.75797146 80.57421875 22.32421875 C80.1097812 23.58229089 79.6461562 24.84066326 79.18330383 26.09931946 C78.21431807 28.72686019 77.23770824 31.35139085 76.25512695 33.97387695 C74.99863236 37.32840161 73.75823366 40.6885977 72.52307415 44.05102825 C71.56831785 46.64638493 70.60674996 49.23917451 69.64295387 51.83118629 C68.96039313 53.6691293 68.28224503 55.50870909 67.60417175 57.34831238 C67.18396255 58.46659927 66.76375336 59.58488617 66.33081055 60.73706055 C65.78120918 62.21096504 65.78120918 62.21096504 65.22050476 63.71464539 C64.0756459 66.28300864 62.96140437 68.24042776 61.0625 70.3125 C58.0625 70.875 58.0625 70.875 55.0625 70.3125 C49.4699056 62.41625629 47.55388617 51.74816894 44.875 42.5625 C44.61291748 41.675625 44.35083496 40.78875 44.08081055 39.875 C42.58863338 34.67500341 41.58236318 29.69903411 41.0625 24.3125 C40.4025 24.3125 39.7425 24.3125 39.0625 24.3125 C38.94769287 25.28791748 38.83288574 26.26333496 38.71459961 27.26831055 C38.08617615 31.64450031 36.89277903 35.79004359 35.62890625 40.01953125 C35.39090805 40.82613693 35.15290985 41.63274261 34.90769958 42.46379089 C34.40669417 44.15620548 33.90315995 45.84787333 33.3972168 47.53881836 C32.62285901 50.13217024 31.86082193 52.72893523 31.09960938 55.32617188 C30.61011272 56.97417763 30.11990349 58.62197194 29.62890625 60.26953125 C29.28817833 61.43510307 29.28817833 61.43510307 28.94056702 62.6242218 C27.29195108 68.08304892 27.29195108 68.08304892 25.0625 70.3125 C22.125 70.6875 22.125 70.6875 19.0625 70.3125 C16.37864248 67.42322459 15.13507329 64.30138737 13.79418945 60.62939453 C13.37398026 59.48785919 12.95377106 58.34632385 12.52082825 57.17019653 C12.07696274 55.9409848 11.63309723 54.71177307 11.17578125 53.4453125 C10.70956412 52.1649122 10.24302154 50.88463036 9.77616882 49.60446167 C8.80081221 46.92464988 7.83070119 44.24300916 6.86401367 41.56005859 C5.62774204 38.13078219 4.3766207 34.70714331 3.12124348 31.28482246 C2.15450117 28.6431937 1.19673662 25.99837665 0.24150658 23.35256577 C-0.43765205 21.47725084 -1.12509059 19.60494119 -1.81266785 17.73269653 C-2.42879692 16.01093704 -2.42879692 16.01093704 -3.05737305 14.25439453 C-3.42138718 13.24941925 -3.78540131 12.24444397 -4.16044617 11.20901489 C-5.00010836 8.07912358 -5.22156581 5.53801343 -4.9375 2.3125 C-2.9375 0.3125 -2.9375 0.3125 0 0 Z " fill="#505050" transform="translate(457.9375,49.6875)"/>
<path d="M0 0 C2.70163572 2.70163572 2.27292903 4.13782364 2.31884766 7.91845703 C2.33871735 9.15959259 2.35858704 10.40072815 2.37905884 11.67947388 C2.39093611 13.03891827 2.40259892 14.39836455 2.4140625 15.7578125 C2.43276729 17.14502118 2.45234019 18.5322184 2.4727478 19.91940308 C2.52414812 23.57225804 2.56373125 27.22514994 2.60089111 30.87817383 C2.64088148 34.60507397 2.69199639 38.33181949 2.7421875 42.05859375 C2.83904019 49.37228988 2.92341475 56.6860606 3 64 C3.85287598 63.27337158 4.70575195 62.54674316 5.58447266 61.7980957 C11.43576517 56.82312856 17.28552479 51.87078779 23.375 47.1875 C27.05441829 44.34488945 30.64553178 41.47004547 34.0625 38.3125 C37 36 37 36 39.75 35.4375 C42.49966005 36.12491501 43.47615218 36.59392449 45 39 C45.44140625 41.78125 45.44140625 41.78125 45 45 C43.06347978 47.10649691 41.36646393 48.66527703 39.125 50.375 C38.24666504 51.08064087 38.24666504 51.08064087 37.35058594 51.80053711 C35.58013623 53.21790774 33.79228783 54.61040023 32 56 C30.08154287 57.51857412 28.1646383 59.03911387 26.25 60.5625 C25.05117188 61.49255859 25.05117188 61.49255859 23.828125 62.44140625 C21.89546127 63.88366595 21.89546127 63.88366595 21 66 C25.26865068 71.72246649 29.54877957 77.43439897 33.90722656 83.08886719 C34.7586581 84.19358499 35.60827873 85.29970093 36.45605469 86.40722656 C38.2604144 88.7621656 40.07915577 91.09615145 41.96484375 93.38671875 C44.52132399 96.54472375 45.89413985 98.28544399 46.5 102.375 C46 105 46 105 44 107 C41.1875 107.4375 41.1875 107.4375 38 107 C34.1569212 103.56710203 31.00920181 99.63299647 27.875 95.5625 C26.91807189 94.33195104 25.96103724 93.10148492 25.00390625 91.87109375 C24.26938232 90.92339111 24.26938232 90.92339111 23.52001953 89.95654297 C20.96523206 86.66806452 18.38777206 83.39744283 15.8125 80.125 C14.88140724 78.94018524 13.95040793 77.75529704 13.01953125 76.5703125 C12.01986328 75.29800781 12.01986328 75.29800781 11 74 C7.91489173 75.19976433 4.94952958 76.50002556 2 78 C2.01047363 78.80743652 2.02094727 79.61487305 2.03173828 80.44677734 C2.07319831 84.08948682 2.09929438 87.73214675 2.125 91.375 C2.14175781 92.64601563 2.15851562 93.91703125 2.17578125 95.2265625 C2.18222656 96.43828125 2.18867187 97.65 2.1953125 98.8984375 C2.20578613 100.01911621 2.21625977 101.13979492 2.22705078 102.29443359 C2 105 2 105 0 107 C-5.25875917 107.55944246 -5.25875917 107.55944246 -7.66759682 105.74140167 C-9.30969833 103.59523574 -9.37684267 102.50614627 -9.38095093 99.82507324 C-9.3894104 98.97545517 -9.39786987 98.1258371 -9.40658569 97.25047302 C-9.400513 96.32154739 -9.39444031 95.39262177 -9.38818359 94.43554688 C-9.39344055 93.45481705 -9.39869751 92.47408722 -9.40411377 91.46363831 C-9.4173397 88.21518117 -9.40856634 84.9672123 -9.3984375 81.71875 C-9.40045748 79.46577866 -9.40336829 77.21280796 -9.40713501 74.95983887 C-9.41156189 70.23536969 -9.40511549 65.51107053 -9.39111328 60.78662109 C-9.37402135 54.72336037 -9.38386057 48.660498 -9.40183067 42.59725189 C-9.4126586 37.94420354 -9.4092267 33.29125002 -9.4014473 28.63819885 C-9.39944255 26.40222629 -9.40191413 24.16624519 -9.40888596 21.93028259 C-9.41648401 18.80810664 -9.40491898 15.68658054 -9.38818359 12.56445312 C-9.39425629 11.6355275 -9.40032898 10.70660187 -9.40658569 9.74952698 C-9.39812622 8.89990891 -9.38966675 8.05029083 -9.38095093 7.17492676 C-9.37981985 6.43677986 -9.37868877 5.69863297 -9.37752342 4.93811798 C-8.36506754 -0.25959646 -4.64064543 -0.49368568 0 0 Z " fill="#4F4F4F" transform="translate(678,13)"/>
<path d="M0 0 C0 3.08284373 -0.56962189 5.24335848 -1.4375 8.1875 C-2.71099549 12.78289645 -3.71206232 17.23209084 -4 22 C-4.06445312 22.94230469 -4.12890625 23.88460937 -4.1953125 24.85546875 C-4.64910751 37.27432544 -0.9839488 48.73309448 4 60 C-7.03899623 68.58588595 -23.2633518 70.82076709 -36.92675781 69.47119141 C-40.23329771 68.71970507 -41.48730511 67.22484514 -43.3125 64.4375 C-44.71484375 61.4296875 -44.71484375 61.4296875 -46 58 C-46.55843029 56.68780509 -47.12245316 55.37797922 -47.69140625 54.0703125 C-50.74311543 46.89396644 -53.1482268 40.63686559 -53.0625 32.75 C-53.04896484 31.13351563 -53.04896484 31.13351563 -53.03515625 29.484375 C-53.02355469 28.66453125 -53.01195312 27.8446875 -53 27 C-52.1028125 26.92523438 -51.205625 26.85046875 -50.28125 26.7734375 C-30.53232798 24.69245605 -14.53061654 17.2273161 -1.51171875 1.87109375 C-1.01285156 1.25363281 -0.51398438 0.63617188 0 0 Z " fill="#DC6438" transform="translate(104,99)"/>
<path d="M0 0 C3.08643773 3.08643773 2.35865008 6.79759417 2.4140625 10.9453125 C2.43342865 11.8303244 2.4527948 12.7153363 2.4727478 13.62716675 C2.53262723 16.45967916 2.57896213 19.29223203 2.625 22.125 C2.66317211 24.04298668 2.70222338 25.96095607 2.7421875 27.87890625 C2.83833555 32.58579748 2.92233542 37.29276896 3 42 C3.47050781 41.65066406 3.94101562 41.30132812 4.42578125 40.94140625 C5.04839844 40.48636719 5.67101562 40.03132813 6.3125 39.5625 C6.92738281 39.11003906 7.54226563 38.65757813 8.17578125 38.19140625 C14.25248029 34.22268418 23.98044969 35.26708566 31 36 C37.62351735 37.85586476 42.33392538 41.22315514 46 47 C49.00296017 53.71681235 49.43069338 59.99712948 49.36328125 67.2734375 C49.36402901 68.84177841 49.36402901 68.84177841 49.36479187 70.44180298 C49.36246511 72.63521237 49.35281994 74.82862514 49.33618164 77.02197266 C49.31242243 80.38598274 49.31565211 83.74920761 49.32226562 87.11328125 C49.31669358 89.25000474 49.3095867 91.38672489 49.30078125 93.5234375 C49.30169266 94.52966156 49.30260406 95.53588562 49.30354309 96.57260132 C49.29401108 97.50432159 49.28447906 98.43604187 49.2746582 99.39599609 C49.27005081 100.21490326 49.26544342 101.03381042 49.26069641 101.87753296 C49 104 49 104 47 107 C43.5 107.3125 43.5 107.3125 40 107 C37.55844139 104.55844139 37.74985406 103.93251557 37.74462891 100.58544922 C37.73766998 99.67044647 37.73071106 98.75544373 37.72354126 97.81271362 C37.72453827 96.820065 37.72553528 95.82741638 37.7265625 94.8046875 C37.70626056 92.70572396 37.68540955 90.60676567 37.6640625 88.5078125 C37.64152371 85.19656969 37.6250187 81.88553456 37.61914062 78.57421875 C37.60957657 75.37982488 37.57573548 72.18636957 37.5390625 68.9921875 C37.54410797 68.01168427 37.54915344 67.03118103 37.55435181 66.02096558 C37.46705338 59.87395002 36.55906308 55.11582712 33 50 C28.28558537 45.99195389 23.31897171 46.51195824 17.39453125 46.6484375 C12.75510525 47.12893041 10.59296043 48.04578809 7 51 C2.37686781 57.01007184 2.83523329 63.79434801 2.75390625 71.04296875 C2.72099617 73.02279135 2.68778409 75.00260895 2.65429688 76.98242188 C2.60671316 80.09656651 2.56220951 83.21068688 2.52319336 86.32495117 C2.48363615 89.33532609 2.43208652 92.34530809 2.37890625 95.35546875 C2.3704921 96.2919072 2.36207794 97.22834564 2.35340881 98.19316101 C2.32844582 99.49009636 2.32844582 99.49009636 2.30297852 100.81323242 C2.29267105 101.57536545 2.28236359 102.33749847 2.27174377 103.12272644 C2 105 2 105 0 107 C-3.5 107.3125 -3.5 107.3125 -7 107 C-9.05108578 103.92337133 -9.25104483 103.29547753 -9.26069641 99.82507324 C-9.26778122 98.97545517 -9.27486603 98.1258371 -9.28216553 97.25047302 C-9.27968811 96.32154739 -9.27721069 95.39262177 -9.2746582 94.43554688 C-9.27976913 93.45481705 -9.28488007 92.47408722 -9.29014587 91.46363831 C-9.30406915 88.21528049 -9.3030832 84.96713415 -9.30078125 81.71875 C-9.30466633 79.46577881 -9.3090006 77.21280836 -9.31376648 74.95983887 C-9.32123433 70.2354088 -9.32093305 65.51105345 -9.31567383 60.78662109 C-9.3098748 54.72337953 -9.32681812 48.660443 -9.3500185 42.59725189 C-9.36472733 37.94421593 -9.36563149 33.29125394 -9.36250877 28.63819885 C-9.3630233 26.40222061 -9.36828552 24.16623837 -9.37832069 21.93028259 C-9.39061412 18.80813577 -9.38393628 15.68658984 -9.37231445 12.56445312 C-9.37995819 11.6355275 -9.38760193 10.70660187 -9.39547729 9.74952698 C-9.38846298 8.89990891 -9.38144867 8.05029083 -9.3742218 7.17492676 C-9.37438954 6.43677986 -9.37455729 5.69863297 -9.37473011 4.93811798 C-8.3694612 -0.26116998 -4.63761519 -0.49336332 0 0 Z " fill="#4E4E4E" transform="translate(395,13)"/>
<path d="M0 0 C3.34728396 2.24362417 5.7468133 4.62021994 8 8 C7.6758631 11.32240324 7.39223697 12.60776303 5 15 C2.6875 15.375 2.6875 15.375 0 15 C-1.7074998 13.71937515 -3.37373596 12.38232443 -5 11 C-9.05292391 8.96996404 -12.55560405 8.6732021 -17.0625 8.625 C-18.27035156 8.59664062 -19.47820312 8.56828125 -20.72265625 8.5390625 C-24.06664314 8.73212373 -24.06664314 8.73212373 -26.40234375 10.8671875 C-28.16764846 12.90456827 -28.16764846 12.90456827 -28.5 15.5 C-27.8307447 18.8462765 -26.58903938 19.79295004 -24 22 C-20.86795294 23.62919758 -20.86795294 23.62919758 -17.375 25 C-16.75616943 25.2578125 -16.13733887 25.515625 -15.49975586 25.78125 C-12.72129188 26.93190158 -9.92853407 28.02623311 -7.10546875 29.0625 C-0.19092952 31.61163889 4.711305 34.6777008 8.9375 40.8125 C10.85506367 46.56519101 10.88970234 51.67346342 8.375 57.25 C5.2452963 62.75433902 0.63425882 66.48376096 -5.4140625 68.48828125 C-17.40300601 70.86071569 -27.52201518 68.99566476 -38.03515625 62.80078125 C-41.14348692 60.58894312 -41.99814038 59.00685735 -43 55.3125 C-43 52 -43 52 -41 50 C-37.26579107 49.50210548 -35.58690097 49.5744968 -32.5 51.8125 C-31.675 52.534375 -30.85 53.25625 -30 54 C-25.37636892 56.76880233 -21.86867928 57.43204403 -16.5 57.4375 C-15.2315625 57.45683594 -13.963125 57.47617188 -12.65625 57.49609375 C-8.42082746 56.92141569 -6.269922 55.71020562 -3 53 C-1.67091833 50.10927047 -1.67091833 50.10927047 -2 47 C-5.22333663 41.25125717 -10.28555327 40.05168983 -16.1875 38.0625 C-24.41900932 35.26413736 -33.30587989 32.17697273 -38.5625 24.8125 C-41.1313372 19.43697031 -41.10417797 13.27924211 -39.22265625 7.69140625 C-36.6479849 2.84442709 -33.05438779 0.04880058 -28.078125 -2.15625 C-19.29949951 -4.56257374 -8.12437129 -4.38265658 0 0 Z " fill="#515151" transform="translate(362,52)"/>
<path d="M0 0 C3.36809124 2.10911301 5.57328451 4.10508644 8.02734375 7.26953125 C8.66721409 10.32668952 8.49396391 11.49183098 6.90234375 14.14453125 C5.02734375 15.26953125 5.02734375 15.26953125 2.15234375 15.20703125 C-1.34714155 14.15718566 -3.23245126 12.63943827 -5.97265625 10.26953125 C-9.43610152 9.11504949 -12.26103351 9.06548033 -15.91015625 9.01953125 C-17.13605469 8.99375 -18.36195313 8.96796875 -19.625 8.94140625 C-23.16499746 9.28838383 -24.56058643 9.69783916 -26.97265625 12.26953125 C-27.72276992 15.72681483 -27.72276992 15.72681483 -26.97265625 19.26953125 C-22.81078752 23.55880412 -17.5133239 25.22668942 -12.03515625 27.26953125 C-3.63734991 30.4148691 2.91035321 33.45345607 9.02734375 40.26953125 C10.86971549 45.79664648 11.0481661 52.08206554 9.26171875 57.66015625 C6.10743447 63.48003289 1.10316864 66.05755125 -4.97265625 68.26953125 C-13.64839886 70.47738745 -23.46259901 70.49704145 -31.63671875 66.66796875 C-35.9504358 64.08550938 -39.86013955 61.25385853 -42.97265625 57.26953125 C-43.09765625 53.83203125 -43.09765625 53.83203125 -41.97265625 51.26953125 C-40.97265625 50.26953125 -40.97265625 50.26953125 -38.47265625 49.83203125 C-34.02278725 50.38826487 -31.59195523 52.25232318 -28.0234375 54.859375 C-22.73360577 58.49676406 -16.12145609 57.69817355 -9.97265625 57.26953125 C-7.21134057 56.57011906 -5.45346499 55.73546369 -2.97265625 54.26953125 C-1.55223804 51.42869484 -1.65813353 49.41475847 -1.97265625 46.26953125 C-5.25345728 41.86909177 -9.68276563 40.60397215 -14.66015625 38.83203125 C-32.47945265 32.16601142 -32.47945265 32.16601142 -37.97265625 24.26953125 C-39.98404572 18.23536285 -40.05022127 11.50448092 -37.28515625 5.76953125 C-27.84719362 -4.43367159 -12.49589866 -6.04502448 0 0 Z " fill="#505050" transform="translate(773.97265625,51.73046875)"/>
<path d="M0 0 C3.77038065 1.91826384 5.33558718 3.26593513 7.5625 6.8125 C8.34173828 8.03259766 8.34173828 8.03259766 9.13671875 9.27734375 C11.13854929 14.2407866 11.07615115 18.75902994 11.0625 24.0625 C11.09085938 25.04863281 11.11921875 26.03476563 11.1484375 27.05078125 C11.16729733 34.20808558 9.74985526 39.90977398 5.5625 45.8125 C3.27038221 47.67625987 1.31313386 48.6188287 -1.4375 49.8125 C-2.4275 50.3075 -2.4275 50.3075 -3.4375 50.8125 C-11.41038423 51.58311335 -17.8162003 50.5485931 -24.25 45.6875 C-29.07727869 39.34307657 -29.97526631 32.10248207 -29.875 24.3125 C-29.86670166 23.47952393 -29.85840332 22.64654785 -29.84985352 21.78833008 C-29.65414601 14.69201787 -28.71059174 9.28644055 -23.71875 3.98828125 C-16.98930645 -2.12809858 -8.60555393 -2.86312603 0 0 Z " fill="#FDFDFD" transform="translate(588.4375,60.1875)"/>
<path d="M0 0 C2 2 2 2 2.25 5 C2 8 2 8 0 10 C-2.20703125 10.52734375 -2.20703125 10.52734375 -4.8125 10.9375 C-8.77290199 11.67471769 -11.80677018 12.40550077 -15 15 C-17.43649222 18.62844524 -17.43292285 22.51629947 -17.625 26.75 C-17.66367188 27.44738281 -17.70234375 28.14476563 -17.7421875 28.86328125 C-17.83598624 30.57510818 -17.91906174 32.28751682 -18 34 C-16.94039062 33.97679687 -15.88078125 33.95359375 -14.7890625 33.9296875 C-13.4010487 33.91093056 -12.0130273 33.89273028 -10.625 33.875 C-9.92632812 33.85824219 -9.22765625 33.84148438 -8.5078125 33.82421875 C-6.67102514 33.80655733 -4.83398037 33.89696739 -3 34 C-1 36 -1 36 -0.75 39 C-1 42 -1 42 -3 44 C-5.58064129 44.14497985 -8.04943884 44.18677545 -10.625 44.125 C-11.33140625 44.11597656 -12.0378125 44.10695312 -12.765625 44.09765625 C-14.51056098 44.07407603 -16.25532295 44.03820461 -18 44 C-17.99333817 44.68016174 -17.98667633 45.36032349 -17.97981262 46.06109619 C-17.91349527 53.13361896 -17.8682142 60.20605354 -17.83520508 67.27880859 C-17.8201091 69.91914456 -17.79963046 72.55945542 -17.77368164 75.19970703 C-17.73733509 78.99257603 -17.72028155 82.78511377 -17.70703125 86.578125 C-17.69154739 87.76053772 -17.67606354 88.94295044 -17.66011047 90.16119385 C-17.65988388 91.26203308 -17.65965729 92.36287231 -17.65942383 93.49707031 C-17.65276199 94.46525696 -17.64610016 95.4334436 -17.63923645 96.43096924 C-18.06534758 99.46534619 -18.85544573 100.83331222 -21 103 C-24.11153674 103.45376577 -26.04666139 103.67787555 -28.66621399 101.81523132 C-30.50889083 99.30741921 -30.36144464 97.61428861 -30.34057617 94.51879883 C-30.34034958 93.39786331 -30.34012299 92.2769278 -30.33988953 91.12202454 C-30.32440567 89.91257675 -30.30892181 88.70312897 -30.29296875 87.45703125 C-30.28872391 86.21829758 -30.28447906 84.9795639 -30.28010559 83.70329285 C-30.26614733 80.41350999 -30.23920213 77.12416797 -30.20599365 73.83453369 C-30.17527933 70.47633254 -30.16159739 67.11806682 -30.14648438 63.75976562 C-30.11337359 57.17300426 -30.06314257 50.5865382 -30 44 C-31.11375 44.061875 -32.2275 44.12375 -33.375 44.1875 C-34.57125 44.125625 -35.7675 44.06375 -37 44 C-39.14762184 40.77856724 -39.561068 39.7404533 -39 36 C-37.3125 34.1875 -37.3125 34.1875 -35 33 C-33.33398932 32.95324342 -31.66583993 32.94751085 -30 33 C-30.06960937 31.76636719 -30.06960937 31.76636719 -30.140625 30.5078125 C-30.45128808 20.89944734 -29.39491205 13.34605348 -22.75 6.0625 C-16.18175855 0.16221531 -8.68170392 -1.12540606 0 0 Z " fill="#535353" transform="translate(201,17)"/>
<path d="M0 0 C1.26323593 -0.0033284 2.52647186 -0.0066568 3.82798767 -0.01008606 C6.49156233 -0.01513646 9.15503481 -0.01792897 11.81860352 -0.01733398 C15.22014062 -0.01723215 18.62146999 -0.03091979 22.0229578 -0.04810619 C25.28613064 -0.06193302 28.54930185 -0.06131542 31.8125 -0.0625 C33.02825211 -0.06968552 34.24400421 -0.07687103 35.49659729 -0.08427429 C37.20383217 -0.07965935 37.20383217 -0.07965935 38.94555664 -0.07495117 C39.94148331 -0.07637619 40.93740997 -0.07780121 41.96351624 -0.07926941 C45.16744366 0.19612799 47.83687969 1.04417956 50.83984375 2.16796875 C47.66983044 3.90397336 44.57347582 4.88110888 41.08203125 5.796875 C39.91575195 6.10520264 38.74947266 6.41353027 37.54785156 6.73120117 C35.6505127 7.22583862 35.6505127 7.22583862 33.71484375 7.73046875 C32.38497544 8.08069701 31.05522506 8.43137332 29.72558594 8.7824707 C26.90131515 9.5275272 24.07641492 10.27012584 21.25097656 11.01074219 C14.59391173 12.75609965 7.94040804 14.51493982 1.28707886 16.2744751 C-0.18037529 16.66249982 -1.64788446 17.05031647 -3.115448 17.43792725 C-11.0391849 19.53104829 -18.95789473 21.63693417 -26.84765625 23.85546875 C-33.68419018 25.77740938 -40.54159822 27.6137853 -47.41015625 29.41796875 C-48.38815186 29.67666748 -49.36614746 29.93536621 -50.3737793 30.2019043 C-54.9520443 31.39743102 -59.46704746 32.50652389 -64.16015625 33.16796875 C-55.93418029 17.66516791 -41.47765379 7.61366767 -24.84765625 2.35546875 C-16.61769598 -0.0144151 -8.50433645 0.00779732 0 0 Z " fill="#88EFF4" transform="translate(82.16015625,34.83203125)"/>
<path d="M0 0 C0.495 1.485 0.495 1.485 1 3 C-9.80155585 13.82488273 -20.60594923 24.64692736 -31.41375637 35.46556854 C-36.43157415 40.48854973 -41.44844795 45.51246708 -46.46313477 50.53857422 C-51.29783265 55.38427731 -56.13511352 60.22738927 -60.97401619 65.06889343 C-62.82456211 66.92129452 -64.6742242 68.77457897 -66.52300835 70.6287384 C-69.1021526 73.21508632 -71.6843529 75.79834412 -74.26733398 78.38085938 C-75.03985001 79.15697067 -75.81236603 79.93308197 -76.60829163 80.73271179 C-77.30804108 81.43108658 -78.00779053 82.12946136 -78.72874451 82.84899902 C-79.33989326 83.46106956 -79.951042 84.07314011 -80.58071041 84.70375824 C-82 86 -82 86 -83 86 C-83.80301088 70.20745276 -78.19830206 55.71624946 -67.80273438 43.92602539 C-60.31540227 35.79212989 -52.69438335 30.46555896 -43.125 25.0625 C-41.39192885 24.07371893 -39.65886556 23.08492363 -37.92637634 22.09512329 C-36.73916899 21.41714797 -35.5515536 20.73988666 -34.36354065 20.06332397 C-28.11270907 16.50243495 -21.89851388 12.87989438 -15.6875 9.25 C-14.18630615 8.37420288 -14.18630615 8.37420288 -12.65478516 7.48071289 C-8.4224652 5.00973016 -4.19899594 2.52732459 0 0 Z " fill="#5DBD78" transform="translate(134,39)"/>
<path d="M0 0 C1.485 0.495 1.485 0.495 3 1 C3.09343813 9.21582864 3.16413346 17.43142851 3.20724869 25.64766026 C3.22796108 29.46443762 3.2559714 33.28084664 3.30175781 37.09741211 C3.34580984 40.79331419 3.36925932 44.48886618 3.37950897 48.18501091 C3.38679567 49.58216793 3.401018 50.97930982 3.42292023 52.37631416 C3.7088677 71.40394916 -1.65187089 87.94364356 -14.86352539 101.94921875 C-19.32277173 106.49547853 -23.88327431 110.96109144 -30 113 C-30.33 112.34 -30.66 111.68 -31 111 C-30.34 111 -29.68 111 -29 111 C-28.88517273 110.39259979 -28.77034546 109.78519958 -28.65203857 109.15939331 C-27.4738937 103.08126003 -26.05821428 97.11104056 -24.453125 91.1328125 C-24.20509628 90.19931473 -23.95706757 89.26581696 -23.70152283 88.30403137 C-22.88741149 85.24352895 -22.06879689 82.18425188 -21.25 79.125 C-20.67859575 76.98125356 -20.10739165 74.83745375 -19.53637695 72.69360352 C-13.07276131 48.44943144 -6.54076207 24.22345464 0 0 Z " fill="#F1AC3C" transform="translate(138,46)"/>
<path d="M0 0 C0.85980469 0.53109375 1.71960938 1.0621875 2.60546875 1.609375 C14.90669115 9.03434229 26.67641666 12.36792754 41 14 C41.07476562 14.98097656 41.14953125 15.96195313 41.2265625 16.97265625 C42.53135574 31.24338666 47.03768026 43.00005004 55 55 C39.85235196 54.72950628 27.25329919 46.06306357 16.796875 35.84765625 C8.50730278 27.09930999 0.32767791 14.55508794 -0.09765625 2.15234375 C-0.06542969 1.44207031 -0.03320312 0.73179688 0 0 Z " fill="#B368C0" transform="translate(10,112)"/>
<path d="M0 0 C0.66 0.33 1.32 0.66 2 1 C1.50371094 1.44988281 1.00742188 1.89976563 0.49609375 2.36328125 C-5.11116135 7.67261768 -9.14371098 13.33019399 -13 20 C-13.4021875 20.66773437 -13.804375 21.33546875 -14.21875 22.0234375 C-19.07641951 30.7451623 -20.35649396 41.16989048 -21 51 C-32.23509014 51.67112264 -41.55501552 48.96578362 -51.5625 44.0625 C-52.59914795 43.55879883 -52.59914795 43.55879883 -53.65673828 43.04492188 C-57.38700098 41.13499782 -59.64219767 39.42486303 -62 36 C-59.35808104 34.47581599 -56.71615814 32.95163882 -54.07421875 31.42749023 C-51.75123713 30.08727059 -49.42831082 28.74695558 -47.10546875 27.40649414 C-41.60411726 24.23195982 -36.10237871 21.05811236 -30.5977478 17.88926697 C-28.85195174 16.88421933 -27.10636549 15.87880822 -25.36083984 14.87329102 C-23.17668202 13.61525038 -20.99213332 12.35788803 -18.80712891 11.10131836 C-17.79827637 10.52003174 -16.78942383 9.93874512 -15.75 9.33984375 C-14.30753906 8.51009033 -14.30753906 8.51009033 -12.8359375 7.66357422 C-9.16305542 5.50904439 -5.5554861 3.25352925 -1.9609375 0.97094727 C-1.31382813 0.65053467 -0.66671875 0.33012207 0 0 Z " fill="#4576AD" transform="translate(72,75)"/>
<path d="M0 0 C0.66 0 1.32 0 2 0 C1.32313971 3.48616154 -0.06987575 6.17749011 -1.80859375 9.26171875 C-2.38593262 10.28998779 -2.96327148 11.31825684 -3.55810547 12.37768555 C-4.17830566 13.46992432 -4.79850586 14.56216309 -5.4375 15.6875 C-6.07059082 16.81003174 -6.70368164 17.93256348 -7.35595703 19.08911133 C-11.7340037 26.8296441 -16.19544007 34.51703693 -20.734375 42.1640625 C-24.23324581 48.06500783 -27.61479472 54.03333929 -31 60 C-39.45493518 52.11731086 -45.42149505 39.17371511 -46.2421875 27.578125 C-46.24893042 24.70564309 -46.18294194 21.86609035 -46 19 C-45.1028125 18.92523438 -44.205625 18.85046875 -43.28125 18.7734375 C-27.08019396 17.06630143 -11.77288543 11.77288543 0 0 Z " fill="#C24952" transform="translate(97,107)"/>
<path d="M0 0 C2.375 0.8125 2.375 0.8125 4.375 2.8125 C5 4.9375 5 4.9375 5.375 6.8125 C5.98988281 6.39097656 6.60476562 5.96945313 7.23828125 5.53515625 C8.04652344 4.98730469 8.85476562 4.43945312 9.6875 3.875 C10.48800781 3.32972656 11.28851563 2.78445312 12.11328125 2.22265625 C15.3899675 0.17967915 18.08302803 -0.36166056 21.875 -0.4375 C23.03515625 -0.47617187 23.03515625 -0.47617187 24.21875 -0.515625 C26.90661348 -0.1066023 27.74926503 0.6720339 29.375 2.8125 C29.8125 5.3125 29.8125 5.3125 29.375 7.8125 C26.54214186 10.43979927 24.28121124 11.2258134 20.5 11.75 C15.92070944 12.5985156 12.87364019 13.56376268 9.375 16.8125 C5.66009724 23.00582007 4.8036925 28.66606953 4.87109375 35.7734375 C4.86167252 36.68582184 4.85225128 37.59820618 4.84254456 38.53823853 C4.81410952 41.42156019 4.81081038 44.30405004 4.8125 47.1875 C4.80889251 50.09224995 4.79942068 52.99640641 4.77174377 55.90103149 C4.75494307 57.70057616 4.75208945 59.50031772 4.76475525 61.29989624 C4.75787186 62.111492 4.75098846 62.92308777 4.74389648 63.75927734 C4.74485825 64.47159515 4.74582001 65.18391296 4.74681091 65.91781616 C4.2585695 68.4058096 3.37332257 69.29118175 1.375 70.8125 C-1.6875 71.1875 -1.6875 71.1875 -4.625 70.8125 C-6.98521618 67.27217573 -6.88742917 65.75075691 -6.91552734 61.55273438 C-6.92828705 60.26129517 -6.94104675 58.96985596 -6.95419312 57.63928223 C-6.95725009 56.228273 -6.95947821 54.81726178 -6.9609375 53.40625 C-6.96736375 51.96040717 -6.97409198 50.51456566 -6.98110962 49.06872559 C-6.99308311 46.03911319 -6.99679026 43.00961485 -6.99560547 39.97998047 C-6.99540199 36.09578636 -7.022733 32.21232154 -7.05714989 28.32830048 C-7.07937165 25.34288159 -7.08344452 22.35763974 -7.08238602 19.37214661 C-7.08474801 17.93998189 -7.09360521 16.50781274 -7.10905075 15.07572937 C-7.12861634 13.07467035 -7.12037454 11.07339758 -7.11083984 9.07226562 C-7.11368988 7.93325806 -7.11653992 6.79425049 -7.11947632 5.62072754 C-6.625 2.8125 -6.625 2.8125 -4.75869751 0.9095459 C-2.625 -0.1875 -2.625 -0.1875 0 0 Z " fill="#4E4E4E" transform="translate(217.625,49.1875)"/>
<path d="M0 0 C2.375 0.8125 2.375 0.8125 4.375 2.8125 C5 4.9375 5 4.9375 5.375 6.8125 C5.98988281 6.39097656 6.60476563 5.96945313 7.23828125 5.53515625 C8.04652344 4.98730469 8.85476563 4.43945312 9.6875 3.875 C10.48800781 3.32972656 11.28851562 2.78445312 12.11328125 2.22265625 C15.3899675 0.17967915 18.08302803 -0.36166056 21.875 -0.4375 C23.03515625 -0.47617187 23.03515625 -0.47617187 24.21875 -0.515625 C26.90661348 -0.1066023 27.74926503 0.6720339 29.375 2.8125 C29.8125 5.3125 29.8125 5.3125 29.375 7.8125 C26.54214186 10.43979927 24.28121124 11.2258134 20.5 11.75 C15.92070944 12.5985156 12.87364019 13.56376268 9.375 16.8125 C5.66009724 23.00582007 4.8036925 28.66606953 4.87109375 35.7734375 C4.86167252 36.68582184 4.85225128 37.59820618 4.84254456 38.53823853 C4.81410952 41.42156019 4.81081038 44.30405004 4.8125 47.1875 C4.80889251 50.09224995 4.79942068 52.99640641 4.77174377 55.90103149 C4.75494307 57.70057616 4.75208945 59.50031772 4.76475525 61.29989624 C4.75787186 62.111492 4.75098846 62.92308777 4.74389648 63.75927734 C4.74485825 64.47159515 4.74582001 65.18391296 4.74681091 65.91781616 C4.2585695 68.4058096 3.37332257 69.29118175 1.375 70.8125 C-1.6875 71.1875 -1.6875 71.1875 -4.625 70.8125 C-6.98521618 67.27217573 -6.88742917 65.75075691 -6.91552734 61.55273438 C-6.92828705 60.26129517 -6.94104675 58.96985596 -6.95419312 57.63928223 C-6.95725009 56.228273 -6.95947821 54.81726178 -6.9609375 53.40625 C-6.96736375 51.96040717 -6.97409198 50.51456566 -6.98110962 49.06872559 C-6.99308311 46.03911319 -6.99679026 43.00961485 -6.99560547 39.97998047 C-6.99540199 36.09578636 -7.022733 32.21232154 -7.05714989 28.32830048 C-7.07937165 25.34288159 -7.08344452 22.35763974 -7.08238602 19.37214661 C-7.08474801 17.93998189 -7.09360521 16.50781274 -7.10905075 15.07572937 C-7.12861634 13.07467035 -7.12037454 11.07339758 -7.11083984 9.07226562 C-7.11368988 7.93325806 -7.11653992 6.79425049 -7.11947632 5.62072754 C-6.625 2.8125 -6.625 2.8125 -4.75869751 0.9095459 C-2.625 -0.1875 -2.625 -0.1875 0 0 Z " fill="#4E4E4E" transform="translate(630.625,49.1875)"/>
<path d="M0 0 C0.85980469 0.53109375 1.71960938 1.0621875 2.60546875 1.609375 C14.55497222 8.82101713 26.10607651 12.27178693 40 14 C35.61557474 19.25174926 30.99157907 24.13222473 26.125 28.9375 C25.43664062 29.62134766 24.74828125 30.30519531 24.0390625 31.00976562 C22.36166489 32.67551464 20.68196209 34.3388622 19 36 C10.97194162 32.36310676 6.37002567 22.52041163 3.22998047 14.61181641 C-0.37532496 5.00433276 -0.37532496 5.00433276 0 0 Z " fill="#9368BE" transform="translate(10,112)"/>
<path d="M0 0 C4.22646169 1.86602271 6.68746538 4.19350113 8.9765625 8.1796875 C9.5703125 10.3515625 9.5703125 10.3515625 9.5703125 18.3515625 C-2.3096875 18.3515625 -14.1896875 18.3515625 -26.4296875 18.3515625 C-26.4296875 10.19366776 -26.4296875 10.19366776 -22.4296875 5.3515625 C-15.71911595 -0.99951415 -9.09754201 -2.42796137 0 0 Z " fill="#FDFDFD" transform="translate(289.4296875,59.6484375)"/>
</svg>
