<?xml version="1.0" encoding="UTF-8"?>
<svg version="1.1" xmlns="http://www.w3.org/2000/svg" width="380" height="404">
<path d="M0 0 C125.4 0 250.8 0 380 0 C380 133.32 380 266.64 380 404 C254.6 404 129.2 404 0 404 C0 270.68 0 137.36 0 0 Z " fill="#539CED" transform="translate(0,0)"/>
<path d="M0 0 C125.4 0 250.8 0 380 0 C380 133.32 380 266.64 380 404 C254.6 404 129.2 404 0 404 C0 270.68 0 137.36 0 0 Z M55 70 C55 70.66 55 71.32 55 72 C54.01 72.33 53.02 72.66 52 73 C50.41090082 74.99295864 48.97445731 76.95042521 47.5625 79.0625 C47.16144043 79.65667725 46.76038086 80.25085449 46.34716797 80.86303711 C31.28143723 103.47394686 33.70008785 131.53251349 33.76428056 157.60684061 C33.77317753 161.99284612 33.77130138 166.37884936 33.7709198 170.76486206 C33.77185132 178.12271933 33.780466 185.48053494 33.79418945 192.83837891 C33.8099211 201.3033376 33.8151868 209.76825082 33.8144539 218.23322308 C33.81377462 227.30971311 33.82073475 236.386186 33.8299005 245.4626708 C33.83201533 248.05082993 33.8327394 250.63898624 33.83313942 253.22714615 C33.83415582 257.31655621 33.84035613 261.40592923 33.85030556 265.495327 C33.85318624 266.98184736 33.85446514 268.46837198 33.85387802 269.95489502 C33.84755212 295.75706153 34.89970202 319.8657335 54.046875 339.20703125 C72.3219804 356.85719115 93.46071234 359.49886466 117.78393555 359.37231445 C119.46519189 359.37475197 121.14644677 359.37848048 122.82769775 359.38337708 C127.32964941 359.39265645 131.8313787 359.38347282 136.33331275 359.37004495 C141.0809982 359.35859034 145.82867491 359.36284849 150.57637024 359.36479187 C158.54028891 359.36567022 166.50412172 359.35468918 174.46801758 359.33618164 C183.63454777 359.3149993 192.80095258 359.31151163 201.9675023 359.3177436 C210.84312107 359.32346544 219.71869635 359.31775992 228.59430885 359.30657005 C232.34626901 359.30196348 236.09820222 359.30103288 239.85016441 359.3031559 C244.27696135 359.30505896 248.7036332 359.29678232 253.13040161 359.2810955 C254.74108678 359.27690427 256.35178476 359.27596659 257.96247292 359.27878571 C280.30762885 359.31192336 301.48898748 357.19881896 319 342 C319.7528125 341.35417969 320.505625 340.70835937 321.28125 340.04296875 C336.45062289 326.04246877 341.00214158 306.93279565 342 287 C342.13786486 281.50674598 342.15736052 276.01599579 342.16113281 270.52148438 C342.16577537 268.91966644 342.17080189 267.31784958 342.17617798 265.71603394 C342.18916564 261.40560628 342.19571992 257.0951941 342.20018864 252.78474998 C342.20314159 250.07854895 342.20725029 247.37235193 342.21169281 244.66615295 C342.22533181 236.1605556 342.23501599 227.6549677 342.2388947 219.14936018 C342.2433668 209.4022522 342.26089054 199.65528504 342.2898953 189.90821981 C342.31165975 182.32548801 342.32160678 174.74279539 342.32293582 167.16003275 C342.32397335 162.65352327 342.32965244 158.14714677 342.34775543 153.64067078 C342.56069028 130.89634049 342.56069028 130.89634049 340.72949219 108.25195312 C340.56741209 107.02109608 340.56741209 107.02109608 340.40205765 105.76537323 C337.82838406 89.54544422 327.76026551 75.07278589 315 65 C298.57454949 53.72336621 281.65274272 51.6868375 262.10009766 51.74121094 C260.44093676 51.73849414 258.78177708 51.73492938 257.12261963 51.73059082 C252.65088282 51.72153925 248.1792392 51.72498289 243.70750093 51.73134899 C238.99374951 51.73645519 234.28000544 51.73170404 229.56625366 51.72857666 C221.64295032 51.7249468 213.71968437 51.72970658 205.79638672 51.73925781 C196.6960179 51.75010281 187.595739 51.74664167 178.49537241 51.735605 C170.63323701 51.72645885 162.77112833 51.72528339 154.90898931 51.73048234 C150.23535851 51.733567 145.56176958 51.73411058 140.88814163 51.72740936 C94.96418277 50.1342236 94.96418277 50.1342236 55 70 Z " fill="#FEFEFE" transform="translate(0,0)"/>
<path d="M0 0 C1.36663715 0.30714658 2.73384448 0.61176537 4.1015625 0.9140625 C23.21847012 5.25503929 40.1683678 14.20408203 55 27 C56.010625 27.763125 57.02125 28.52625 58.0625 29.3125 C62.57916715 33.44476995 66.25310247 38.17226665 70 43 C70.95132813 44.19302734 70.95132813 44.19302734 71.921875 45.41015625 C77.14883501 52.33703467 80.19106707 59.87614555 83 68 C83.41636719 69.16273438 83.83273437 70.32546875 84.26171875 71.5234375 C90.71385611 92.03444258 87.46714109 113.66858153 78.0625 132.6875 C75.19033376 138.19565435 72.09009215 143.3157056 68 148 C67.33355469 148.78503906 66.66710937 149.57007813 65.98046875 150.37890625 C50.2739335 168.39603513 30.13456349 180.76423967 7 187 C6.27055176 187.19754883 5.54110352 187.39509766 4.78955078 187.59863281 C-14.67204574 192.61066041 -35.32975315 192.07610446 -55.20751953 190.12841797 C-64.14231558 189.71753296 -70.26790923 194.39990897 -77.24365234 199.29174805 C-84.92657203 204.54669425 -93.57771215 207.87649189 -103 207 C-102.47885065 202.94348612 -101.43676965 200.94227373 -98.625 198 C-93.49199522 192.38161301 -93.49199522 192.38161301 -91.5625 185.125 C-91.81286631 180.66013415 -92.93265503 177.29195605 -96 174 C-98.5229458 172.11048995 -101.10133837 170.34378348 -103.73071289 168.60644531 C-125.98286025 153.79018531 -139.36419985 132.08503185 -144.578125 106.12109375 C-146.92574825 88.75302917 -144.30452897 71.49248262 -136 56 C-135.50886719 55.03835937 -135.01773438 54.07671875 -134.51171875 53.0859375 C-130.07538131 44.89088933 -124.44962857 38.60969234 -118 32 C-117.35417969 31.28070313 -116.70835938 30.56140625 -116.04296875 29.8203125 C-100.22833004 12.66194632 -77.09428154 4.2202388 -55 -1 C-53.94296875 -1.25136719 -52.8859375 -1.50273438 -51.796875 -1.76171875 C-35.00625658 -4.99597722 -16.53803436 -4.12569301 0 0 Z " fill="#D6EAFC" transform="translate(217,103)"/>
<path d="M0 0 C0.99 0.33 1.98 0.66 3 1 C2.01 1.7734375 2.01 1.7734375 1 2.5625 C-5.1801198 7.57743275 -5.1801198 7.57743275 -11 13 C-13.67058851 13.14115161 -16.32432238 13.04247107 -19 13 C-19 13.66 -19 14.32 -19 15 C-21.64 15.33 -24.28 15.66 -27 16 C-25.50335889 13.00671778 -23.38082001 12.982355 -20.25 11.9375 C-14.16902824 9.71586462 -9.35022901 6.79528192 -4.22753906 2.85913086 C-2.86781584 1.83676483 -1.43764764 0.90953218 0 0 Z " fill="#3868A7" transform="translate(149,295)"/>
<path d="M0 0 C7.92 0 15.84 0 24 0 C23.67 0.66 23.34 1.32 23 2 C19.15785626 3.28071458 15.50434108 3.22325983 11.5 3.25 C10.72785156 3.270625 9.95570313 3.29125 9.16015625 3.3125 C6.90625 3.328125 6.90625 3.328125 3 3 C2.01 2.01 1.02 1.02 0 0 Z " fill="#3F6CA6" transform="translate(176,294)"/>
<path d="M0 0 C0.33 0.99 0.66 1.98 1 3 C-0.29296875 5.15625 -0.29296875 5.15625 -2.1875 7.5 C-2.79980469 8.2734375 -3.41210938 9.046875 -4.04296875 9.84375 C-5.89463225 11.88390619 -7.74034447 13.43677933 -10 15 C-9.67 15.66 -9.34 16.32 -9 17 C-13.0527516 17.98248524 -16.83861737 18.08159574 -21 18 C-20.484375 17.7525 -19.96875 17.505 -19.4375 17.25 C-18.633125 16.8375 -17.82875 16.425 -17 16 C-15.906875 15.443125 -14.81375 14.88625 -13.6875 14.3125 C-7.81514848 10.92800493 -3.10587925 6.02905972 0 0 Z " fill="#B9D8FA" transform="translate(135,292)"/>
<path d="M0 0 C0.99 0.33 1.98 0.66 3 1 C2.01 1.7734375 2.01 1.7734375 1 2.5625 C-2.1599614 5.12996863 -5.14629476 7.8436504 -8.1328125 10.609375 C-10 12 -10 12 -13 12 C-9.09314382 7.23779661 -5.51474557 2.88270791 0 0 Z " fill="#32609D" transform="translate(149,295)"/>
<path d="M0 0 C0.66 0.33 1.32 0.66 2 1 C-4.07792208 7.24675325 -4.07792208 7.24675325 -7 9 C-7.99 8.67 -8.98 8.34 -10 8 C-6.97727468 4.74475735 -3.74281699 2.38179263 0 0 Z " fill="#3F71AE" transform="translate(264,270)"/>
<path d="M0 0 C0.33 0.66 0.66 1.32 1 2 C0.06862408 3.29608947 -0.8703566 4.58671632 -1.8125 5.875 C-2.33457031 6.59429687 -2.85664062 7.31359375 -3.39453125 8.0546875 C-5 10 -5 10 -8 12 C-6.49087042 7.01987239 -3.44338151 3.75740058 0 0 Z " fill="#427CCA" transform="translate(123,293)"/>
<path d="M0 0 C0.99 0.33 1.98 0.66 3 1 C1.75 3 1.75 3 0 5 C-1.32 5 -2.64 5 -4 5 C-4 4.34 -4 3.68 -4 3 C-2.1875 1.3125 -2.1875 1.3125 0 0 Z " fill="#E4F0FD" transform="translate(118,304)"/>
<path d="M0 0 C-0.33 0.66 -0.66 1.32 -1 2 C-3.64860427 2.59355614 -6.29197322 2.74209269 -9 3 C-8 1 -8 1 -5.625 -0.1875 C-3 -1 -3 -1 0 0 Z " fill="#4277BD" transform="translate(131,308)"/>
<path d="M0 0 C0.33 0.99 0.66 1.98 1 3 C-0.40445835 5.2636564 -2.1967913 7.0208685 -4 9 C-4.66 8.67 -5.32 8.34 -6 8 C-5.566875 7.608125 -5.13375 7.21625 -4.6875 6.8125 C-2.73633776 4.71680722 -1.40989838 2.48410667 0 0 Z " fill="#C5DFFC" transform="translate(135,292)"/>
</svg>
