<?xml version="1.0" encoding="UTF-8"?>
<svg version="1.1" xmlns="http://www.w3.org/2000/svg" width="488" height="142">
<path d="M0 0 C1.04994141 -0.00386719 2.09988281 -0.00773437 3.18164062 -0.01171875 C8.54121122 -0.00497291 13.65864148 0.18154444 18.9375 1.125 C19.4325 2.61 19.4325 2.61 19.9375 4.125 C20.2675 3.135 20.5975 2.145 20.9375 1.125 C27.67457103 -0.1819983 34.38269287 -0.06103965 41.21459961 -0.06030273 C43.49676966 -0.06249689 45.77846163 -0.08070859 48.06054688 -0.09960938 C49.52083169 -0.10254254 50.98111879 -0.10452785 52.44140625 -0.10546875 C53.75955322 -0.10957764 55.0777002 -0.11368652 56.43579102 -0.11791992 C59.9375 0.125 59.9375 0.125 62.71850586 1.2644043 C63.81690796 1.69039917 63.81690796 1.69039917 64.9375 2.125 C65.9275 1.465 66.9175 0.805 67.9375 0.125 C70.79276667 -0.05920478 73.54807252 -0.13100428 76.40234375 -0.10546875 C77.23206192 -0.10501053 78.06178009 -0.10455231 78.91664124 -0.1040802 C80.67092316 -0.10106018 82.42520246 -0.09318133 84.17944336 -0.08081055 C86.86126234 -0.06259332 89.54273506 -0.06030067 92.22460938 -0.06054688 C93.92969048 -0.05562986 95.63476924 -0.04980075 97.33984375 -0.04296875 C98.54156471 -0.04129951 98.54156471 -0.04129951 99.76756287 -0.03959656 C105.47729248 0.00892111 105.47729248 0.00892111 108.06227112 0.66093445 C110.37677043 1.23370688 111.65194249 0.74524423 113.9375 0.125 C115.81074188 0.03375326 117.68704391 -0.00505514 119.5625 0 C120.52414062 -0.00257812 121.48578125 -0.00515625 122.4765625 -0.0078125 C124.9375 0.125 124.9375 0.125 126.9375 1.125 C127.13811321 6.80792915 126.38825682 11.97072363 125.29296875 17.5390625 C125.12251541 18.43056 124.95206207 19.3220575 124.77644348 20.24057007 C124.41543326 22.122064 124.05133445 24.00296764 123.68432617 25.88330078 C123.13102754 28.71910723 122.58711548 31.55658294 122.04492188 34.39453125 C116.66480544 62.39769456 116.66480544 62.39769456 114.9375 64.125 C112.24095146 64.19819621 109.57058542 64.21742537 106.875 64.1875 C106.11638672 64.18298828 105.35777344 64.17847656 104.57617188 64.17382812 C102.69658129 64.1620068 100.81703101 64.14407078 98.9375 64.125 C98.76744746 58.07598824 99.37731131 52.53621877 100.46875 46.59375 C100.62412231 45.71722778 100.77949463 44.84070557 100.9395752 43.93762207 C101.4324613 41.16555538 101.93481594 38.39530487 102.4375 35.625 C102.7753692 33.73448742 103.11261499 31.8438633 103.44921875 29.953125 C104.27144401 25.34242927 105.1021596 20.73333686 105.9375 16.125 C100.9875 16.125 96.0375 16.125 90.9375 16.125 C90.46570313 18.82623047 90.46570313 18.82623047 89.984375 21.58203125 C85.99416803 44.2751589 85.99416803 44.2751589 83.6875 55.3125 C83.52475586 56.10052002 83.36201172 56.88854004 83.19433594 57.70043945 C82.06341369 62.99908631 82.06341369 62.99908631 80.9375 64.125 C78.43109781 64.38852359 75.9507401 64.59321071 73.4375 64.75 C72.73496094 64.8015625 72.03242188 64.853125 71.30859375 64.90625 C69.52057759 65.02338401 67.72875732 65.07896301 65.9375 65.125 C64.9375 64.125 64.9375 64.125 64.8828125 61.51171875 C65.51979093 48.39827158 68.01684937 35.65710788 70.49438477 22.78198242 C71.01975093 20.08075812 71.01975093 20.08075812 70.9375 17.125 C67.02686776 15.65452664 67.02686776 15.65452664 62.9375 15.125 C62.6075 15.455 62.2775 15.785 61.9375 16.125 C60.41821962 16.19679964 58.89582518 16.20892007 57.375 16.1875 C56.54871094 16.17847656 55.72242188 16.16945313 54.87109375 16.16015625 C53.91396484 16.14275391 53.91396484 16.14275391 52.9375 16.125 C52.80698242 16.9092334 52.67646484 17.6934668 52.54199219 18.50146484 C48.1212209 44.93705777 48.1212209 44.93705777 45.6875 55.875 C45.52475586 56.61153809 45.36201172 57.34807617 45.19433594 58.10693359 C44.07275344 62.98974656 44.07275344 62.98974656 42.9375 64.125 C40.24095146 64.19819621 37.57058542 64.21742537 34.875 64.1875 C34.11638672 64.18298828 33.35777344 64.17847656 32.57617188 64.17382812 C30.69658129 64.1620068 28.81703101 64.14407078 26.9375 64.125 C26.7951675 58.1944792 27.30438403 52.66150337 28.25 46.8125 C28.38317627 45.95817383 28.51635254 45.10384766 28.65356445 44.22363281 C29.07585376 41.52315824 29.50653077 38.82410148 29.9375 36.125 C30.22712021 34.28263967 30.51618814 32.44019243 30.8046875 30.59765625 C31.50924501 26.10574099 32.22132262 21.61507665 32.9375 17.125 C30.89670995 16.9281879 28.85479993 16.74297169 26.8125 16.5625 C25.67554688 16.45808594 24.53859375 16.35367188 23.3671875 16.24609375 C20.02802372 16.12819617 17.20764191 16.50088247 13.9375 17.125 C12.3589031 17.25864204 10.77773853 17.36553651 9.1953125 17.44140625 C8.35742188 17.48330078 7.51953125 17.52519531 6.65625 17.56835938 C5.8003125 17.60767578 4.944375 17.64699219 4.0625 17.6875 C2.74378906 17.75227539 2.74378906 17.75227539 1.3984375 17.81835938 C-0.75505797 17.92369339 -2.90876064 18.02477649 -5.0625 18.125 C-5.7225 20.435 -6.3825 22.745 -7.0625 25.125 C-0.1325 25.125 6.7975 25.125 13.9375 25.125 C13.9375 35.125 13.9375 35.125 11.9375 39.125 C9.48474859 40.3513757 7.8869219 40.23915314 5.1484375 40.22265625 C4.20742188 40.21943359 3.26640625 40.21621094 2.296875 40.21289062 C1.31203125 40.20451172 0.3271875 40.19613281 -0.6875 40.1875 C-2.17636719 40.18073242 -2.17636719 40.18073242 -3.6953125 40.17382812 C-6.1511016 40.16202145 -8.60677104 40.145554 -11.0625 40.125 C-11.0625 42.765 -11.0625 45.405 -11.0625 48.125 C-10.06283203 48.10759766 -10.06283203 48.10759766 -9.04296875 48.08984375 C-2.3589079 48.02440539 4.31409383 48.13515517 10.9375 49.125 C12.49845477 50.68595477 12.10711928 52.21500895 12.125 54.375 C12.09569716 58.04957661 11.64850294 60.8099318 9.9375 64.125 C4.57697708 64.87882354 -0.64416221 65.28592126 -6.0625 65.25 C-7.14422485 65.24709961 -7.14422485 65.24709961 -8.24780273 65.24414062 C-15.87522054 65.18450613 -23.4571283 64.67966131 -31.0625 64.125 C-31.42329581 54.48373422 -30.53703514 45.87089571 -28.3125 36.5 C-27.76042264 34.06409547 -27.2096511 31.62789464 -26.66015625 29.19140625 C-26.3883252 28.00305176 -26.11649414 26.81469727 -25.83642578 25.59033203 C-24.52500484 19.71831033 -23.39081593 13.81250723 -22.26855469 7.90185547 C-21.16730271 2.22980271 -21.16730271 2.22980271 -20.0625 1.125 C-13.3743771 0.00373264 -6.768612 -0.0250226 0 0 Z M18.9375 9.125 C19.9375 12.125 19.9375 12.125 19.9375 12.125 Z " fill="#979797" transform="translate(345.0625,42.875)"/>
<path d="M0 0 C4.36626919 2.61453245 7.80617401 5.80240932 9.25390625 10.77734375 C9.37121094 11.36644531 9.48851562 11.95554687 9.609375 12.5625 C10.269375 12.5625 10.929375 12.5625 11.609375 12.5625 C12.599375 16.1925 13.589375 19.8225 14.609375 23.5625 C14.87492187 22.09296875 15.14046875 20.6234375 15.4140625 19.109375 C15.77051547 17.17702467 16.12730383 15.24473619 16.484375 13.3125 C16.65839844 12.34441406 16.83242187 11.37632813 17.01171875 10.37890625 C17.18574219 9.44433594 17.35976562 8.50976562 17.5390625 7.546875 C17.69616699 6.68803711 17.85327148 5.82919922 18.01513672 4.94433594 C18.61661795 2.53346869 19.26945056 0.65616842 20.609375 -1.4375 C25.3503101 -3.0178117 30.14324408 -2.70512532 35.109375 -2.75 C36.14835937 -2.77900391 37.18734375 -2.80800781 38.2578125 -2.83789062 C46.52461259 -2.90489088 55.45946658 -1.81730032 61.734375 4.125 C65.52674106 9.05507588 65.18621697 14.59343958 64.609375 20.5625 C62.94654691 26.2605988 59.2262456 28.87299862 54.21875 31.71484375 C53.68765625 31.99457031 53.1565625 32.27429688 52.609375 32.5625 C53.228125 33.490625 53.846875 34.41875 54.484375 35.375 C59.03256156 43.39077561 58.84220904 52.59838929 58.609375 61.5625 C52.999375 61.5625 47.389375 61.5625 41.609375 61.5625 C40.2007592 57.33665261 39.1857042 53.81373117 38.484375 49.5 C38.31679687 48.49839844 38.14921875 47.49679688 37.9765625 46.46484375 C37.63817214 43.79011993 37.54022994 41.25421839 37.609375 38.5625 C34.639375 38.5625 31.669375 38.5625 28.609375 38.5625 C28.67125 39.779375 28.733125 40.99625 28.796875 42.25 C28.81692268 48.5349475 27.33740446 54.54573422 25.609375 60.5625 C24.609375 61.5625 24.609375 61.5625 21.01171875 61.66015625 C19.52340633 61.6534822 18.03511068 61.64152183 16.546875 61.625 C15.78826172 61.62048828 15.02964844 61.61597656 14.24804688 61.61132812 C12.36845629 61.5995068 10.48890601 61.58157078 8.609375 61.5625 C9.15416518 52.80284738 10.15045499 44.21687017 11.609375 35.5625 C11.28066406 36.50609375 11.28066406 36.50609375 10.9453125 37.46875 C6.73870543 48.82316908 0.96132123 55.63073584 -10.0625 60.8203125 C-19.37820026 64.58343436 -27.40513651 64.78976552 -36.77734375 61.01171875 C-43.71608772 57.16377553 -48.19021497 50.62450876 -50.76953125 43.23046875 C-52.98690719 33.70551424 -51.68259722 24.14185198 -46.7265625 15.7421875 C-35.50001183 -0.67272922 -19.06526829 -8.87695031 0 0 Z M-26.390625 15.5625 C-30.24857742 21.89908314 -32.53585065 27.55125893 -32.578125 35 C-32.59230469 36.13308594 -32.60648438 37.26617187 -32.62109375 38.43359375 C-32.39708963 41.47473444 -32.1390355 43.0978052 -30.390625 45.5625 C-26.4243737 48.28275869 -22.31826428 48.88205333 -17.640625 48.0625 C-14.68986616 47.21580459 -13.38316771 46.55602393 -11.015625 44.5 C-6.21493566 35.8218308 -5.51096973 27.37579707 -6.390625 17.5625 C-7.10785328 15.2208758 -7.10785328 15.2208758 -8.390625 13.5625 C-15.28490378 10.42873692 -20.63999317 10.42363751 -26.390625 15.5625 Z M34.609375 11.5625 C34.27064987 12.97788717 33.93862876 14.39487963 33.609375 15.8125 C33.42375 16.60140625 33.238125 17.3903125 33.046875 18.203125 C32.48782672 20.81806002 32.48782672 20.81806002 32.609375 24.5625 C36.31742762 24.84579774 39.90976529 24.99903212 43.609375 24.5625 C46.17066436 22.00121064 46.48102944 20.46091895 46.984375 16.9375 C46.52750804 14.04400924 45.9046949 13.33085904 43.609375 11.5625 C41.32607399 11.20103543 41.32607399 11.20103543 38.921875 11.375 C38.11363281 11.40207031 37.30539063 11.42914063 36.47265625 11.45703125 C35.85777344 11.49183594 35.24289063 11.52664062 34.609375 11.5625 Z M12.609375 27.5625 C13.609375 30.5625 13.609375 30.5625 13.609375 30.5625 Z " fill="#989898" transform="translate(103.390625,45.4375)"/>
<path d="M0 0 C2.29763714 3.36335921 3.65411925 6.58793881 4.7890625 10.484375 C5.09070313 11.50144531 5.39234375 12.51851562 5.703125 13.56640625 C6.00734375 14.61699219 6.3115625 15.66757812 6.625 16.75 C7.23944119 18.84976392 7.85648518 20.94876856 8.4765625 23.046875 C8.74549316 23.97338867 9.01442383 24.89990234 9.29150391 25.85449219 C9.80762859 27.95753456 9.80762859 27.95753456 11 29 C11.14099121 28.26362305 11.28198242 27.52724609 11.42724609 26.76855469 C12.07042185 23.42783342 12.72260695 20.08893295 13.375 16.75 C13.70757812 15.01169922 13.70757812 15.01169922 14.046875 13.23828125 C14.26601562 12.12324219 14.48515625 11.00820313 14.7109375 9.859375 C15.00943604 8.31975098 15.00943604 8.31975098 15.31396484 6.74902344 C16 4 16 4 18 0 C22.95 0 27.9 0 33 0 C33.31073652 7.82720103 32.12575491 15.06831763 30.6875 22.75 C30.47416016 23.9359375 30.26082031 25.121875 30.04101562 26.34375 C28.58862586 34.28637107 26.88264476 42.14869226 25 50 C33.03034543 43.59753647 39.42951366 35.8383673 46 28 C46.47775879 27.43007324 46.95551758 26.86014648 47.44775391 26.27294922 C52.17239362 20.9420275 52.17239362 20.9420275 56 15 C54.90300781 15.01160156 53.80601562 15.02320312 52.67578125 15.03515625 C51.22135588 15.04453964 49.76692865 15.05363925 48.3125 15.0625 C47.59126953 15.07087891 46.87003906 15.07925781 46.12695312 15.08789062 C42.28444618 15.10543632 38.73360474 14.93524221 35 14 C35.11487748 12.41590006 35.24234508 10.83271037 35.375 9.25 C35.44460938 8.36828125 35.51421875 7.4865625 35.5859375 6.578125 C36.0014078 3.99123446 36.78519648 2.29320804 38 0 C42.80118257 -0.16925032 47.6025551 -0.32961243 52.40429688 -0.48217773 C54.03360741 -0.53514643 55.66284449 -0.59043267 57.29199219 -0.64819336 C65.96164527 -0.95402468 74.37633598 -1.17595419 83 0 C82.62944521 11.67247574 76.29076652 17.895137 68.59375 26.16015625 C65.23629338 29.83616674 62.10706476 33.67119622 58.984375 37.546875 C57.33547482 39.58527916 55.65133534 41.57907258 53.9375 43.5625 C51.79258529 45.74198614 51.79258529 45.74198614 52 48 C52.83978394 47.99214478 52.83978394 47.99214478 53.6965332 47.98413086 C56.23517737 47.96333309 58.77380359 47.95033096 61.3125 47.9375 C62.63411133 47.92493164 62.63411133 47.92493164 63.98242188 47.91210938 C64.82998047 47.90888672 65.67753906 47.90566406 66.55078125 47.90234375 C67.33106689 47.89710693 68.11135254 47.89187012 68.9152832 47.88647461 C71 48 71 48 74 49 C74.05472088 50.39538254 74.09311538 51.79140897 74.125 53.1875 C74.14820313 53.96480469 74.17140625 54.74210937 74.1953125 55.54296875 C73.97266566 58.343866 73.08454157 60.42374468 72 63 C65.68304662 63.16857871 59.36591494 63.32840218 53.04858398 63.48217773 C50.90009562 63.53550498 48.75165579 63.59082684 46.60327148 63.64819336 C43.51296451 63.73036337 40.42255328 63.80532874 37.33203125 63.87890625 C36.37351761 63.90594131 35.41500397 63.93297638 34.42744446 63.96083069 C33.52688828 63.98092697 32.62633209 64.00102325 31.69848633 64.02172852 C30.91016922 64.04171402 30.12185211 64.06169952 29.30964661 64.08229065 C26.78208975 63.99223605 24.46854043 63.53366536 22 63 C20.59927002 62.9252794 19.19564939 62.89163626 17.79296875 62.90234375 C17.04208984 62.90556641 16.29121094 62.90878906 15.51757812 62.91210938 C14.74865234 62.92048828 13.97972656 62.92886719 13.1875 62.9375 C12.39923828 62.94201172 11.61097656 62.94652344 10.79882812 62.95117188 C8.86585239 62.96288688 6.93291607 62.98082002 5 63 C0.98358704 55.71031241 -1.5692877 48.45137324 -3.75 40.4375 C-4.34628105 38.28961954 -4.94509562 36.14244022 -5.546875 33.99609375 C-5.80307617 33.05950928 -6.05927734 32.1229248 -6.32324219 31.15795898 C-6.80400061 29.04162901 -6.80400061 29.04162901 -8 28 C-8.17128418 28.91813477 -8.34256836 29.83626953 -8.51904297 30.78222656 C-9.15911546 34.19738712 -9.80454877 37.61144406 -10.45361328 41.02490234 C-10.73310481 42.5007342 -11.01047129 43.97697018 -11.28564453 45.45361328 C-11.68220107 47.57955717 -12.08644937 49.70391678 -12.4921875 51.828125 C-12.85352783 53.7447998 -12.85352783 53.7447998 -13.22216797 55.70019531 C-14 59 -14 59 -16 63 C-20.95 63 -25.9 63 -31 63 C-30.49477162 51.46996668 -28.3554032 40.40792271 -26.13427734 29.10351562 C-25.49490092 25.84904533 -24.86571419 22.59272951 -24.23828125 19.3359375 C-23.83651702 17.26290844 -23.43419381 15.18998761 -23.03125 13.1171875 C-22.84268433 12.14538544 -22.65411865 11.17358337 -22.45983887 10.17233276 C-22.28295532 9.27354401 -22.10607178 8.37475525 -21.92382812 7.44873047 C-21.76918091 6.65965302 -21.61453369 5.87057556 -21.4552002 5.05758667 C-21 3 -21 3 -20 0 C-4.69702672 -1.85923974 -4.69702672 -1.85923974 0 0 Z M24 52 C25 54 25 54 25 54 Z M23 57 C24 59 24 59 24 59 Z " fill="#989898" transform="translate(239,44)"/>
<path d="M0 0 C1.29422379 0.03541649 1.29422379 0.03541649 2.61459351 0.07154846 C5.37603956 0.14824922 8.13720968 0.23224587 10.8984375 0.31640625 C12.76821557 0.36962052 14.63800719 0.42236096 16.5078125 0.47460938 C21.09652959 0.60387304 25.68501227 0.73968129 30.2734375 0.87890625 C30.28700229 2.31507788 30.29666476 3.75128672 30.3046875 5.1875 C30.31048828 5.98728271 30.31628906 6.78706543 30.32226562 7.61108398 C30.26809218 10.1271698 29.90204529 12.44305106 29.2734375 14.87890625 C21.18534761 16.48505176 13.5159692 17.14196577 5.2734375 16.87890625 C4.9434375 19.18890625 4.6134375 21.49890625 4.2734375 23.87890625 C4.96308594 23.86730469 5.65273437 23.85570313 6.36328125 23.84375 C12.43116402 23.78548501 18.25701146 24.08986677 24.2734375 24.87890625 C24.4534303 30.09869753 24.24438558 33.95153606 22.2734375 38.87890625 C14.58412465 39.93950113 7.02837264 39.97818707 -0.7265625 39.87890625 C-1.0565625 42.84890625 -1.3865625 45.81890625 -1.7265625 48.87890625 C-0.41300781 48.86730469 0.90054688 48.85570312 2.25390625 48.84375 C3.98958191 48.83436797 5.72525911 48.82526821 7.4609375 48.81640625 C8.75741211 48.80383789 8.75741211 48.80383789 10.08007812 48.79101562 C14.27630519 48.77493813 18.18280636 48.80331587 22.2734375 49.87890625 C22.13267435 51.83761055 21.9856699 53.79586718 21.8359375 55.75390625 C21.75472656 56.84445313 21.67351562 57.935 21.58984375 59.05859375 C21.2734375 61.87890625 21.2734375 61.87890625 20.2734375 63.87890625 C6.4134375 63.87890625 -7.4465625 63.87890625 -21.7265625 63.87890625 C-19.41979066 43.11795965 -19.41979066 43.11795965 -17.6328125 34.3125 C-17.44062134 33.34151871 -17.24843018 32.37053741 -17.05041504 31.37013245 C-16.65084443 29.36261465 -16.24750531 27.35584312 -15.84033203 25.34985352 C-15.21586928 22.26355691 -14.60934702 19.17406278 -14.00390625 16.08398438 C-13.61042754 14.1182786 -13.21593607 12.15277522 -12.8203125 10.1875 C-12.64004517 9.2648082 -12.45977783 8.34211639 -12.27404785 7.39146423 C-12.10046753 6.54870438 -11.92688721 5.70594452 -11.74804688 4.83764648 C-11.59863647 4.09473862 -11.44922607 3.35183075 -11.29528809 2.58641052 C-11.10760864 2.02293411 -10.9199292 1.4594577 -10.7265625 0.87890625 C-7.38895019 -0.7898999 -3.65896727 -0.11737746 0 0 Z " fill="#999999" transform="translate(184.7265625,43.12109375)"/>
<path d="M0 0 C-0.36298668 6.34154234 -1.12421191 10.83228254 -5 16 C-7.625 16.625 -7.625 16.625 -10 17 C-11.37466625 19.47636012 -11.37466625 19.47636012 -12 22 C-12.66 22 -13.32 22 -14 22 C-14.24105469 22.56074219 -14.48210937 23.12148437 -14.73046875 23.69921875 C-16.2617823 26.47443007 -18.14596305 28.50031351 -20.3125 30.8125 C-23.07357837 33.8088471 -25.64547772 36.75559 -27.9375 40.125 C-28.618125 41.07375 -29.29875 42.0225 -30 43 C-30.66 43 -31.32 43 -32 43 C-32.66 45.31 -33.32 47.62 -34 50 C-26.08 50 -18.16 50 -10 50 C-11 61 -11 61 -12 62 C-13.44289787 62.09295815 -14.89029785 62.11746513 -16.33618164 62.11352539 C-17.71750023 62.11341209 -17.71750023 62.11341209 -19.12672424 62.11329651 C-20.12775681 62.10813522 -21.12878937 62.10297394 -22.16015625 62.09765625 C-23.17975937 62.0962413 -24.19936249 62.09482635 -25.24986267 62.09336853 C-28.52077107 62.08775097 -31.79161213 62.0751955 -35.0625 62.0625 C-37.27408756 62.05748726 -39.48567618 62.05292396 -41.69726562 62.04882812 C-47.13153357 62.03777584 -52.56576197 62.02102063 -58 62 C-57.14743239 54.20765128 -55.57992912 50.25377924 -49.75 44.75 C-45.86440192 40.97849778 -42.58015748 37.03638801 -39.41015625 32.65234375 C-38.94480469 32.10707031 -38.47945313 31.56179687 -38 31 C-37.34 31 -36.68 31 -36 31 C-34.89903213 28.87670482 -33.93426655 26.81688539 -33.125 24.5625 C-31.82509621 21.60160803 -30.06925459 19.46975548 -28 17 C-27.67 16.34 -27.34 15.68 -27 15 C-28.09699219 15.01160156 -29.19398438 15.02320312 -30.32421875 15.03515625 C-31.77864412 15.04453964 -33.23307135 15.05363925 -34.6875 15.0625 C-35.40873047 15.07087891 -36.12996094 15.07925781 -36.87304688 15.08789062 C-40.71555382 15.10543632 -44.26639526 14.93524221 -48 14 C-47.88512252 12.41590006 -47.75765492 10.83271037 -47.625 9.25 C-47.55539062 8.36828125 -47.48578125 7.4865625 -47.4140625 6.578125 C-46.9985922 3.99123446 -46.21480352 2.29320804 -45 0 C-40.52030401 -0.16989559 -36.04038868 -0.33016483 -31.56005859 -0.48217773 C-30.04141367 -0.53498202 -28.52285199 -0.59024831 -27.00439453 -0.64819336 C-17.91487316 -0.99317519 -9.06121804 -1.05100485 0 0 Z " fill="#9A9A9A" transform="translate(322,44)"/>
<path d="M0 0 C0.9590625 -0.00257812 1.918125 -0.00515625 2.90625 -0.0078125 C5.5 0.125 5.5 0.125 8.5 1.125 C8.65569912 7.48920156 8.154039 13.29098927 6.96875 19.53515625 C6.81337769 20.38806747 6.65800537 21.2409787 6.4979248 22.11973572 C6.00602972 24.81041601 5.50321971 27.49891722 5 30.1875 C4.66203288 32.02525698 4.32478653 33.86314666 3.98828125 35.70117188 C3.16717181 40.17735732 2.33627565 44.6516243 1.5 49.125 C2.68078125 49.11339844 3.8615625 49.10179687 5.078125 49.08984375 C6.63541508 49.08046248 8.19270688 49.07136264 9.75 49.0625 C10.52730469 49.05412109 11.30460937 49.04574219 12.10546875 49.03710938 C13.23662109 49.03227539 13.23662109 49.03227539 14.390625 49.02734375 C15.42751465 49.01948853 15.42751465 49.01948853 16.48535156 49.01147461 C18.59973898 49.13062029 20.46641515 49.54881763 22.5 50.125 C22.55437607 51.70794782 22.59296271 53.29144256 22.625 54.875 C22.64820313 55.75671875 22.67140625 56.6384375 22.6953125 57.546875 C22.48938266 60.2651489 21.77258701 61.75596259 20.5 64.125 C7.06418261 64.95929956 -6.07590373 65.20224229 -19.5 64.125 C-19.89227192 55.832554 -18.40011728 48.03390967 -16.8125 39.9375 C-16.5385429 38.51686743 -16.26469951 37.09621293 -15.9909668 35.67553711 C-15.17870106 31.48835059 -14.34312782 27.30606778 -13.5 23.125 C-13.26023437 21.93068359 -13.02046875 20.73636719 -12.7734375 19.50585938 C-12.13927532 16.39518453 -11.48285573 13.29055176 -10.8125 10.1875 C-10.62276611 9.27137939 -10.43303223 8.35525879 -10.23754883 7.41137695 C-9.76113594 5.29019049 -9.14491954 3.20116955 -8.5 1.125 C-5.41493912 0.09664637 -3.2305728 -0.00868434 0 0 Z " fill="#979797" transform="translate(31.5,42.875)"/>
<path d="M0 0 C0 4.12744343 -1.61750496 5.04694583 -4.4375 8 C-8.84327809 12.68966571 -12.97656276 17.53385449 -17.015625 22.546875 C-18.66452518 24.58527916 -20.34866466 26.57907258 -22.0625 28.5625 C-24.20741471 30.74198614 -24.20741471 30.74198614 -24 33 C-23.16021606 32.99214478 -23.16021606 32.99214478 -22.3034668 32.98413086 C-19.76482263 32.96333309 -17.22619641 32.95033096 -14.6875 32.9375 C-13.36588867 32.92493164 -13.36588867 32.92493164 -12.01757812 32.91210938 C-11.17001953 32.90888672 -10.32246094 32.90566406 -9.44921875 32.90234375 C-8.66893311 32.89710693 -7.88864746 32.89187012 -7.0847168 32.88647461 C-5 33 -5 33 -2 34 C-1.94527912 35.39538254 -1.90688462 36.79140897 -1.875 38.1875 C-1.85179687 38.96480469 -1.82859375 39.74210937 -1.8046875 40.54296875 C-2.02733434 43.343866 -2.91545843 45.42374468 -4 48 C-10.31695338 48.16857871 -16.63408506 48.32840218 -22.95141602 48.48217773 C-25.09990438 48.53550498 -27.24834421 48.59082684 -29.39672852 48.64819336 C-32.48703549 48.73036337 -35.57744672 48.80532874 -38.66796875 48.87890625 C-39.62648239 48.90594131 -40.58499603 48.93297638 -41.57255554 48.96083069 C-42.47311172 48.98092697 -43.37366791 49.00102325 -44.30151367 49.02172852 C-45.48398933 49.05170677 -45.48398933 49.05170677 -46.69035339 49.08229065 C-49.21791025 48.99223605 -51.53145957 48.53366536 -54 48 C-55.40072998 47.9252794 -56.80435061 47.89163626 -58.20703125 47.90234375 C-58.95791016 47.90556641 -59.70878906 47.90878906 -60.48242188 47.91210938 C-61.25134766 47.92048828 -62.02027344 47.92886719 -62.8125 47.9375 C-63.60076172 47.94201172 -64.38902344 47.94652344 -65.20117188 47.95117188 C-67.13414761 47.96288688 -69.06708393 47.98082002 -71 48 C-74.94639883 40.78484651 -77.58993074 33.59160391 -79.8125 25.6875 C-80.12380859 24.62982422 -80.43511719 23.57214844 -80.75585938 22.48242188 C-82.08611837 17.84844275 -83.19005282 13.85319325 -83 9 C-80.97033369 12.69482112 -79.70862877 16.62007261 -78.3984375 20.609375 C-78.1571109 21.33618469 -77.9157843 22.06299438 -77.66714478 22.81182861 C-76.90026466 25.12362551 -76.13757852 27.43678104 -75.375 29.75 C-74.85444314 31.32170618 -74.33361287 32.89332183 -73.8125 34.46484375 C-72.53798134 38.3086946 -71.2691475 42.15435573 -70 46 C-65.05 46.33 -60.1 46.66 -55 47 C-54.67 45.02 -54.34 43.04 -54 41 C-53.67 40.67 -53.34 40.34 -53 40 C-52.76636119 38.15108054 -52.58696365 36.29511969 -52.4375 34.4375 C-52.31181641 32.91962891 -52.31181641 32.91962891 -52.18359375 31.37109375 C-52.09271484 30.19740234 -52.09271484 30.19740234 -52 29 C-51.34 29 -50.68 29 -50 29 C-50.33 30.98 -50.66 32.96 -51 35 C-43.45890198 29.14482721 -37.52141394 21.87409592 -31.40698242 14.60644531 C-29.99966417 12.99961656 -28.52695278 11.4928199 -27 10 C-26.34 10.33 -25.68 10.66 -25 11 C-27.78447673 14.60950687 -30.77982712 17.77982712 -34 21 C-35.89657019 23.0221399 -37.76165842 25.07225282 -39.625 27.125 C-42.36593567 30.14002924 -45.11747 33.11747 -48 36 C-48.99 39.63 -49.98 43.26 -51 47 C-28.23 46.505 -28.23 46.505 -5 46 C-4.34 42.37 -3.68 38.74 -3 35 C-10.92 35 -18.84 35 -27 35 C-26 30 -26 30 -25 28 C-24.34 28 -23.68 28 -23 28 C-22.67322266 27.21109375 -22.67322266 27.21109375 -22.33984375 26.40625 C-20.49289751 23.08928532 -18.04202609 20.35129337 -15.5625 17.5 C-14.58361102 16.36546639 -13.60572019 15.23007067 -12.62890625 14.09375 C-12.17016113 13.56265625 -11.71141602 13.0315625 -11.23876953 12.484375 C-10.19448967 11.23305029 -9.22608507 9.91897597 -8.27734375 8.59375 C-7.64505859 7.80484375 -7.64505859 7.80484375 -7 7 C-6.34 7 -5.68 7 -5 7 C-4.731875 6.21625 -4.46375 5.4325 -4.1875 4.625 C-3 2 -3 2 0 0 Z M-52 37 C-51 39 -51 39 -51 39 Z M-53 42 C-52 44 -52 44 -52 44 Z " fill="#7E7E7E" transform="translate(315,59)"/>
<path d="M0 0 C0.27560214 6.20104812 -0.77100654 11.93184478 -2 18 C-3.58203125 16.91796875 -3.58203125 16.91796875 -5 15 C-4.48130305 10.52135856 -3.16790144 6.36881649 -2 2 C-6.62 2 -11.24 2 -16 2 C-16.103125 3.753125 -16.20625 5.50625 -16.3125 7.3125 C-16.81045425 13.47102238 -18.15867776 19.11703334 -20 25 C-20.66 25 -21.32 25 -22 25 C-21.67 21.7 -21.34 18.4 -21 15 C-25.95 15 -30.9 15 -36 15 C-36.33 17.31 -36.66 19.62 -37 22 C-37.66 22 -38.32 22 -39 22 C-39.25 16.375 -39.25 16.375 -37 13 C-34.2114711 12.77892213 -31.65346819 12.71892465 -28.875 12.8125 C-28.12089844 12.82603516 -27.36679687 12.83957031 -26.58984375 12.85351562 C-24.72625873 12.88890015 -22.86304022 12.94270833 -21 13 C-21 8.71 -21 4.42 -21 0 C-4.86956522 -2.43478261 -4.86956522 -2.43478261 0 0 Z " fill="#8C8C8C" transform="translate(472,44)"/>
<path d="M0 0 C0.66 0.33 1.32 0.66 2 1 C0.02 2.32 -1.96 3.64 -4 5 C-3.38125 5.928125 -2.7625 6.85625 -2.125 7.8125 C2.42318656 15.82827561 2.23283404 25.03588929 2 34 C-3.61 34 -9.22 34 -15 34 C-16.4086158 29.77415261 -17.4236708 26.25123117 -18.125 21.9375 C-18.29257813 20.93589844 -18.46015625 19.93429688 -18.6328125 18.90234375 C-18.97120286 16.22761993 -19.06914506 13.69171839 -19 11 C-21.97 11 -24.94 11 -28 11 C-27.95875 12.258125 -27.9175 13.51625 -27.875 14.8125 C-27.85736668 20.34936163 -28.86894808 25.59720735 -30 31 C-30.66 31 -31.32 31 -32 31 C-31.72283063 27.70694269 -31.42581219 24.4159751 -31.125 21.125 C-31.04636719 20.18785156 -30.96773437 19.25070313 -30.88671875 18.28515625 C-30.80292969 17.38925781 -30.71914062 16.49335937 -30.6328125 15.5703125 C-30.55949707 14.74289551 -30.48618164 13.91547852 -30.41064453 13.06298828 C-30 11 -30 11 -28 9 C-23.791899 8.68828881 -20.52140687 8.54174757 -17 11 C-16.27050781 13.15478516 -16.27050781 13.15478516 -15.953125 15.7890625 C-15.83066406 16.73007813 -15.70820313 17.67109375 -15.58203125 18.640625 C-15.47246094 19.62546875 -15.36289063 20.6103125 -15.25 21.625 C-15.06244141 23.11386719 -15.06244141 23.11386719 -14.87109375 24.6328125 C-14.56437621 27.08655284 -14.28006401 29.54307479 -14 32 C-7.07 32.495 -7.07 32.495 0 33 C-0.5422498 19.73752984 -0.5422498 19.73752984 -4 7 C-4.99 6.67 -5.98 6.34 -7 6 C-4.74259377 3.66475218 -2.7194239 1.81294927 0 0 Z " fill="#7B7B7B" transform="translate(160,73)"/>
<path d="M0 0 C0.33 0 0.66 0 1 0 C1.41005134 6.69750524 0.13718468 12.69166752 -1.34375 19.21875 C-2.2279967 23.67406614 -2.2279967 23.67406614 -2 31 C16.81 31.495 16.81 31.495 36 32 C36.33 28.04 36.66 24.08 37 20 C29.08 20 21.16 20 13 20 C13.33 17.36 13.66 14.72 14 12 C14.66 12.33 15.32 12.66 16 13 C15.67 14.65 15.34 16.3 15 18 C16.97033203 17.98259766 16.97033203 17.98259766 18.98046875 17.96484375 C20.71614441 17.95546172 22.45182161 17.94636196 24.1875 17.9375 C25.05181641 17.92912109 25.91613281 17.92074219 26.80664062 17.91210938 C31.00286769 17.89603188 34.90936886 17.92440962 39 19 C38.85923685 20.9587043 38.7122324 22.91696093 38.5625 24.875 C38.48128906 25.96554688 38.40007812 27.05609375 38.31640625 28.1796875 C38 31 38 31 37 33 C23.14 33 9.28 33 -5 33 C-3.74592488 21.71332395 -2.43594226 11.01045903 0 0 Z " fill="#797979" transform="translate(168,74)"/>
<path d="M0 0 C0 4.12744343 -1.61750496 5.04694583 -4.4375 8 C-8.84327809 12.68966571 -12.97656276 17.53385449 -17.015625 22.546875 C-18.66452518 24.58527916 -20.34866466 26.57907258 -22.0625 28.5625 C-24.20741471 30.74198614 -24.20741471 30.74198614 -24 33 C-23.16021606 32.99214478 -23.16021606 32.99214478 -22.3034668 32.98413086 C-19.76482263 32.96333309 -17.22619641 32.95033096 -14.6875 32.9375 C-13.36588867 32.92493164 -13.36588867 32.92493164 -12.01757812 32.91210938 C-11.17001953 32.90888672 -10.32246094 32.90566406 -9.44921875 32.90234375 C-8.66893311 32.89710693 -7.88864746 32.89187012 -7.0847168 32.88647461 C-5 33 -5 33 -2 34 C-1.94527912 35.39538254 -1.90688462 36.79140897 -1.875 38.1875 C-1.85179687 38.96480469 -1.82859375 39.74210937 -1.8046875 40.54296875 C-2 43 -2 43 -4 48 C-17.53 48 -31.06 48 -45 48 C-45 47.67 -45 47.34 -45 47 C-31.8 46.67 -18.6 46.34 -5 46 C-4.34 42.37 -3.68 38.74 -3 35 C-10.92 35 -18.84 35 -27 35 C-26 30 -26 30 -25 28 C-24.34 28 -23.68 28 -23 28 C-22.78214844 27.4740625 -22.56429688 26.948125 -22.33984375 26.40625 C-20.49289751 23.08928532 -18.04202609 20.35129337 -15.5625 17.5 C-14.58361102 16.36546639 -13.60572019 15.23007067 -12.62890625 14.09375 C-12.17016113 13.56265625 -11.71141602 13.0315625 -11.23876953 12.484375 C-10.19448967 11.23305029 -9.22608507 9.91897597 -8.27734375 8.59375 C-7.64505859 7.80484375 -7.64505859 7.80484375 -7 7 C-6.34 7 -5.68 7 -5 7 C-4.731875 6.21625 -4.46375 5.4325 -4.1875 4.625 C-3 2 -3 2 0 0 Z " fill="#737373" transform="translate(315,59)"/>
<path d="M0 0 C1.43859375 -0.00386719 1.43859375 -0.00386719 2.90625 -0.0078125 C5.5 0.125 5.5 0.125 8.5 1.125 C8.65569912 7.48920156 8.154039 13.29098927 6.96875 19.53515625 C6.81337769 20.38806747 6.65800537 21.2409787 6.4979248 22.11973572 C6.00602972 24.81041601 5.50321971 27.49891722 5 30.1875 C4.66203288 32.02525698 4.32478653 33.86314666 3.98828125 35.70117188 C3.16717181 40.17735732 2.33627565 44.6516243 1.5 49.125 C2.16 49.125 2.82 49.125 3.5 49.125 C3.5 49.785 3.5 50.445 3.5 51.125 C2.18 51.125 0.86 51.125 -0.5 51.125 C-1.41283331 45.73928348 -1.60523062 43.19534418 0.5 38.125 C1.00728565 35.78089433 1.45973173 33.4246436 1.875 31.0625 C2.12765645 29.65472304 2.38163075 28.24718215 2.63671875 26.83984375 C2.77255371 26.08815918 2.90838867 25.33647461 3.04833984 24.56201172 C3.88019651 20.07358295 4.78635505 15.59994031 5.6875 11.125 C5.95602783 9.78876587 5.95602783 9.78876587 6.22998047 8.42553711 C6.652482 6.32518927 7.07611318 4.22506871 7.5 2.125 C5.20774565 2.23871497 2.91617612 2.36630964 0.625 2.5 C-1.28925781 2.60441406 -1.28925781 2.60441406 -3.2421875 2.7109375 C-6.58061699 2.79741106 -6.58061699 2.79741106 -8.5 5.125 C-8.5 3.805 -8.5 2.485 -8.5 1.125 C-5.41493912 0.09664637 -3.2305728 -0.00868434 0 0 Z " fill="#7F7F7F" transform="translate(31.5,42.875)"/>
<path d="M0 0 C0.33 0 0.66 0 1 0 C0.4459147 7.90245117 -0.95851134 15.5985061 -2.52905273 23.35205078 C-2.94068274 25.3907634 -3.34083837 27.43151574 -3.74023438 29.47265625 C-4.00192243 30.7813865 -4.26426835 32.08998542 -4.52734375 33.3984375 C-4.76187256 34.57067871 -4.99640137 35.74291992 -5.23803711 36.95068359 C-6 40 -6 40 -8 44 C-13.28 44 -18.56 44 -24 44 C-23.67 42.68 -23.34 41.36 -23 40 C-23 40.99 -23 41.98 -23 43 C-18.38 42.67 -13.76 42.34 -9 42 C-8.608125 39.875625 -8.21625 37.75125 -7.8125 35.5625 C-6.37796182 27.88717895 -4.8861138 20.22307584 -3.375 12.5625 C-3.15690674 11.44238525 -2.93881348 10.32227051 -2.71411133 9.16821289 C-2.50681396 8.1239917 -2.2995166 7.07977051 -2.0859375 6.00390625 C-1.9007959 5.06361572 -1.7156543 4.1233252 -1.52490234 3.15454102 C-1 1 -1 1 0 0 Z " fill="#7F7F7F" transform="translate(468,63)"/>
<path d="M0 0 C4.95 0 9.9 0 15 0 C15.32728352 7.96676995 14.08014716 15.36812777 12.625 23.1875 C12.40328125 24.43208984 12.1815625 25.67667969 11.953125 26.95898438 C10.94905899 32.472488 9.87176398 37.7062777 8 43 C7.67 43 7.34 43 7 43 C8.34126277 27.21875928 8.34126277 27.21875928 9.93359375 21.85546875 C11.15953767 17.64444868 11.89929467 13.38340876 12.625 9.0625 C12.7590625 8.28326172 12.893125 7.50402344 13.03125 6.70117188 C13.3575968 4.80136729 13.67928623 2.90076363 14 1 C9.38 1.33 4.76 1.66 0 2 C0 1.34 0 0.68 0 0 Z " fill="#818181" transform="translate(257,44)"/>
<path d="M0 0 C11.22 0 22.44 0 34 0 C34 0.33 34 0.66 34 1 C26.77648171 1.96465491 19.71937932 2.11956114 12.4375 2.0625 C11.33341797 2.05798828 10.22933594 2.05347656 9.09179688 2.04882812 C6.394473 2.0371514 3.69726653 2.02077525 1 2 C0.24633689 5.6606494 -0.38468164 9.30808984 -1 13 C5.6 13 12.2 13 19 13 C19 13.33 19 13.66 19 14 C11.77248543 15.25695906 4.16828842 15.91154358 -3 14 C-2.88512252 12.41590006 -2.75765492 10.83271037 -2.625 9.25 C-2.55539062 8.36828125 -2.48578125 7.4865625 -2.4140625 6.578125 C-2 4 -2 4 0 0 Z " fill="#878787" transform="translate(277,44)"/>
<path d="M0 0 C0.66 0.66 1.32 1.32 2 2 C2.66 1.67 3.32 1.34 4 1 C3.814375 1.598125 3.62875 2.19625 3.4375 2.8125 C2.77906313 5.16408762 2.77906313 5.16408762 4 8 C3.3701366 10.01189377 2.69381334 12.00925454 2 14 C1.21325992 17.27549415 0.54611447 20.57411107 -0.125 23.875 C-0.30675781 24.75414063 -0.48851563 25.63328125 -0.67578125 26.5390625 C-1.12041864 28.69204356 -1.56065556 30.84593261 -2 33 C2.95 33 7.9 33 13 33 C13 33.33 13 33.66 13 34 C7.72 34 2.44 34 -3 34 C-2.42193739 25.23271715 -1.46043607 16.66336345 0 8 C-0.66 9.32 -1.32 10.64 -2 12 C-3.15957207 8.52128379 -2.77456651 7.65780355 -1.5625 4.3125 C-1.13130859 3.10013672 -1.13130859 3.10013672 -0.69140625 1.86328125 C-0.46324219 1.24839844 -0.23507813 0.63351563 0 0 Z " fill="#828282" transform="translate(115,73)"/>
<path d="M0 0 C5.40656997 0.37286689 5.40656997 0.37286689 7.625 2.25 C8.93673302 6.84106556 8.7066883 11.51207861 8.625 16.25 C6.83224134 13.13089144 6.28209282 10.57317572 6 7 C5.92523438 6.10796875 5.85046875 5.2159375 5.7734375 4.296875 C5.72445312 3.62140625 5.67546875 2.9459375 5.625 2.25 C2.655 2.25 -0.315 2.25 -3.375 2.25 C-3.33375 3.508125 -3.2925 4.76625 -3.25 6.0625 C-3.23236668 11.59936163 -4.24394808 16.84720735 -5.375 22.25 C-6.035 22.25 -6.695 22.25 -7.375 22.25 C-7.09783063 18.95694269 -6.80081219 15.6659751 -6.5 12.375 C-6.42136719 11.43785156 -6.34273437 10.50070313 -6.26171875 9.53515625 C-6.17792969 8.63925781 -6.09414062 7.74335937 -6.0078125 6.8203125 C-5.93449707 5.99289551 -5.86118164 5.16547852 -5.78564453 4.31298828 C-5.03846283 0.55931089 -3.68311092 0.27282303 0 0 Z " fill="#818181" transform="translate(135.375,81.75)"/>
<path d="M0 0 C1.07314453 0.00322266 2.14628906 0.00644531 3.25195312 0.00976562 C4.37150391 0.01814453 5.49105469 0.02652344 6.64453125 0.03515625 C8.34125977 0.04192383 8.34125977 0.04192383 10.07226562 0.04882812 C12.86724052 0.06062127 15.66210945 0.07707975 18.45703125 0.09765625 C18.45703125 1.08765625 18.45703125 2.07765625 18.45703125 3.09765625 C9.87703125 3.09765625 1.29703125 3.09765625 -7.54296875 3.09765625 C-7.54296875 4.74765625 -7.54296875 6.39765625 -7.54296875 8.09765625 C-8.20296875 8.09765625 -8.86296875 8.09765625 -9.54296875 8.09765625 C-9.48109375 9.52078125 -9.48109375 9.52078125 -9.41796875 10.97265625 C-9.54296875 14.09765625 -9.54296875 14.09765625 -11.54296875 16.09765625 C-11.90431847 10.31606072 -11.00086912 6.37759037 -8.54296875 1.09765625 C-5.42453625 0.05817875 -3.26821289 -0.01729213 0 0 Z " fill="#939393" transform="translate(132.54296875,42.90234375)"/>
<path d="M0 0 C0.27560214 6.20104812 -0.77100654 11.93184478 -2 18 C-3.58203125 16.91796875 -3.58203125 16.91796875 -5 15 C-4.48130305 10.52135856 -3.16790144 6.36881649 -2 2 C-6.62 2 -11.24 2 -16 2 C-16.33 3.65 -16.66 5.3 -17 7 C-17.66 6.67 -18.32 6.34 -19 6 C-19 4.35 -19 2.7 -19 1 C-19.66 0.67 -20.32 0.34 -21 0 C-4.86956522 -2.43478261 -4.86956522 -2.43478261 0 0 Z " fill="#818181" transform="translate(472,44)"/>
<path d="M0 0 C0.66 0 1.32 0 2 0 C1.38641858 8.80171974 -0.29549385 17.35954742 -2 26 C-3.32 26 -4.64 26 -6 26 C-6.66 22.7 -7.32 19.4 -8 16 C-7.34 15.67 -6.68 15.34 -6 15 C-5.34 16.65 -4.68 18.3 -4 20 C-2.68 13.4 -1.36 6.8 0 0 Z " fill="#8B8B8B" transform="translate(254,53)"/>
<path d="M0 0 C9.9 0 19.8 0 30 0 C30 0.66 30 1.32 30 2 C20.1 2.33 10.2 2.66 0 3 C0 2.01 0 1.02 0 0 Z " fill="#878787" transform="translate(374,43)"/>
<path d="M0 0 C1 2 1 2 0 7 C6.93 7 13.86 7 21 7 C21 10.3 21 13.6 21 17 C20.34 17.66 19.68 18.32 19 19 C18.93941406 18.36191406 18.87882812 17.72382812 18.81640625 17.06640625 C18.69072266 15.82697266 18.69072266 15.82697266 18.5625 14.5625 C18.48128906 13.73878906 18.40007812 12.91507813 18.31640625 12.06640625 C18.21069185 10.01337975 18.21069185 10.01337975 17 9 C15.65984779 8.84417697 14.31241097 8.74955858 12.96484375 8.68359375 C12.15595703 8.64169922 11.34707031 8.59980469 10.51367188 8.55664062 C9.66353516 8.51732422 8.81339844 8.47800781 7.9375 8.4375 C7.08349609 8.39431641 6.22949219 8.35113281 5.34960938 8.30664062 C3.23327963 8.20023298 1.11666187 8.09958269 -1 8 C-2 6 -2 6 -1.0625 2.875 C-0.5365625 1.451875 -0.5365625 1.451875 0 0 Z " fill="#808080" transform="translate(338,61)"/>
<path d="M0 0 C0.99 0 1.98 0 3 0 C2.74605469 0.99257813 2.49210938 1.98515625 2.23046875 3.0078125 C-0.0454335 11.9694549 -2.13199761 20.94301872 -4 30 C-4.33 30 -4.66 30 -5 30 C-4.5406054 19.7784702 -2.21710983 9.95121391 0 0 Z " fill="#888888" transform="translate(174,44)"/>
<path d="M0 0 C1.65 0 3.3 0 5 0 C4.67 0.66 4.34 1.32 4 2 C3.34 2 2.68 2 2 2 C1.34 6.29 0.68 10.58 0 15 C0.99 15 1.98 15 3 15 C3 15.66 3 16.32 3 17 C1.35 16.67 -0.3 16.34 -2 16 C-2.20674944 10.21101581 -1.59162079 5.57067277 0 0 Z " fill="#898989" transform="translate(136,55)"/>
<path d="M0 0 C0.66 0.33 1.32 0.66 2 1 C-0.78464354 4.6097231 -3.77962242 7.77962242 -7 11 C-8.95917499 13.08451952 -10.88706267 15.19683254 -12.8125 17.3125 C-13.31458984 17.86228516 -13.81667969 18.41207031 -14.33398438 18.97851562 C-15.55703968 20.31805239 -16.77867008 21.65888992 -18 23 C-18 18.83048082 -16.27042164 17.80585535 -13.4375 14.8125 C-12.52019647 13.83262706 -11.60353413 12.85215349 -10.6875 11.87109375 C-9.800625 10.92363281 -8.91375 9.97617188 -8 9 C-6.07696967 6.8331569 -4.17555965 4.64946877 -2.27734375 2.4609375 C-1.54167701 1.61953273 -0.79030613 0.79030613 0 0 Z " fill="#838383" transform="translate(288,69)"/>
<path d="M0 0 C0.66 0 1.32 0 2 0 C1.97679688 1.01320313 1.95359375 2.02640625 1.9296875 3.0703125 C1.9109159 4.42186758 1.8927172 5.77343069 1.875 7.125 C1.85824219 7.79015625 1.84148437 8.4553125 1.82421875 9.140625 C1.78152722 13.49516056 2.40003783 16.95600114 4 21 C1 20 1 20 -0.17578125 17.85546875 C-1.12898706 14.55313015 -1.23056671 11.74609107 -1.1875 8.3125 C-1.18105469 7.17425781 -1.17460938 6.03601563 -1.16796875 4.86328125 C-1 2 -1 2 0 0 Z " fill="#868686" transform="translate(70,72)"/>
<path d="M0 0 C0 4.16951918 -1.72957836 5.19414465 -4.5625 8.1875 C-5.47849574 9.16607625 -6.39385581 10.1452479 -7.30859375 11.125 C-8.19675781 12.07375 -9.08492188 13.0225 -10 14 C-11.38292667 15.5554887 -12.75919088 17.11695974 -14.125 18.6875 C-14.68445313 19.33074219 -15.24390625 19.97398438 -15.8203125 20.63671875 C-16.20960938 21.08660156 -16.59890625 21.53648438 -17 22 C-17.66 21.67 -18.32 21.34 -19 21 C-17.82630859 19.73542969 -17.82630859 19.73542969 -16.62890625 18.4453125 C-15.60665175 17.33865166 -14.58452284 16.23187479 -13.5625 15.125 C-13.04623047 14.56941406 -12.52996094 14.01382813 -11.99804688 13.44140625 C-9.17895264 10.45250685 -9.17895264 10.45250685 -7 7 C-6.34 7 -5.68 7 -5 7 C-4.731875 6.21625 -4.46375 5.4325 -4.1875 4.625 C-3 2 -3 2 0 0 Z " fill="#868686" transform="translate(315,59)"/>
<path d="M0 0 C0.99 0.33 1.98 0.66 3 1 C2.67 4.3 2.34 7.6 2 11 C3.98 11 5.96 11 8 11 C7.34 11.66 6.68 12.32 6 13 C3.25684623 12.78898817 1.45206511 12.2863079 -0.875 10.8125 C-2 9 -2 9 -1.75 6 C-1 3 -1 3 0 0 Z " fill="#838383" transform="translate(409,46)"/>
<path d="M0 0 C0.66 0.33 1.32 0.66 2 1 C1.46890625 1.3403125 0.9378125 1.680625 0.390625 2.03125 C-4.35824094 5.28959597 -7.00712501 7.96946648 -9.11328125 13.36328125 C-10 15 -10 15 -13 16 C-11.6684224 10.08187733 -8.34578204 6.07073254 -4 2 C-1.8984375 0.703125 -1.8984375 0.703125 0 0 Z " fill="#8B8B8B" transform="translate(83,55)"/>
<path d="M0 0 C0.66 0 1.32 0 2 0 C2.0825 0.61875 2.165 1.2375 2.25 1.875 C2.79394438 4.17972859 2.79394438 4.17972859 5 5.0625 C5.66 5.371875 6.32 5.68125 7 6 C7.33 6.99 7.66 7.98 8 9 C9.64551962 9.71727778 11.31422289 10.38325228 13 11 C13.66 11.66 14.32 12.32 15 13 C9.16439595 12.22599318 5.93294892 9.19809155 2 5 C0.5 2.0625 0.5 2.0625 0 0 Z " fill="#858585" transform="translate(56,94)"/>
<path d="M0 0 C0 0.99 0 1.98 0 3 C-0.66 3 -1.32 3 -2 3 C-2 4.65 -2 6.3 -2 8 C-2.66 8 -3.32 8 -4 8 C-3.938125 9.423125 -3.938125 9.423125 -3.875 10.875 C-4 14 -4 14 -6 16 C-6.36134972 10.21840447 -5.45790037 6.27993412 -3 1 C-2.01 0.67 -1.02 0.34 0 0 Z " fill="#898989" transform="translate(127,43)"/>
<path d="M0 0 C2.31 0 4.62 0 7 0 C7.12375 0.969375 7.2475 1.93875 7.375 2.9375 C7.58125 3.948125 7.7875 4.95875 8 6 C8.66 6.33 9.32 6.66 10 7 C9.67 8.65 9.34 10.3 9 12 C8.01 11.67 7.02 11.34 6 11 C6 7.7 6 4.4 6 1 C4.02 1 2.04 1 0 1 C0 0.67 0 0.34 0 0 Z " fill="#7D7D7D" transform="translate(357,44)"/>
<path d="M0 0 C4.65078045 0.28186548 7.20117979 2.47603185 10.64453125 5.33203125 C12 7 12 7 12 11 C11.01 10.67 10.02 10.34 9 10 C8.87625 9.38125 8.7525 8.7625 8.625 8.125 C7.71051546 5.01575257 5.76728107 4.51541583 3 3 C1.1875 1.3125 1.1875 1.3125 0 0 Z " fill="#8B8B8B" transform="translate(99,45)"/>
<path d="M0 0 C-4.94475312 2.47237656 -8.47712632 3.37644975 -14 4 C-14 3.34 -14 2.68 -14 2 C-8.77729131 -0.66464729 -5.9180497 -1.32854177 0 0 Z M-8 3 C-7.34 3 -6.68 3 -6 3 C-6.33 3.66 -6.66 4.32 -7 5 C-7.33 4.34 -7.66 3.68 -8 3 Z " fill="#909090" transform="translate(88,43)"/>
<path d="M0 0 C0.33 0 0.66 0 1 0 C0.67 3.63 0.34 7.26 0 11 C0.66 11 1.32 11 2 11 C2 11.66 2 12.32 2 13 C0.68 13 -0.64 13 -2 13 C-2.33 10.36 -2.66 7.72 -3 5 C-2.01 4.67 -1.02 4.34 0 4 C0 2.68 0 1.36 0 0 Z " fill="#8D8D8D" transform="translate(33,81)"/>
<path d="M0 0 C0.99 0.33 1.98 0.66 3 1 C-0.12471476 4.30326989 -3.0528386 6.7597192 -7 9 C-7.66 9.66 -8.32 10.32 -9 11 C-8.44848637 7.23132354 -6.9602745 5.65408496 -4.125 3.1875 C-3.42632812 2.56230469 -2.72765625 1.93710937 -2.0078125 1.29296875 C-1.34523438 0.86628906 -0.68265625 0.43960938 0 0 Z " fill="#8D8D8D" transform="translate(70,47)"/>
<path d="M0 0 C0.66 0 1.32 0 2 0 C1.88590318 2.10478604 1.75834639 4.20884577 1.625 6.3125 C1.52058594 8.07013672 1.52058594 8.07013672 1.4140625 9.86328125 C1 13 1 13 -1 16 C-2.26823485 12.34606463 -1.75715321 9.50929974 -1.0625 5.75 C-0.86785156 4.67234375 -0.67320312 3.5946875 -0.47265625 2.484375 C-0.31667969 1.66453125 -0.16070312 0.8446875 0 0 Z " fill="#898989" transform="translate(413,79)"/>
<path d="M0 0 C0.66 0 1.32 0 2 0 C1.47462276 5.0302076 0.89405214 10.01885239 0 15 C-1.58203125 13.88671875 -1.58203125 13.88671875 -3 12 C-2.63671875 9.08203125 -2.63671875 9.08203125 -1.6875 5.8125 C-1.38199219 4.72582031 -1.07648438 3.63914063 -0.76171875 2.51953125 C-0.51035156 1.68808594 -0.25898438 0.85664062 0 0 Z " fill="#878787" transform="translate(470,47)"/>
<path d="M0 0 C0.28875 0.639375 0.5775 1.27875 0.875 1.9375 C1.82823451 4.15206079 1.82823451 4.15206079 4 5 C4 5.99 4 6.98 4 8 C3.34 8 2.68 8 2 8 C1.67 8.66 1.34 9.32 1 10 C0.63883954 8.5225254 0.28624952 7.04295325 -0.0625 5.5625 C-0.25972656 4.73878906 -0.45695313 3.91507812 -0.66015625 3.06640625 C-0.82837891 2.04353516 -0.82837891 2.04353516 -1 1 C-0.67 0.67 -0.34 0.34 0 0 Z " fill="#7F7F7F" transform="translate(247,68)"/>
<path d="M0 0 C3.00617269 3.00617269 2.59585316 5.82381598 3 10 C2.01 10 1.02 10 0 10 C0 6.7 0 3.4 0 0 Z " fill="#787878" transform="translate(187,59)"/>
<path d="M0 0 C0.66 0 1.32 0 2 0 C2 2.64 2 5.28 2 8 C1.34 8 0.68 8 0 8 C-0.33 8.99 -0.66 9.98 -1 11 C-0.67 7.37 -0.34 3.74 0 0 Z " fill="#747474" transform="translate(263,88)"/>
<path d="M0 0 C0.66 0.66 1.32 1.32 2 2 C-0.64 4.64 -3.28 7.28 -6 10 C-6 6.41087588 -5.33563446 5.89142971 -3 3.3125 C-2.443125 2.68988281 -1.88625 2.06726563 -1.3125 1.42578125 C-0.879375 0.95527344 -0.44625 0.48476562 0 0 Z " fill="#8B8B8B" transform="translate(276,82)"/>
<path d="M0 0 C0.99 0 1.98 0 3 0 C2.40138258 2.35171131 1.73075648 4.6859378 1 7 C0.01 7.495 0.01 7.495 -1 8 C-0.67 5.36 -0.34 2.72 0 0 Z " fill="#909090" transform="translate(174,44)"/>
</svg>
