<svg xmlns="http://www.w3.org/2000/svg" xmlns:xlink="http://www.w3.org/1999/xlink" id="Layer_1" x="0px" y="0px" viewBox="0 0 830.2 116.9" style="enable-background:new 0 0 830.2 116.9;" xml:space="preserve"> <style type="text/css"> .st0{fill:#999999;} </style> <path id="path214-9-9-8" class="st0" d="M21.8,1.8h28.9L33.8,90H77l-4.8,25H0L21.8,1.8z"></path> <path id="path234-9-1-1" class="st0" d="M351.2,69.2h-40.3l-4.2,21.5h45.4l-4.8,24.3H273L294.8,1.8h71.9L362,26.2h-42.9L315.4,45 H356L351.2,69.2z"></path> <path id="path250-5-7-8" class="st0" d="M454.6,98.8L516.1,27v-0.5h-43l4.8-24.7H560l-3.4,17.6l-60,70.4v0.5h47.3l-4.6,24.7h-87.7 L454.6,98.8z"></path> <path id="path254-1-2-1" class="st0" d="M622.2,69.2h-40.3l-4.3,21.5H623l-4.8,24.3H544L565.8,1.8h71l-3.8,25h-42.8L586.4,45H627 L622.2,69.2z"></path> <path id="path258-0-2-7" class="st0" d="M665.5,26.9h-28.7l4.9-25h75.5l-4.9,25h-17.7l-16.8,88.2h-28.9L665.5,26.9z"></path> <path id="path262-8-4-0" class="st0" d="M734.1,26.9h-16.9l4.9-25h75.2l-4.9,25h-29.2l-16.8,88.2h-28.9L734.1,26.9z"></path> <path id="path266-9-6-5" class="st0" d="M830.2,1.8L808.4,115h-28.9L801.3,1.8H830.2z"></path> <path id="path226-9-8-0" class="st0" d="M122.1,116.9c-29.8,0-47.8-20.3-47.8-47.7c0-20.7,7.6-40.2,20.9-52.8 c11-10.4,26-16.5,43.3-16.5c30.1,0,47.6,19.3,47.6,47.7c0,20.8-7.3,40.3-20.2,52.8c-11,10.4-26,16.5-43.7,16.5 C122.2,116.9,122.1,116.9,122.1,116.9z M126.5,93.1c6,0,11.7-2.7,16-6.9c8.3-8.2,12.8-25.9,12.8-37.8c0-13.3-5.1-24.5-20.1-24.5 c-6.6,0-12.4,2.7-17,7.2c-8.2,8.2-12.9,24.7-12.9,37.5c0,14.8,6.8,24.5,21.1,24.5H126.5z"></path> <path id="path230-4-7-4" class="st0" d="M202,4c8-1.8,20.6-3,33.1-3c10.5,0,22.4,1,31.3,5.9c8.2,4.2,14.4,11.8,14.4,23.5 c0,16.8-10.5,26.6-25.3,31.6l-0.2,0.7c6.3,3.2,9,10.1,10.2,19.8c1.5,11.4,2.6,27.9,4.8,32.6h-29.8c-1-3.4-2.2-12.1-3.5-26.5 c-1-12.9-5.5-16.1-14.3-16.1h-5.3l-8.1,42.7h-28.7L202,4z M221.5,51.1h9c11.4,0,20.2-6.4,20.2-16.3c0-7.7-7.1-11.3-15.5-11.3 c-4.1,0-6.8,0.3-8.5,0.7L221.5,51.1z"></path> <path id="path246-8-5-2" class="st0" d="M353.8,115.1L375.4,1.8h34.5l10.4,34.3c4.4,15,7.8,28.1,10.5,41.7h0.5 c0.5-12.3,2.4-25.9,5.4-42.8L443,1.8h27L448.4,115H418l-11.6-37c-4.8-16-8.2-27.2-11.4-42.3h-0.5c-1.4,11.3-4.4,29.2-8,48l-5.9,31.2 h-26.8L353.8,115.1L353.8,115.1z"></path> </svg>