<?xml version="1.0" encoding="UTF-8"?>
<svg version="1.1" xmlns="http://www.w3.org/2000/svg" width="482" height="142">
<path d="M0 0 C0.77821106 -0.00570007 1.55642212 -0.01140015 2.35821533 -0.01727295 C4.00572351 -0.02671556 5.65325052 -0.033254 7.30078125 -0.03710938 C9.80502912 -0.04678576 12.30844571 -0.077803 14.8125 -0.109375 C16.41666182 -0.11590853 18.02082948 -0.12115763 19.625 -0.125 C20.36691589 -0.1373468 21.10883179 -0.1496936 21.87322998 -0.16241455 C27.64475295 -0.13803728 32.33123002 1.00560902 36.953125 4.703125 C39.09252461 7.55565782 39.19875668 10.22900531 39.17578125 13.65234375 C39.17094727 14.92368164 39.17094727 14.92368164 39.16601562 16.22070312 C39.15344727 17.54231445 39.15344727 17.54231445 39.140625 18.890625 C39.13611328 19.78330078 39.13160156 20.67597656 39.12695312 21.59570312 C39.11517483 23.79824487 39.09872664 26.00065099 39.078125 28.203125 C40.00625 27.39875 40.934375 26.594375 41.890625 25.765625 C46.40652682 21.85184342 51.06859114 21.91569541 56.828125 21.640625 C57.66835205 21.5981665 58.5085791 21.55570801 59.37426758 21.51196289 C66.9471581 21.15618951 74.49818355 21.10115269 82.078125 21.203125 C82.078125 19.883125 82.078125 18.563125 82.078125 17.203125 C81.15999023 17.21359863 80.24185547 17.22407227 79.29589844 17.23486328 C75.88164754 17.26899715 72.46757862 17.2940491 69.05322266 17.31298828 C67.57695653 17.32303091 66.10071021 17.33666765 64.62451172 17.35400391 C62.49962466 17.37832921 60.37500115 17.3896254 58.25 17.3984375 C56.9722168 17.40891113 55.69443359 17.41938477 54.37792969 17.43017578 C51.30343201 17.21862778 49.64074148 16.83439408 47.078125 15.203125 C47.078125 14.543125 47.078125 13.883125 47.078125 13.203125 C46.43875 12.914375 45.799375 12.625625 45.140625 12.328125 C43.078125 11.203125 43.078125 11.203125 42.078125 9.203125 C41.89108096 6.51299161 41.99231109 3.90626323 42.078125 1.203125 C43.64556107 -0.36431107 45.2008507 0.05264252 47.37915039 0.02612305 C48.29422867 0.01328781 49.20930695 0.00045258 50.15211487 -0.01277161 C51.64882973 -0.02385201 51.64882973 -0.02385201 53.17578125 -0.03515625 C54.19860703 -0.043228 55.2214328 -0.05129974 56.2752533 -0.05961609 C58.44837742 -0.07348082 60.62152355 -0.08419222 62.79467773 -0.09204102 C66.10247965 -0.10917738 69.40926241 -0.15303337 72.71679688 -0.19726562 C74.82811765 -0.20739891 76.93944693 -0.21591302 79.05078125 -0.22265625 C80.52624168 -0.24891838 80.52624168 -0.24891838 82.0315094 -0.27571106 C88.00790688 -0.25705398 93.2749204 0.34653015 98.078125 4.203125 C101.40175045 9.73904541 100.77956725 16.02773374 99.42578125 22.15625 C97.4195171 28.45919146 94.8290182 32.77171887 89.078125 36.203125 C85.22055702 38.01601276 82.07279212 38.48341894 77.82421875 38.58203125 C76.64021484 38.61619141 75.45621094 38.65035156 74.23632812 38.68554688 C73.00849609 38.71197266 71.78066406 38.73839844 70.515625 38.765625 C68.07672601 38.82560839 65.63791356 38.88925281 63.19921875 38.95703125 C62.1208374 38.98095947 61.04245605 39.0048877 59.93139648 39.02954102 C57.46808156 39.17940128 55.3932957 39.36103014 53.078125 40.203125 C52.03839316 42.33639336 52.03839316 42.33639336 51.078125 45.203125 C48.3082034 51.06134999 45.69548626 55.78865051 40.078125 59.203125 C37.26941092 59.58913272 34.93311409 59.44924475 32.078125 59.203125 C31.583125 56.233125 31.583125 56.233125 31.078125 53.203125 C30.665625 53.61304688 30.253125 54.02296875 29.828125 54.4453125 C29.250625 54.98414063 28.673125 55.52296875 28.078125 56.078125 C27.52125 56.61179688 26.964375 57.14546875 26.390625 57.6953125 C19.43528635 62.23038128 10.78255475 61.60689355 2.77929688 61.62866211 C0.71363794 61.64056442 -1.34903069 61.68986175 -3.4140625 61.74023438 C-11.49182733 61.83857639 -18.26417374 61.14845826 -24.921875 56.203125 C-30.79381052 46.7176907 -25.85822293 29.87110605 -23.57226562 19.68408203 C-21.51320743 11.82967162 -17.66980138 5.70174259 -10.921875 1.203125 C-7.24669319 -0.0219356 -3.82898044 0.02169656 0 0 Z M-4.921875 19.203125 C-4.921875 19.863125 -4.921875 20.523125 -4.921875 21.203125 C-5.581875 21.203125 -6.241875 21.203125 -6.921875 21.203125 C-8.78151125 28.17676095 -9.688473 34.97681147 -8.921875 42.203125 C-5.57156177 45.55343823 -1.15963563 44.65436132 3.390625 44.703125 C4.34130859 44.744375 5.29199219 44.785625 6.27148438 44.828125 C11.33477655 44.97236936 11.33477655 44.97236936 15.82568359 42.97265625 C20.39831842 37.75054614 20.21639296 32.55076552 20.140625 25.953125 C20.13611328 25.20804688 20.13160156 24.46296875 20.12695312 23.6953125 C20.11521746 21.8645486 20.0972835 20.03382627 20.078125 18.203125 C16.43914549 16.38363524 12.14653212 17.01842047 8.140625 17.015625 C7.22087891 17.00337891 6.30113281 16.99113281 5.35351562 16.97851562 C4.46986328 16.97658203 3.58621094 16.97464844 2.67578125 16.97265625 C1.86633057 16.96854736 1.05687988 16.96443848 0.22290039 16.96020508 C-2.21965407 17.07120183 -2.21965407 17.07120183 -4.921875 19.203125 Z M37.078125 29.203125 C38.078125 31.203125 38.078125 31.203125 38.078125 31.203125 Z " fill="#828282" transform="translate(40.921875,32.796875)"/>
<path d="M0 0 C19.14 0 38.28 0 58 0 C58.495 1.98 58.495 1.98 59 4 C59.52505127 3.71415039 60.05010254 3.42830078 60.59106445 3.13378906 C70.94443528 -1.57275569 82.0641532 -0.43384264 93.1875 -0.25 C95.30532167 -0.22990589 97.42316173 -0.21166027 99.54101562 -0.1953125 C104.69446961 -0.15154425 109.84702936 -0.08267648 115 0 C116.15653436 3.46960308 115.66255115 4.91014959 114.12890625 8.15625 C111.66716079 12.17681699 108.4290288 15.1927793 103.90698242 16.69555664 C96.7031926 18.14976392 89.70562723 18.23124097 82.375 18.125 C80.58255859 18.11146484 80.58255859 18.11146484 78.75390625 18.09765625 C75.83572166 18.07431077 72.91797224 18.04156656 70 18 C70 19.32 70 20.64 70 22 C71.39412109 21.96519531 71.39412109 21.96519531 72.81640625 21.9296875 C88.36486486 21.7027027 88.36486486 21.7027027 93.4375 26.125 C95.57912964 30.06559854 95.37058737 32.55295162 95 37 C94 38 94 38 91.31616211 38.11352539 C90.14835205 38.10828857 88.98054199 38.10305176 87.77734375 38.09765625 C86.51728516 38.09443359 85.25722656 38.09121094 83.95898438 38.08789062 C82.61848891 38.07953403 81.27799412 38.07106907 79.9375 38.0625 C78.59310058 38.0574866 77.2486994 38.05292342 75.90429688 38.04882812 C72.60282059 38.03699488 69.30143197 38.02050971 66 38 C66 39.65 66 41.3 66 43 C66.98097656 42.98839844 67.96195312 42.97679687 68.97265625 42.96484375 C97.30174725 42.73504331 97.30174725 42.73504331 101.60546875 46.34765625 C104.64735012 49.64490544 106.39959071 51.83083994 106.375 56.4375 C106.189375 58.2009375 106.189375 58.2009375 106 60 C101.27732888 61.19458263 96.66271692 61.17881658 91.82421875 61.203125 C90.94022903 61.20882507 90.05623932 61.21452515 89.14546204 61.22039795 C87.27870878 61.22982241 85.41193907 61.23637175 83.54516602 61.24023438 C80.70754592 61.2499315 77.87065323 61.28097551 75.03320312 61.3125 C73.21354594 61.31903187 71.3938836 61.32428162 69.57421875 61.328125 C68.31444466 61.3466452 68.31444466 61.3466452 67.02922058 61.36553955 C60.8409357 61.34244359 54.64757277 60.64757277 50.0625 56.0625 C45.31988132 46.85624022 49.1007383 33.37143593 50.98339844 23.63598633 C51.62097845 20.32489952 52 17.39148361 52 14 C51.175 14.45375 50.35 14.9075 49.5 15.375 C46.75132908 16.65116864 44.70248393 17.3696523 41.8125 18 C37.60606835 19.00816099 37.60606835 19.00816099 35 22 C34.20046056 24.54265301 33.55876395 26.96750782 33 29.5625 C32.74682007 30.67467896 32.74682007 30.67467896 32.48852539 31.80932617 C31.07575764 38.19385964 30.0029054 44.63018911 29.12695312 51.10961914 C28.04776858 58.43135661 28.04776858 58.43135661 25 61 C22.15234375 61.42578125 22.15234375 61.42578125 18.9375 61.3125 C17.34228516 61.27576172 17.34228516 61.27576172 15.71484375 61.23828125 C13 61 13 61 11 60 C10.70524186 52.54302844 11.57302283 45.6834371 13 38.375 C14.27170217 31.8102672 15.25454773 25.69778721 15 19 C14.26394531 18.78085937 13.52789062 18.56171875 12.76953125 18.3359375 C2.1005326 14.86886528 2.1005326 14.86886528 -1 9 C-0.67 6.03 -0.34 3.06 0 0 Z " fill="#818181" transform="translate(282,33)"/>
<path d="M0 0 C1.47118538 0.0001133 1.47118538 0.0001133 2.97209167 0.00022888 C4.028423 0.00539017 5.08475433 0.01055145 6.1730957 0.01586914 C7.79813774 0.01799156 7.79813774 0.01799156 9.45600891 0.02015686 C12.9203262 0.0257598 16.38457915 0.03831281 19.84887695 0.05102539 C22.19588123 0.05604001 24.54288652 0.06060298 26.88989258 0.06469727 C32.64707603 0.07573018 38.4042219 0.09247119 44.16137695 0.11352539 C43.37372618 6.10053917 42.58590481 9.89656798 38.16137695 14.11352539 C29.86493273 18.87919775 19.95620862 18.24725406 10.72387695 18.17602539 C9.61077148 18.17151367 8.49766602 18.16700195 7.35083008 18.16235352 C4.62095595 18.15063732 1.89119522 18.13423238 -0.83862305 18.11352539 C-0.83862305 19.10352539 -0.83862305 20.09352539 -0.83862305 21.11352539 C0.15137695 21.13930664 1.14137695 21.16508789 2.16137695 21.19165039 C9.59216923 21.47473715 15.85509115 21.78568219 22.16137695 26.11352539 C24.45146175 29.78971414 24.40444196 32.81937698 24.16137695 37.11352539 C22.3574282 38.91747414 19.59459896 38.35058328 17.1574707 38.42993164 C15.9425293 38.47182617 14.72758789 38.5137207 13.47583008 38.55688477 C12.19643555 38.59620117 10.91704102 38.63551758 9.59887695 38.67602539 C8.31561523 38.71920898 7.03235352 38.76239258 5.71020508 38.80688477 C2.52737842 38.91337339 -0.65552978 39.01538501 -3.83862305 39.11352539 C-3.50862305 40.10352539 -3.17862305 41.09352539 -2.83862305 42.11352539 C-1.95509155 42.15110962 -1.95509155 42.15110962 -1.05371094 42.18945312 C1.66396366 42.306849 4.38141038 42.42891254 7.09887695 42.55102539 C8.48816406 42.61 8.48816406 42.61 9.90551758 42.67016602 C14.32034915 42.8715443 18.73117999 43.1100676 23.1340332 43.49633789 C23.82891846 43.5557959 24.52380371 43.61525391 25.23974609 43.67651367 C28.76826187 44.4789585 30.67205121 46.5619665 33.16137695 49.11352539 C34.7686333 52.32803808 34.2188588 55.54965075 34.16137695 59.11352539 C31.40911565 60.03094583 29.73292591 60.24893496 26.89282227 60.2746582 C25.60568329 60.28906952 25.60568329 60.28906952 24.2925415 60.30377197 C23.36753845 60.30802185 22.4425354 60.31227173 21.48950195 60.31665039 C20.05583282 60.3252005 20.05583282 60.3252005 18.59320068 60.33392334 C16.56906236 60.34337171 14.54490866 60.34990668 12.52075195 60.35375977 C9.43714211 60.36344447 6.35420478 60.39446093 3.27075195 60.42602539 C1.3020059 60.43255782 -0.66674491 60.43780735 -2.63549805 60.44165039 C-3.55240417 60.45399719 -4.4693103 60.46634399 -5.41400146 60.47906494 C-11.73223648 60.4572875 -16.56395573 59.62410367 -21.71362305 55.67602539 C-26.07251602 49.62200737 -23.44967127 39.95145749 -22.3605957 33.11108398 C-21.78308628 29.77131257 -21.16408812 26.44225862 -20.52612305 23.11352539 C-20.3255127 22.02724854 -20.12490234 20.94097168 -19.91821289 19.82177734 C-18.42736451 12.38197047 -17.01065493 7.50873314 -10.77612305 2.80102539 C-6.96914966 0.61404068 -4.31287459 -0.01108708 0 0 Z " fill="#7F7F7F" transform="translate(163.838623046875,32.886474609375)"/>
<path d="M0 0 C2.38634025 -0.07461769 4.77149232 -0.12208567 7.15869141 -0.15869141 C7.87541016 -0.1800415 8.59212891 -0.2013916 9.33056641 -0.22338867 C15.53991409 -0.26328518 20.99982991 1.0635248 25.90869141 5.09130859 C29.01863792 9.07204014 28.7186791 13.27025383 28.47119141 18.09130859 C28.11531523 20.76690819 27.71776184 23.37977132 27.22900391 26.02880859 C27.10057098 26.75318115 26.97213806 27.47755371 26.83981323 28.22387695 C26.56897269 29.7437446 26.29485375 31.26303143 26.01757812 32.78173828 C25.59749336 35.08417272 25.18777967 37.38826672 24.77978516 39.69287109 C24.51346409 41.17995892 24.24655641 42.66694183 23.97900391 44.15380859 C23.79762375 45.16979126 23.79762375 45.16979126 23.61257935 46.20629883 C22.75303375 50.89386353 21.66319304 55.48009364 20.47119141 60.09130859 C17.50119141 60.09130859 14.53119141 60.09130859 11.47119141 60.09130859 C11.47119141 59.43130859 11.47119141 58.77130859 11.47119141 58.09130859 C10.81119141 58.09130859 10.15119141 58.09130859 9.47119141 58.09130859 C9.47119141 57.43130859 9.47119141 56.77130859 9.47119141 56.09130859 C8.48119141 55.76130859 7.49119141 55.43130859 6.47119141 55.09130859 C6.16584034 42.94512169 7.08715245 31.15221948 8.47119141 19.09130859 C4.67890997 19.20082975 0.887653 19.331541 -2.90380859 19.46630859 C-3.98404297 19.49724609 -5.06427734 19.52818359 -6.17724609 19.56005859 C-7.20849609 19.59873047 -8.23974609 19.63740234 -9.30224609 19.67724609 C-10.73189697 19.72437744 -10.73189697 19.72437744 -12.19042969 19.77246094 C-14.71776035 19.87686656 -14.71776035 19.87686656 -16.52880859 22.09130859 C-17.20809619 24.70060404 -17.20809619 24.70060404 -17.67724609 27.76318359 C-17.87833984 28.90271484 -18.07943359 30.04224609 -18.28662109 31.21630859 C-18.69527488 33.61650299 -19.0989917 36.01754361 -19.49755859 38.41943359 C-20.59496479 44.58713424 -21.46321128 49.25284525 -25.52880859 54.09130859 C-26.61162109 55.48349609 -26.61162109 55.48349609 -27.71630859 56.90380859 C-31.55197241 59.88710268 -34.80911485 59.90580287 -39.52880859 60.09130859 C-39.91026257 51.43923896 -38.65996684 43.31411267 -37.18505859 34.82275391 C-36.7788726 32.46667986 -36.39541973 30.10762174 -36.01318359 27.74755859 C-34.24597544 17.19941738 -32.64696395 8.63259396 -23.52880859 2.09130859 C-20.25974163 0.45677511 -16.62881835 0.70022076 -13.02880859 0.52880859 C-12.18600342 0.48852539 -11.34319824 0.44824219 -10.47485352 0.40673828 C-6.98385928 0.25200197 -3.49212284 0.12609132 0 0 Z " fill="#818181" transform="translate(246.52880859375,31.90869140625)"/>
<path d="M0 0 C-0.66 5.94 -1.32 11.88 -2 18 C3.00926478 14.33250257 7.70717671 10.56649972 12.23828125 6.3203125 C14 5 14 5 17 5 C17.33 4.01 17.66 3.02 18 2 C23.80747885 -0.98670341 29.96280658 -1.12299239 36.375 -1.0625 C38.24285156 -1.04896484 38.24285156 -1.04896484 40.1484375 -1.03515625 C41.55996094 -1.01775391 41.55996094 -1.01775391 43 -1 C43 3 43 3 41.41796875 4.82421875 C40.31388672 5.74654297 40.31388672 5.74654297 39.1875 6.6875 C38.36894531 7.37972656 37.55039062 8.07195313 36.70703125 8.78515625 C35.81371094 9.51605469 34.92039062 10.24695313 34 11 C33.07574219 11.76183594 32.15148437 12.52367187 31.19921875 13.30859375 C29.33375986 14.83863126 27.46403405 16.36348291 25.58984375 17.8828125 C23.34018916 19.72189665 21.13054211 21.59419625 18.9375 23.5 C16 26 16 26 14 27 C13.14242021 28.85089313 13.14242021 28.85089313 13 31 C13.77531571 32.81373666 13.77531571 32.81373666 15.125 34.4375 C15.5890625 35.04207031 16.053125 35.64664063 16.53125 36.26953125 C17.82056518 37.78859143 19.21612146 39.21612146 20.625 40.625 C23.31146336 43.31146336 26 46.03605497 26 50 C26.598125 50.226875 27.19625 50.45375 27.8125 50.6875 C30.62174735 52.37304841 31.63293699 54.05002192 33 57 C32.67 57.99 32.34 58.98 32 60 C13.95266541 60.92287506 13.95266541 60.92287506 8.98046875 57.04296875 C4.03314474 51.93951617 -0.52200295 46.5153997 -5 41 C-6.75037626 43.62556439 -7.99622913 46.08629437 -9.3125 48.9375 C-11.34352659 52.98774489 -12.88905646 55.80112322 -17 58 C-19.70281642 58.57989531 -22.22662944 58.81197488 -25 59 C-25.89645847 56.04064708 -26.0297554 53.84070106 -25.58203125 50.7890625 C-25.4641626 49.96672119 -25.34629395 49.14437988 -25.22485352 48.29711914 C-25.08877686 47.41531982 -24.9527002 46.53352051 -24.8125 45.625 C-24.67448975 44.70904053 -24.53647949 43.79308105 -24.39428711 42.84936523 C-23.9416071 39.89755084 -23.47225747 36.94874124 -23 34 C-22.84337891 32.99694824 -22.68675781 31.99389648 -22.52539062 30.96044922 C-22.05597225 27.99113848 -21.56336054 25.02665417 -21.0625 22.0625 C-20.91723877 21.1461377 -20.77197754 20.22977539 -20.62231445 19.28564453 C-19.24220818 11.44535776 -16.03458787 6.29866252 -10 1 C-5.84689942 -1.28420532 -4.97870355 -0.99574071 0 0 Z " fill="#828282" transform="translate(422,34)"/>
<path d="M0 0 C0.99 0 1.98 0 3 0 C3 0.99 3 1.98 3 3 C3.66 3 4.32 3 5 3 C5 3.99 5 4.98 5 6 C5.66 6 6.32 6 7 6 C7.33 5.01 7.66 4.02 8 3 C9.32 3 10.64 3 12 3 C12.66 3.66 13.32 4.32 14 5 C14.99 4.34 15.98 3.68 17 3 C23.45283019 3.45283019 23.45283019 3.45283019 26 6 C26.66 5.01 27.32 4.02 28 3 C30.27734375 2.6015625 30.27734375 2.6015625 32.9375 2.625 C34.25041016 2.61339844 34.25041016 2.61339844 35.58984375 2.6015625 C38.38440081 3.06354762 39.25774945 3.82649931 41 6 C41.5259375 5.2575 41.5259375 5.2575 42.0625 4.5 C44.94374289 2.26936034 47.47009026 2.80019379 51 3 C53 8.75 53 8.75 53 11 C56.465 10.505 56.465 10.505 60 10 C60 12.64 60 15.28 60 18 C58.02 18.99 58.02 18.99 56 20 C55.34 18.02 54.68 16.04 54 14 C53.46375 14.495 52.9275 14.99 52.375 15.5 C49.36278626 17.40245078 47.50337981 17.38080215 44 17 C43.34 16.34 42.68 15.68 42 15 C41.34 15.66 40.68 16.32 40 17 C37.21697081 17.20872719 35.51281795 17.25640898 33 16 C31.32345271 16.27942455 29.65391846 16.60828247 28 17 C27.34 16.01 26.68 15.02 26 14 C25.484375 14.515625 24.96875 15.03125 24.4375 15.5625 C21.01245914 17.58239589 18.81009568 16.76201914 15 16 C11.9259624 15.92672567 11.9259624 15.92672567 8.625 16.5 C2.734375 17.3125 2.734375 17.3125 0 17 C-2.18994248 13.71508627 -2.35277339 12.16904361 -2.625 8.3125 C-2.69976562 7.31863281 -2.77453125 6.32476562 -2.8515625 5.30078125 C-2.90054687 4.54152344 -2.94953125 3.78226562 -3 3 C-2.34 3 -1.68 3 -1 3 C-0.67 2.01 -0.34 1.02 0 0 Z M5 8 C5 9.32 5 10.64 5 12 C5.33 10.68 5.66 9.36 6 8 C5.67 8 5.34 8 5 8 Z " fill="#767676" transform="translate(323,100)"/>
<path d="M0 0 C0.99 0.66 1.98 1.32 3 2 C2.773125 2.7425 2.54625 3.485 2.3125 4.25 C1.76632054 6.98621903 1.76632054 6.98621903 3 9.25 C5.81209074 11.7105794 8.35027177 11.72454881 12 12 C12.0825 11.13375 12.165 10.2675 12.25 9.375 C13.12997347 5.41511939 14.36254686 3.07702866 17 0 C19.5 -0.75 19.5 -0.75 22 0 C25.26417577 3.80820506 26.52723379 7.03595477 27 12 C28.98 11.67 30.96 11.34 33 11 C33 13.31 33 15.62 33 18 C32.236875 17.814375 31.47375 17.62875 30.6875 17.4375 C27.91032625 16.77180827 27.91032625 16.77180827 25 18 C24.01 17.67 23.02 17.34 22 17 C22 16.34 22 15.68 22 15 C21.113125 15.495 20.22625 15.99 19.3125 16.5 C16.06937756 17.96858375 14.4642734 18.28088703 11 18 C10.01 18 9.02 18 8 18 C7.175 17.62875 6.35 17.2575 5.5 16.875 C4.2625 16.441875 4.2625 16.441875 3 16 C2.01 16.66 1.02 17.32 0 18 C-3.44771821 18.02048149 -6.89925406 17.55037297 -10 16 C-9.979375 14.865625 -9.95875 13.73125 -9.9375 12.5625 C-9.58422523 9.18424326 -9.58422523 9.18424326 -11 8 C-11.375 5.625 -11.375 5.625 -11 3 C-7.47217641 -0.009026 -4.54932301 -0.49449163 0 0 Z " fill="#747474" transform="translate(402,99)"/>
<path d="M0 0 C0.99 0.66 1.98 1.32 3 2 C3.125 4.5625 3.125 4.5625 3 7 C3.33 7.33 3.66 7.66 4 8 C4.350625 7.34 4.70125 6.68 5.0625 6 C7 4 7 4 10.375 3.5 C14.46426872 4.06403706 16.07741131 5.1659746 19 8 C19.33 5.36 19.66 2.72 20 0 C21.32 0 22.64 0 24 0 C26.28571429 13.42857143 26.28571429 13.42857143 24 18 C22.68 18 21.36 18 20 18 C19.505 15.525 19.505 15.525 19 13 C18.319375 13.845625 17.63875 14.69125 16.9375 15.5625 C14 18 14 18 10.375 18 C7.22204601 17.06579141 5.91231569 16.58725064 4 14 C3.54625 14.474375 3.0925 14.94875 2.625 15.4375 C0.33092673 17.64333968 -0.71466579 17.98178718 -3.9375 18.1875 C-7 18 -7 18 -10 16 C-10.3984375 13.06640625 -10.3984375 13.06640625 -10.375 9.5625 C-10.38273437 8.40878906 -10.39046875 7.25507812 -10.3984375 6.06640625 C-10 3 -10 3 -8.6953125 1.109375 C-5.86543098 -0.74243687 -3.27149859 -0.29209809 0 0 Z " fill="#616161" transform="translate(280,99)"/>
<path d="M0 0 C2.6875 0.4375 2.6875 0.4375 4.9375 3.0625 C6.63317069 6.33272205 7.34083299 8.79749644 7.6875 12.4375 C9.6675 12.1075 11.6475 11.7775 13.6875 11.4375 C13.6875 13.7475 13.6875 16.0575 13.6875 18.4375 C12.924375 18.251875 12.16125 18.06625 11.375 17.875 C8.59782625 17.20930827 8.59782625 17.20930827 5.6875 18.4375 C4.6975 18.1075 3.7075 17.7775 2.6875 17.4375 C2.6875 16.7775 2.6875 16.1175 2.6875 15.4375 C1.800625 15.9325 0.91375 16.4275 0 16.9375 C-3.18836238 18.38128674 -4.89437546 18.73909922 -8.3125 18.4375 C-8.03838942 12.51671158 -7.14384529 1.3515383 0 0 Z " fill="#878787" transform="translate(421.3125,98.5625)"/>
<path d="M0 0 C0.99 0 1.98 0 3 0 C3 0.99 3 1.98 3 3 C3.66 3 4.32 3 5 3 C5 3.99 5 4.98 5 6 C5.66 6 6.32 6 7 6 C7.33 5.01 7.66 4.02 8 3 C9.32 3 10.64 3 12 3 C12.66 3.66 13.32 4.32 14 5 C14.99 4.34 15.98 3.68 17 3 C19.6875 2.875 19.6875 2.875 22 3 C20 4 18 5 16 6 C15.53476937 7.89533342 15.53476937 7.89533342 15.375 10.0625 C15.25125 11.361875 15.1275 12.66125 15 14 C16.423125 13.938125 16.423125 13.938125 17.875 13.875 C21 14 21 14 23 16 C22.67 16.33 22.34 16.66 22 17 C19.66253478 16.69699525 17.32914823 16.36141955 15 16 C11.9259624 15.92672567 11.9259624 15.92672567 8.625 16.5 C2.734375 17.3125 2.734375 17.3125 0 17 C-2.18994248 13.71508627 -2.35277339 12.16904361 -2.625 8.3125 C-2.69976562 7.31863281 -2.77453125 6.32476562 -2.8515625 5.30078125 C-2.90054687 4.54152344 -2.94953125 3.78226562 -3 3 C-2.34 3 -1.68 3 -1 3 C-0.67 2.01 -0.34 1.02 0 0 Z M5 8 C5 9.32 5 10.64 5 12 C5.33 10.68 5.66 9.36 6 8 C5.67 8 5.34 8 5 8 Z " fill="#575757" transform="translate(323,100)"/>
<path d="M0 0 C0.99 0.66 1.98 1.32 3 2 C3.3984375 4.49609375 3.3984375 4.49609375 3.375 7.4375 C3.38273437 8.40558594 3.39046875 9.37367187 3.3984375 10.37109375 C3 13 3 13 1.6015625 14.84765625 C0 16 0 16 -2 16 C-2 16.66 -2 17.32 -2 18 C-8.875 17.125 -8.875 17.125 -10 16 C-10.15193163 13.87880076 -10.22183514 11.75144685 -10.25 9.625 C-10.27578125 8.46226563 -10.3015625 7.29953125 -10.328125 6.1015625 C-10 3 -10 3 -8.703125 1.10546875 C-5.86559519 -0.73632239 -3.27414656 -0.29233451 0 0 Z " fill="#848484" transform="translate(280,99)"/>
<path d="M0 0 C1.134375 0.020625 2.26875 0.04125 3.4375 0.0625 C5.4375 5.8125 5.4375 5.8125 5.4375 8.0625 C8.9025 7.5675 8.9025 7.5675 12.4375 7.0625 C12.4375 9.7025 12.4375 12.3425 12.4375 15.0625 C10.4575 16.0525 10.4575 16.0525 8.4375 17.0625 C7.7775 15.0825 7.1175 13.1025 6.4375 11.0625 C5.90125 11.5575 5.365 12.0525 4.8125 12.5625 C1.84391555 14.43739544 -0.11562427 14.29751425 -3.5625 14.0625 C-4.2225 12.7425 -4.8825 11.4225 -5.5625 10.0625 C-4.9025 9.7325 -4.2425 9.4025 -3.5625 9.0625 C-4.0884375 8.19625 -4.0884375 8.19625 -4.625 7.3125 C-5.71821363 4.68878728 -5.55306591 3.67399195 -4.5625 1.0625 C-3.5625 0.0625 -3.5625 0.0625 0 0 Z " fill="#808080" transform="translate(370.5625,102.9375)"/>
<path d="M0 0 C1.32 0 2.64 0 4 0 C4.33 1.98 4.66 3.96 5 6 C5.33 6 5.66 6 6 6 C6.33 4.02 6.66 2.04 7 0 C8.32 0 9.64 0 11 0 C12.24377393 2.48754786 12.13306235 4.22655301 12.125 7 C12.12757813 7.886875 12.13015625 8.77375 12.1328125 9.6875 C12 12 12 12 11 14 C9.56344146 14.08131463 8.1255517 14.13933559 6.6875 14.1875 C5.48673828 14.23970703 5.48673828 14.23970703 4.26171875 14.29296875 C2 14 2 14 0.1875 12.84375 C-1.52119383 10.19077799 -1.08687199 8.39855632 -0.6875 5.3125 C-0.56761719 4.31863281 -0.44773437 3.32476562 -0.32421875 2.30078125 C-0.21722656 1.54152344 -0.11023438 0.78226562 0 0 Z " fill="#676767" transform="translate(307,103)"/>
<path d="M0 0 C19.14 0 38.28 0 58 0 C58.495 1.98 58.495 1.98 59 4 C60.32 3.67 61.64 3.34 63 3 C61.68 4.32 60.36 5.64 59 7 C58.01 6.67 57.02 6.34 56 6 C55.505 4.515 55.505 4.515 55 3 C37.18 2.67 19.36 2.34 1 2 C1.33 4.97 1.66 7.94 2 11 C1.34 11 0.68 11 0 11 C-0.72795155 6.79405774 -1.04973814 4.19895255 0 0 Z " fill="#727272" transform="translate(282,33)"/>
<path d="M0 0 C2.51969981 7.70731707 2.51969981 7.70731707 1 11 C-1.54702616 12.27351308 -2.4282945 11.80191925 -5.125 11.0625 C-5.84945313 10.86785156 -6.57390625 10.67320313 -7.3203125 10.47265625 C-7.87460937 10.31667969 -8.42890625 10.16070312 -9 10 C-9.29296875 3.9453125 -9.29296875 3.9453125 -9 2 C-5.5647952 -0.29013653 -4.014669 -0.17842973 0 0 Z " fill="#808080" transform="translate(347,104)"/>
<path d="M0 0 C3.0625 0.3125 3.0625 0.3125 4.9375 1.4375 C6.54765263 4.12108771 6.32897742 6.24800972 6.0625 9.3125 C5.0625 10.3125 5.0625 10.3125 1.6875 10.5 C-1.9375 10.3125 -1.9375 10.3125 -4.9375 8.3125 C-5.25 5.3125 -5.25 5.3125 -4.9375 2.3125 C-2.9375 0.3125 -2.9375 0.3125 0 0 Z " fill="#848484" transform="translate(290.9375,104.6875)"/>
<path d="M0 0 C0.33 0.99 0.66 1.98 1 3 C1.66 3 2.32 3 3 3 C3.33 2.01 3.66 1.02 4 0 C5.32 0 6.64 0 8 0 C8.66 0.66 9.32 1.32 10 2 C10.99 1.34 11.98 0.68 13 0 C15.6875 -0.125 15.6875 -0.125 18 0 C16 1 14 2 12 3 C11.53476937 4.89533342 11.53476937 4.89533342 11.375 7.0625 C11.25125 8.361875 11.1275 9.66125 11 11 C12.423125 10.938125 12.423125 10.938125 13.875 10.875 C17 11 17 11 19 13 C18.67 13.33 18.34 13.66 18 14 C15.66253478 13.69699525 13.32914823 13.36141955 11 13 C10.01 13 9.02 13 8 13 C7.67 13 7.34 13 7 13 C7 9.37 7 5.74 7 2 C6.01 2 5.02 2 4 2 C4 2.66 4 3.32 4 4 C2.68 4.33 1.36 4.66 0 5 C0 3.35 0 1.7 0 0 Z " fill="#4D4D4D" transform="translate(327,103)"/>
<path d="M0 0 C1.69521692 5.2231008 0.18692446 10.22329348 -0.75 15.5 C-0.92015625 16.54542969 -1.0903125 17.59085938 -1.265625 18.66796875 C-1.4409375 19.67472656 -1.61625 20.68148437 -1.796875 21.71875 C-1.95510742 22.63591797 -2.11333984 23.55308594 -2.27636719 24.49804688 C-3.0780182 27.26974715 -4.02270846 28.90705271 -6 31 C-8.84765625 31.42578125 -8.84765625 31.42578125 -12.0625 31.3125 C-13.12597656 31.28800781 -14.18945312 31.26351562 -15.28515625 31.23828125 C-18 31 -18 31 -20 30 C-20 26.7 -20 23.4 -20 20 C-19.34 19.67 -18.68 19.34 -18 19 C-18.33 22.3 -18.66 25.6 -19 29 C-12.565 28.505 -12.565 28.505 -6 28 C-4.65336606 23.11845195 -3.87578435 19.09284165 -4 14 C-3.67 13.67 -3.34 13.34 -3 13 C-2.62913819 11.00661779 -2.30262289 9.00487668 -2 7 C-1.11111111 1.11111111 -1.11111111 1.11111111 0 0 Z " fill="#6F6F6F" transform="translate(313,63)"/>
<path d="M0 0 C0.33 0.99 0.66 1.98 1 3 C-1.97 2.505 -1.97 2.505 -5 2 C-5.33 3.32 -5.66 4.64 -6 6 C-5.01 5.67 -4.02 5.34 -3 5 C-0.8125 5.9375 -0.8125 5.9375 1 7 C1 8.98 1 10.96 1 13 C-1.31 13.33 -3.62 13.66 -6 14 C-6 13.34 -6 12.68 -6 12 C-5.01 11.67 -4.02 11.34 -3 11 C-3.33 10.01 -3.66 9.02 -4 8 C-7.00847418 6.77479736 -7.00847418 6.77479736 -10 6 C-10 4.35 -10 2.7 -10 1 C-6.78548731 -0.60725635 -3.56387464 -0.05748185 0 0 Z " fill="#8D8D8D" transform="translate(403,101)"/>
<path d="M0 0 C0.99 0 1.98 0 3 0 C3.66 2.97 4.32 5.94 5 9 C4.34 9 3.68 9 3 9 C3 10.65 3 12.3 3 14 C2.01 14.33 1.02 14.66 0 15 C-0.66 14.67 -1.32 14.34 -2 14 C-2.4140625 11.49609375 -2.4140625 11.49609375 -2.625 8.4375 C-2.69976562 7.42558594 -2.77453125 6.41367188 -2.8515625 5.37109375 C-2.90054687 4.58863281 -2.94953125 3.80617188 -3 3 C-2.34 3 -1.68 3 -1 3 C-0.67 2.01 -0.34 1.02 0 0 Z " fill="#898989" transform="translate(323,100)"/>
<path d="M0 0 C1.8125 0.0859375 1.8125 0.0859375 4 0.375 C5.0828125 0.51035156 5.0828125 0.51035156 6.1875 0.6484375 C8 1 8 1 9 2 C9.07179964 3.51928038 9.08392007 5.04167482 9.0625 6.5625 C9.05347656 7.38878906 9.04445313 8.21507813 9.03515625 9.06640625 C9.02355469 9.70449219 9.01195312 10.34257813 9 11 C7.68 10.67 6.36 10.34 5 10 C5 8.02 5 6.04 5 4 C4.34 4 3.68 4 3 4 C2.34 6.31 1.68 8.62 1 11 C0.34 11 -0.32 11 -1 11 C-1.02688151 9.35425434 -1.04634123 7.70838587 -1.0625 6.0625 C-1.07410156 5.14597656 -1.08570313 4.22945313 -1.09765625 3.28515625 C-1 1 -1 1 0 0 Z " fill="#919191" transform="translate(353,104)"/>
<path d="M0 0 C0 0.99 0 1.98 0 3 C-0.969375 2.979375 -1.93875 2.95875 -2.9375 2.9375 C-5.87465895 2.64381501 -5.87465895 2.64381501 -7 4 C-7.04080783 5.99958364 -7.04254356 8.00045254 -7 10 C-4.36 10.66 -1.72 11.32 1 12 C0.67 12.66 0.34 13.32 0 14 C-6.52307692 13.38461538 -6.52307692 13.38461538 -8.9375 11.4375 C-9.4634375 10.7259375 -9.4634375 10.7259375 -10 10 C-10.433125 10.474375 -10.86625 10.94875 -11.3125 11.4375 C-13 13 -13 13 -16 14 C-16 13.34 -16 12.68 -16 12 C-14.68 11.67 -13.36 11.34 -12 11 C-11.9175 9.9275 -11.835 8.855 -11.75 7.75 C-11 4 -11 4 -9.375 1.5625 C-6.16093309 -0.5520177 -3.76478675 -0.28959898 0 0 Z " fill="#666666" transform="translate(294,103)"/>
<path d="M0 0 C6.625 -0.25 6.625 -0.25 10 2 C10.1875 4.625 10.1875 4.625 10 7 C8.68 6.67 7.36 6.34 6 6 C6 6.66 6 7.32 6 8 C4.35 7.67 2.7 7.34 1 7 C1 5.68 1 4.36 1 3 C0.34 3 -0.32 3 -1 3 C-0.67 2.01 -0.34 1.02 0 0 Z " fill="#757575" transform="translate(273,99)"/>
<path d="M0 0 C3.31248078 -0.02945031 6.62492711 -0.04694801 9.9375 -0.0625 C10.86369141 -0.07087891 11.78988281 -0.07925781 12.74414062 -0.08789062 C28.57934658 -0.14345275 28.57934658 -0.14345275 32.5625 3.0625 C33.036875 3.701875 33.51125 4.34125 34 5 C33.26007813 4.67 32.52015625 4.34 31.7578125 4 C26.43595367 2.58378809 21.35213386 2.86881116 15.875 3 C13.72676587 3.05108761 11.57829265 3.09312947 9.4296875 3.125 C8.48335449 3.14820312 7.53702148 3.17140625 6.56201172 3.1953125 C3.88176525 2.99098649 2.28856433 2.36735158 0 1 C0 0.67 0 0.34 0 0 Z " fill="#5C5C5C" transform="translate(161,76)"/>
<path d="M0 0 C1.32 0 2.64 0 4 0 C5.24377393 2.48754786 5.13306235 4.22655301 5.125 7 C5.12757813 7.886875 5.13015625 8.77375 5.1328125 9.6875 C5 12 5 12 4 14 C1.03 14 -1.94 14 -5 14 C-4.67 13.34 -4.34 12.68 -4 12 C-0.9375 11.375 -0.9375 11.375 2 11 C2.33 8.69 2.66 6.38 3 4 C2.34 4 1.68 4 1 4 C0.67 5.32 0.34 6.64 0 8 C-1.43088528 5.13822943 -0.59991697 3.06624227 0 0 Z " fill="#505050" transform="translate(314,103)"/>
<path d="M0 0 C4.97642319 3.36640392 8.09059796 7.82106441 11 13 C11 13.66 11 14.32 11 15 C11.598125 15.226875 12.19625 15.45375 12.8125 15.6875 C15.62174735 17.37304841 16.63293699 19.05002192 18 22 C17.67 22.99 17.34 23.98 17 25 C15 23 15 23 14.1875 20.6875 C12.71004252 17.34378043 10.60681176 15.54474481 8 13 C7.34 11.989375 6.68 10.97875 6 9.9375 C3.96041124 6.941854 1.92091213 5.10954765 -1 3 C-0.67 2.01 -0.34 1.02 0 0 Z " fill="#5E5E5E" transform="translate(437,69)"/>
<path d="M0 0 C0 2.64 0 5.28 0 8 C-1.98 8.99 -1.98 8.99 -4 10 C-4.99 7.03 -5.98 4.06 -7 1 C-4.53721199 -0.231394 -2.7204945 -0.07159196 0 0 Z " fill="#5D5D5D" transform="translate(383,110)"/>
<path d="M0 0 C0.66 0 1.32 0 2 0 C1.71504112 2.9799423 1.42220718 5.95877433 1.125 8.9375 C1.04636719 9.76830078 0.96773437 10.59910156 0.88671875 11.45507812 C0.38571231 16.40733408 -0.38426566 21.15703869 -1.58984375 25.98828125 C-2.21159379 29.03781715 -2.13199474 31.8981237 -2 35 C-2.66 35 -3.32 35 -4 35 C-4.32208664 27.09322045 -3.33910806 19.65630357 -2 11.875 C-1.80921875 10.72773437 -1.6184375 9.58046875 -1.421875 8.3984375 C-0.9550807 5.59767171 -0.48099729 2.79835526 0 0 Z " fill="#6D6D6D" transform="translate(211,57)"/>
<path d="M0 0 C0.99 0.33 1.98 0.66 3 1 C2.67 3.64 2.34 6.28 2 9 C-0.31 9.33 -2.62 9.66 -5 10 C-5.66 8.02 -6.32 6.04 -7 4 C-6.01 4 -5.02 4 -4 4 C-4 5.32 -4 6.64 -4 8 C-3.34 7.67 -2.68 7.34 -2 7 C-1.26924352 4.6859378 -0.59861742 2.35171131 0 0 Z " fill="#515151" transform="translate(356,107)"/>
<path d="M0 0 C4.455 0.99 4.455 0.99 9 2 C8.01 2.495 8.01 2.495 7 3 C6.34444881 5.52733235 6.34444881 5.52733235 6 8 C1.125 6.125 1.125 6.125 0 5 C-0.04063832 3.33382885 -0.042721 1.66611905 0 0 Z " fill="#383838" transform="translate(405,109)"/>
<path d="M0 0 C0.99 0 1.98 0 3 0 C3 3.63 3 7.26 3 11 C0 10 0 10 -2 8 C-2.125 4.875 -2.125 4.875 -2 2 C-1.34 2 -0.68 2 0 2 C0 1.34 0 0.68 0 0 Z " fill="#868686" transform="translate(331,105)"/>
<path d="M0 0 C3.0625 0.1875 3.0625 0.1875 5.0625 2.1875 C4.44375 2.22875 3.825 2.27 3.1875 2.3125 C2.48625 2.60125 1.785 2.89 1.0625 3.1875 C-0.2420656 6.18365946 -0.2420656 6.18365946 -0.9375 9.1875 C-1.9275 9.1875 -2.9175 9.1875 -3.9375 9.1875 C-4.03515625 3.03515625 -4.03515625 3.03515625 -3.9375 1.1875 C-2.9375 0.1875 -2.9375 0.1875 0 0 Z " fill="#848484" transform="translate(341.9375,104.8125)"/>
<path d="M0 0 C0 2.31 0 4.62 0 7 C-0.763125 6.835 -1.52625 6.67 -2.3125 6.5 C-5.03596236 5.90854604 -5.03596236 5.90854604 -8 6 C-6.15596224 0.86303767 -5.73213298 0 0 0 Z " fill="#4D4D4D" transform="translate(435,110)"/>
<path d="M0 0 C1.32 0 2.64 0 4 0 C4 0.66 4 1.32 4 2 C3.01 2 2.02 2 1 2 C1 5.96 1 9.92 1 14 C-0.33333333 14 -1.66666667 14 -3 14 C-3.66 11.03 -4.32 8.06 -5 5 C-3.68 5.99 -2.36 6.98 -1 8 C-0.67 5.36 -0.34 2.72 0 0 Z " fill="#565656" transform="translate(300,99)"/>
<path d="M0 0 C-3 1.5 -3 1.5 -6 3 C-6.46523063 4.89533342 -6.46523063 4.89533342 -6.625 7.0625 C-6.74875 8.361875 -6.8725 9.66125 -7 11 C-6.05125 10.95875 -5.1025 10.9175 -4.125 10.875 C-1 11 -1 11 1 13 C0.67 13.33 0.34 13.66 0 14 C-2.33944736 13.71269945 -4.6739143 13.38063221 -7 13 C-9.54625551 5.21145374 -9.54625551 5.21145374 -8 2 C-4.77208445 -0.1519437 -3.71599191 -0.20086443 0 0 Z " fill="#565656" transform="translate(345,103)"/>
<path d="M0 0 C2.31 0 4.62 0 7 0 C7.73080266 1.97746603 8.39421747 3.98072489 9 6 C8.67 6.66 8.34 7.32 8 8 C4.22699642 6.9802693 3.19793856 6.34127338 1.1875 2.875 C0.795625 1.92625 0.40375 0.9775 0 0 Z " fill="#686868" transform="translate(367,103)"/>
<path d="M0 0 C1.33332095 2.6666419 0.67102033 4.16680303 0 7 C0.61875 7.103125 1.2375 7.20625 1.875 7.3125 C4 8 4 8 6 11 C3.50907189 12.24546405 2.58919267 11.7767578 0 11 C-0.33 11.66 -0.66 12.32 -1 13 C-0.979375 12.195625 -0.95875 11.39125 -0.9375 10.5625 C-0.70366379 8.06645115 -0.70366379 8.06645115 -2 7 C-2.1875 4.5625 -2.1875 4.5625 -2 2 C-1.34 1.34 -0.68 0.68 0 0 Z " fill="#6A6A6A" transform="translate(393,100)"/>
<path d="M0 0 C1.32 0.66 2.64 1.32 4 2 C3.67 2.99 3.34 3.98 3 5 C2.01 5 1.02 5 0 5 C0.33 5.99 0.66 6.98 1 8 C-1.97 7.505 -1.97 7.505 -5 7 C-4.67 5.68 -4.34 4.36 -4 3 C-2.35 3 -0.7 3 1 3 C0.67 2.01 0.34 1.02 0 0 Z " fill="#828282" transform="translate(397,108)"/>
<path d="M0 0 C0.99 0 1.98 0 3 0 C3.33 1.65 3.66 3.3 4 5 C3.34 5 2.68 5 2 5 C2 4.01 2 3.02 2 2 C1.34 2 0.68 2 0 2 C0.02320313 2.61488281 0.04640625 3.22976562 0.0703125 3.86328125 C0.08835937 4.67152344 0.10640625 5.47976562 0.125 6.3125 C0.14820313 7.11300781 0.17140625 7.91351563 0.1953125 8.73828125 C0 11 0 11 -2 14 C-2.33 10.37 -2.66 6.74 -3 3 C-2.34 3 -1.68 3 -1 3 C-0.67 2.01 -0.34 1.02 0 0 Z " fill="#767676" transform="translate(323,100)"/>
<path d="M0 0 C0.99 0.33 1.98 0.66 3 1 C2.67 3.97 2.34 6.94 2 10 C1.01 10.33 0.02 10.66 -1 11 C-1.02688151 9.35425434 -1.04634123 7.70838587 -1.0625 6.0625 C-1.07410156 5.14597656 -1.08570313 4.22945313 -1.09765625 3.28515625 C-1 1 -1 1 0 0 Z " fill="#898989" transform="translate(353,104)"/>
<path d="M0 0 C-0.33 0.99 -0.66 1.98 -1 3 C-1 2.34 -1 1.68 -1 1 C-2.32 1 -3.64 1 -5 1 C-5.33 1.99 -5.66 2.98 -6 4 C-8.0625 4.6875 -8.0625 4.6875 -10 5 C-10 3.68 -10 2.36 -10 1 C-6.21812119 -0.83691257 -4.05431692 -1.15837626 0 0 Z " fill="#686868" transform="translate(422,34)"/>
<path d="M0 0 C3.96 0 7.92 0 12 0 C12 1.32 12 2.64 12 4 C11.01 4.495 11.01 4.495 10 5 C10 4.34 10 3.68 10 3 C6.27569643 2.30710631 2.78916254 1.88855404 -1 2 C-0.67 1.34 -0.34 0.68 0 0 Z " fill="#6A6A6A" transform="translate(453,33)"/>
<path d="M0 0 C0.33 0 0.66 0 1 0 C1.33 1.65 1.66 3.3 2 5 C5.48670834 3.8905928 8.77484237 2.73662334 12 1 C10.9802352 3.78117672 10.33608762 4.81833102 7.6875 6.25 C4.98166314 7.00511726 2.79292118 7.1595955 0 7 C-0.93423645 3.98968256 -1.04449911 3.13349732 0 0 Z " fill="#6C6C6C" transform="translate(397,86)"/>
<path d="M0 0 C3 1 3 1 4.1796875 2.703125 C5.1819244 5.50938831 5.19578721 7.77693736 5.125 10.75 C5.10695312 11.73484375 5.08890625 12.7196875 5.0703125 13.734375 C5.03550781 14.85585938 5.03550781 14.85585938 5 16 C4.34 15.34 3.68 14.68 3 14 C3 12 3 10 3 8 C2.12085312 5.3430809 2.12085312 5.3430809 1 3 C0.67 2.01 0.34 1.02 0 0 Z " fill="#5C5C5C" transform="translate(136,36)"/>
<path d="M0 0 C0.99 0.33 1.98 0.66 3 1 C2.01 1.495 2.01 1.495 1 2 C0.63019987 6.04622502 0.63019987 6.04622502 3 9 C2.01 9.495 2.01 9.495 1 10 C0.01 9.34 -0.98 8.68 -2 8 C-2.3125 5 -2.3125 5 -2 2 C-1.34 1.34 -0.68 0.68 0 0 Z " fill="#878787" transform="translate(288,105)"/>
<path d="M0 0 C1.32 0 2.64 0 4 0 C4 1.65 4 3.3 4 5 C3.01 5.33 2.02 5.66 1 6 C0.01 4.68 -0.98 3.36 -2 2 C-1.34 2 -0.68 2 0 2 C0 1.34 0 0.68 0 0 Z " fill="#777777" transform="translate(289,107)"/>
<path d="M0 0 C3.5219721 -0.08004482 6.61981469 -0.04005702 10 1 C10 1.66 10 2.32 10 3 C6.7 3.33 3.4 3.66 0 4 C0 2.68 0 1.36 0 0 Z " fill="#696969" transform="translate(270,109)"/>
<path d="M0 0 C0.66 0 1.32 0 2 0 C1.125 4.875 1.125 4.875 0 6 C-1.66617115 6.04063832 -3.33388095 6.042721 -5 6 C-5 5.34 -5 4.68 -5 4 C-4.0409375 3.8453125 -4.0409375 3.8453125 -3.0625 3.6875 C-2.381875 3.460625 -1.70125 3.23375 -1 3 C-0.67 2.01 -0.34 1.02 0 0 Z " fill="#808080" transform="translate(315,107)"/>
<path d="M0 0 C1.32 0 2.64 0 4 0 C3.67 1.65 3.34 3.3 3 5 C1.68 4.67 0.36 4.34 -1 4 C-0.67 2.68 -0.34 1.36 0 0 Z " fill="#808080" transform="translate(408,112)"/>
<path d="M0 0 C0.639375 0.495 1.27875 0.99 1.9375 1.5 C3.70974339 3.09802862 3.70974339 3.09802862 5 3 C5 4.65 5 6.3 5 8 C4.01 8.33 3.02 8.66 2 9 C1.34 6.03 0.68 3.06 0 0 Z " fill="#313131" transform="translate(295,104)"/>
<path d="M0 0 C2.97 0.495 2.97 0.495 6 1 C5.01 1.495 5.01 1.495 4 2 C4 2.66 4 3.32 4 4 C2.35 4 0.7 4 -1 4 C-0.67 2.68 -0.34 1.36 0 0 Z " fill="#7E7E7E" transform="translate(398,103)"/>
<path d="M0 0 C0.66 0.33 1.32 0.66 2 1 C-0.65654657 4.73884332 -2.58110387 6.64978174 -7 8 C-6.67 7.01 -6.34 6.02 -6 5 C-5.01 5 -4.02 5 -3 5 C-2.690625 4.360625 -2.38125 3.72125 -2.0625 3.0625 C-1 1 -1 1 0 0 Z " fill="#4F4F4F" transform="translate(204,41)"/>
<path d="M0 0 C0.66 0 1.32 0 2 0 C2.33 0.99 2.66 1.98 3 3 C2.01 4.485 2.01 4.485 1 6 C0.01 5.67 -0.98 5.34 -2 5 C-1.34 3.35 -0.68 1.7 0 0 Z " fill="#707070" transform="translate(343,107)"/>
<path d="M0 0 C0.66 0.99 1.32 1.98 2 3 C0 6 0 6 -2.125 6.6875 C-2.74375 6.790625 -3.3625 6.89375 -4 7 C-1.125 1.125 -1.125 1.125 0 0 Z " fill="#777777" transform="translate(74,78)"/>
</svg>
