<?xml version="1.0" encoding="UTF-8"?>
<svg version="1.1" xmlns="http://www.w3.org/2000/svg" width="352" height="238">
<path d="M0 0 C0.77859375 0.18723633 1.5571875 0.37447266 2.359375 0.56738281 C21.89563121 5.44302606 38.56391216 14.04471199 54 27 C54.7734375 27.61488281 55.546875 28.22976562 56.34375 28.86328125 C62.55441197 33.99983901 67.0385459 39.98380064 71 47 C71 47.66 71 48.32 71 49 C60.56106952 48.48012778 50.48507484 46.54183011 40.25 44.5625 C16.44871469 39.97137717 -6.74522814 37.78487392 -31 38 C-31.80791111 44.34822245 -32.13549971 50.51185738 -32.09765625 56.90673828 C-32.09619598 57.85265839 -32.09473572 58.79857849 -32.0932312 59.77316284 C-32.08944837 61.81105199 -32.08335667 63.84893793 -32.07516479 65.88681412 C-32.06232008 69.11553862 -32.05586518 72.3442217 -32.05102539 75.57296753 C-32.03963903 82.4236637 -32.02039105 89.27432549 -32 96.125 C-31.9763658 104.07415402 -31.95599066 112.02328839 -31.94406128 119.97246933 C-31.93759826 123.14704785 -31.92509288 126.32156565 -31.91235352 129.49612427 C-31.90871992 131.44809924 -31.90536832 133.40007477 -31.90234375 135.35205078 C-31.89717743 136.22911682 -31.89201111 137.10618286 -31.88668823 138.00982666 C-31.88627847 142.78310593 -32.19748706 147.29277368 -33 152 C-36.96 152 -40.92 152 -45 152 C-45.00808685 150.64332214 -45.01617371 149.28664429 -45.02450562 147.88885498 C-45.10192041 135.11640196 -45.18964795 122.34405608 -45.28752708 109.57174301 C-45.33751728 103.00504426 -45.3838472 96.43836182 -45.421875 89.87158203 C-45.45869321 83.53675356 -45.50504394 77.20206059 -45.55806351 70.86734772 C-45.57662585 68.44801455 -45.59172696 66.02865231 -45.60334396 63.60927582 C-45.62017471 60.22602907 -45.64920261 56.84309391 -45.68115234 53.45996094 C-45.68331253 52.45511154 -45.68547272 51.45026215 -45.68769836 50.41496277 C-45.69886185 49.49232132 -45.71002533 48.56967987 -45.7215271 47.61907959 C-45.72705786 46.81896328 -45.73258862 46.01884697 -45.73828697 45.19448471 C-46.03350863 42.71902746 -46.68314091 41.10894201 -48 39 C-55.72426475 35.13786762 -70.62807353 38.31993757 -78.875 39.1875 C-80.77584351 39.38279297 -80.77584351 39.38279297 -82.71508789 39.58203125 C-92.65915665 40.63485979 -102.55137803 42.00325268 -112.4375 43.5 C-113.11093445 43.60146332 -113.7843689 43.70292664 -114.47821045 43.8074646 C-122.97313161 45.09808771 -131.37877432 46.63136851 -139.77758789 48.43164062 C-142.61174459 48.93152068 -145.13386536 49.11614446 -148 49 C-146.53808333 38.80268002 -137.46685837 30.4633644 -130 24 C-120.33273703 17 -120.33273703 17 -117 17 C-117 16.34 -117 15.68 -117 15 C-81.71104416 -4.51271676 -39.07248436 -9.44457134 0 0 Z " fill="#999999" transform="translate(217,18)"/>
<path d="M0 0 C1.57309937 0.01522705 1.57309937 0.01522705 3.17797852 0.03076172 C19.20224124 0.34379721 57.00575363 1.75575363 68.625 13.375 C71.35175414 30.6444429 67.38544696 46.14902767 57.75390625 60.5859375 C44.12082396 78.44652604 24.74294643 88.97708705 3.9375 96.375 C3.08792725 96.67809082 2.23835449 96.98118164 1.36303711 97.29345703 C-2.64337026 98.66036312 -6.0790189 99.79497371 -10.375 99.375 C-12.80462969 93.35021942 -14.3947077 87.43902904 -15.71484375 81.0859375 C-15.92307266 80.10621979 -16.13130157 79.12650208 -16.34584045 78.11709595 C-16.78486449 76.04515889 -17.22087987 73.9725823 -17.65405273 71.89941406 C-18.30070821 68.80640122 -18.95709938 65.71558808 -19.61523438 62.625 C-21.74695845 52.55752448 -23.78296327 42.47513704 -25.65234375 32.35546875 C-25.81838608 31.46793915 -25.98442841 30.58040955 -26.15550232 29.66598511 C-27.42613538 22.64958307 -28.70605532 15.46702912 -27.375 8.375 C-21.29206601 0.21106228 -9.43315659 -0.13443929 0 0 Z " fill="#989898" transform="translate(225.375,66.625)"/>
<path d="M0 0 C2.41058888 -0.07684763 4.81687026 -0.11359443 7.22851562 -0.13037109 C8.01613281 -0.15099609 8.80375 -0.17162109 9.61523438 -0.19287109 C14.26262713 -0.22421944 17.17546319 0.15770527 20.97851562 3.11962891 C25.14868054 7.72119019 24.22262876 13.28420873 23.97851562 19.11962891 C23.67823996 22.40219556 23.17094093 25.62333037 22.60351562 28.86962891 C22.43996582 29.83046387 22.27641602 30.79129883 22.10791016 31.78125 C19.97165829 43.82340742 17.38977019 55.78181417 14.85351562 67.74462891 C14.62996399 68.80161987 14.40641235 69.85861084 14.17608643 70.94763184 C13.52889237 73.99815715 12.87600191 77.04739785 12.22070312 80.09619141 C11.92706879 81.47772903 11.92706879 81.47772903 11.62750244 82.88717651 C10.64818259 87.40493056 9.55664276 91.76342449 7.97851562 96.11962891 C-10.87152045 97.83326855 -30.79378094 86.49432995 -44.88867188 74.84619141 C-59.54293513 62.26555732 -68.7672113 49.84861543 -72.77148438 30.49462891 C-73.92982629 14.85701305 -73.92982629 14.85701305 -70.02148438 10.11962891 C-64.25332783 7.47722624 -58.00711787 6.4304077 -51.77148438 5.54931641 C-50.91449951 5.42275665 -50.05751465 5.2961969 -49.17456055 5.165802 C-47.37005015 4.90143902 -45.56493904 4.64114695 -43.75927734 4.38476562 C-41.05448928 3.99933212 -38.35249591 3.59761051 -35.65039062 3.19384766 C-23.75739899 1.4516299 -12.00461477 0.47529583 0 0 Z " fill="#989898" transform="translate(134.021484375,68.88037109375)"/>
<path d="M0 0 C2.86328125 -0.3984375 2.86328125 -0.3984375 6.3125 -0.375 C7.44300781 -0.38273438 8.57351563 -0.39046875 9.73828125 -0.3984375 C13.30126631 0.03680139 15.15236855 0.85293628 18 3 C20.30441554 6.45662331 20.25860135 7.94857881 20 12 C19.67 12.66 19.34 13.32 19 14 C18.34 14 17.68 14 17 14 C17.2165625 14.60328125 17.433125 15.2065625 17.65625 15.828125 C17.9346875 16.62734375 18.213125 17.4265625 18.5 18.25 C18.7784375 19.03890625 19.056875 19.8278125 19.34375 20.640625 C20 23 20 23 20 27 C20.66 27 21.32 27 22 27 C22 26.01 22 25.02 22 24 C24.29629994 22.85185003 26.07698086 22.69230191 28.625 22.4375 C29.85089844 22.31181641 29.85089844 22.31181641 31.1015625 22.18359375 C31.72804688 22.12300781 32.35453125 22.06242187 33 22 C33 21.01 33 20.02 33 19 C32.278125 18.896875 31.55625 18.79375 30.8125 18.6875 C27.72253314 17.93217477 25.60441314 16.80862024 23 15 C21.38876113 11.77752226 21.41338837 8.4851632 22 5 C24.76456458 1.5219994 27.37638096 0.75583077 31.625 0.1875 C34.62646 -0.08396311 36.06895546 0.02298515 39 1 C40 4 40 4 39 7 C36.69 7.33 34.38 7.66 32 8 C33.33926124 12.01778372 35.49134469 12.78023848 39 15 C41.63326457 17.63326457 41.71180635 19.32553101 42 23 C41.26764926 26.49900908 40.54220956 27.63737025 37.55859375 29.6328125 C32.80581757 31.45879676 28.66275989 31.3276374 23.625 31.1875 C22.69816406 31.17396484 21.77132813 31.16042969 20.81640625 31.14648438 C18.54366002 31.11133881 16.27214153 31.06214132 14 31 C12.08855092 27.30009051 10.60865021 24.13882142 10 20 C9.01 19.67 8.02 19.34 7 19 C7.02320313 19.61488281 7.04640625 20.22976562 7.0703125 20.86328125 C7.09738281 22.07564453 7.09738281 22.07564453 7.125 23.3125 C7.14820313 24.11300781 7.17140625 24.91351563 7.1953125 25.73828125 C7 28 7 28 5 31 C2.5 31.375 2.5 31.375 0 31 C-2.27038301 27.59442548 -2.25671558 26.34280826 -2.265625 22.34375 C-2.26820313 21.23902344 -2.27078125 20.13429687 -2.2734375 18.99609375 C-2.26570313 17.84238281 -2.25796875 16.68867188 -2.25 15.5 C-2.25773437 14.34628906 -2.26546875 13.19257813 -2.2734375 12.00390625 C-2.27085937 10.89917969 -2.26828125 9.79445312 -2.265625 8.65625 C-2.26336914 7.64369141 -2.26111328 6.63113281 -2.25878906 5.58789062 C-2 3 -2 3 0 0 Z M8 8 C8 8.99 8 9.98 8 11 C8.66 11 9.32 11 10 11 C10 10.01 10 9.02 10 8 C9.34 8 8.68 8 8 8 Z " fill="#9C9C9C" transform="translate(277,185)"/>
<path d="M0 0 C2 1 2 1 2.8515625 3.50390625 C3.10679687 4.51324219 3.36203125 5.52257812 3.625 6.5625 C3.88539063 7.57441406 4.14578125 8.58632812 4.4140625 9.62890625 C4.60742188 10.41136719 4.80078125 11.19382813 5 12 C5.27714844 11.37351563 5.55429688 10.74703125 5.83984375 10.1015625 C6.20207031 9.28429687 6.56429687 8.46703125 6.9375 7.625 C7.29714844 6.81289062 7.65679687 6.00078125 8.02734375 5.1640625 C8.6569903 3.76316215 9.31312642 2.37374716 10 1 C13.3 1 16.6 1 20 1 C20.90917249 7.18381608 21.15237375 13.19172183 21.125 19.4375 C21.13080078 20.80165039 21.13080078 20.80165039 21.13671875 22.19335938 C21.13542969 23.05638672 21.13414062 23.91941406 21.1328125 24.80859375 C21.13168457 25.59032959 21.13055664 26.37206543 21.12939453 27.17749023 C21 29 21 29 20 30 C17 30.125 17 30.125 14 30 C11.83909114 27.83909114 12.27599869 22.7994153 12 20 C10.02 24.455 10.02 24.455 8 29 C6.02 29 4.04 29 2 29 C1.01 27.02 0.02 25.04 -1 23 C-1.66 25.31 -2.32 27.62 -3 30 C-7.75 31.125 -7.75 31.125 -10 30 C-10.11237377 20.27342548 -9.92972557 10.69570954 -9 1 C-5.77390955 -0.07536348 -3.37822416 -0.14375422 0 0 Z " fill="#9B9B9B" transform="translate(174,185)"/>
<path d="M0 0 C1.16015625 -0.03867188 1.16015625 -0.03867188 2.34375 -0.078125 C5.08856238 0.33956384 5.71429849 1.16263004 7.5 3.25 C8.54321289 5.20776367 8.54321289 5.20776367 9.47265625 7.41796875 C9.98602539 8.63516602 9.98602539 8.63516602 10.50976562 9.87695312 C10.85716797 10.72193359 11.20457031 11.56691406 11.5625 12.4375 C11.91376953 13.26314453 12.26503906 14.08878906 12.62695312 14.93945312 C14.7289457 19.98185118 16.4249745 24.88701968 17.5 30.25 C16.5 31.25 16.5 31.25 14.5390625 31.3828125 C13.74242188 31.38023437 12.94578125 31.37765625 12.125 31.375 C11.33351563 31.37757813 10.54203125 31.38015625 9.7265625 31.3828125 C7.5 31.25 7.5 31.25 4.5 30.25 C3.33203125 28.0703125 3.33203125 28.0703125 2.3125 25.375 C1.96832031 24.49070313 1.62414062 23.60640625 1.26953125 22.6953125 C0.5 20.25 0.5 20.25 0.5 17.25 C-0.16 17.25 -0.82 17.25 -1.5 17.25 C-1.6546875 18.7659375 -1.6546875 18.7659375 -1.8125 20.3125 C-2.53704767 24.46218208 -3.72269266 27.46356263 -5.5 31.25 C-9.13 31.25 -12.76 31.25 -16.5 31.25 C-17.52104577 27.16581693 -17.50446354 26.40949959 -16.171875 22.6953125 C-15.86636719 21.83292969 -15.56085938 20.97054687 -15.24609375 20.08203125 C-14.91738281 19.18871094 -14.58867188 18.29539063 -14.25 17.375 C-13.78013672 16.04662109 -13.78013672 16.04662109 -13.30078125 14.69140625 C-9.93602102 5.32313193 -9.93602102 5.32313193 -7.5 1.25 C-4.73952457 0.32984152 -2.86637731 0.05732755 0 0 Z " fill="#999999" transform="translate(80.5,184.75)"/>
<path d="M0 0 C0.90105469 0.00902344 1.80210937 0.01804688 2.73046875 0.02734375 C3.41753906 0.03894531 4.10460937 0.05054688 4.8125 0.0625 C7.72620966 5.70942404 10.26289597 11.39077287 12.5625 17.3125 C12.87832031 18.10140625 13.19414062 18.8903125 13.51953125 19.703125 C13.96619141 20.8478125 13.96619141 20.8478125 14.421875 22.015625 C14.68967773 22.69786133 14.95748047 23.38009766 15.23339844 24.08300781 C15.8125 26.0625 15.8125 26.0625 15.8125 30.0625 C11.20176889 31.35926812 7.47409911 30.77359139 2.8125 30.0625 C1.4925 26.4325 0.1725 22.8025 -1.1875 19.0625 C-2.1465625 20.9496875 -2.1465625 20.9496875 -3.125 22.875 C-3.48464844 23.58269531 -3.84429687 24.29039062 -4.21484375 25.01953125 C-5.29480516 27.18060285 -5.29480516 27.18060285 -6.1875 30.0625 C-8.59295638 31.26522819 -10.13746953 31.16321472 -12.8125 31.125 C-14.03839844 31.11146484 -14.03839844 31.11146484 -15.2890625 31.09765625 C-15.91554688 31.08605469 -16.54203125 31.07445312 -17.1875 31.0625 C-18.93984983 25.95916539 -17.2101059 22.0427657 -15.5 17.1875 C-15.24283203 16.41019531 -14.98566406 15.63289062 -14.72070312 14.83203125 C-13.02573114 9.87621635 -11.08423777 5.43903083 -8.1875 1.0625 C-5.17259443 0.05753148 -3.14568308 -0.04085303 0 0 Z " fill="#9A9A9A" transform="translate(138.1875,184.9375)"/>
<path d="M0 0 C1.60004883 0.00966797 1.60004883 0.00966797 3.23242188 0.01953125 C4.88661133 0.04466797 4.88661133 0.04466797 6.57421875 0.0703125 C7.69634766 0.07933594 8.81847656 0.08835938 9.97460938 0.09765625 C12.73719784 0.12116764 15.49934807 0.15403095 18.26171875 0.1953125 C18.28861091 1.67438142 18.30806496 3.15358733 18.32421875 4.6328125 C18.33582031 5.45652344 18.34742187 6.28023437 18.359375 7.12890625 C18.26171875 9.1953125 18.26171875 9.1953125 17.26171875 10.1953125 C14.92874442 10.23624187 12.5946665 10.23772973 10.26171875 10.1953125 C10.42285156 10.74445313 10.58398438 11.29359375 10.75 11.859375 C12.1553703 18.27472951 11.87356794 25.15541125 9.26171875 31.1953125 C7.82516021 31.27662713 6.38727045 31.33464809 4.94921875 31.3828125 C3.74845703 31.43501953 3.74845703 31.43501953 2.5234375 31.48828125 C-0.30782581 31.1215373 -0.98436598 30.40201157 -2.73828125 28.1953125 C-3.07885742 26.29418945 -3.07885742 26.29418945 -3.03125 24.18359375 C-3.02158203 23.42626953 -3.01191406 22.66894531 -3.00195312 21.88867188 C-2.97681641 21.10298828 -2.95167969 20.31730469 -2.92578125 19.5078125 C-2.91224609 18.71052734 -2.89871094 17.91324219 -2.88476562 17.09179688 C-2.84945214 15.12601283 -2.79564572 13.16057668 -2.73828125 11.1953125 C-5.04828125 10.8653125 -7.35828125 10.5353125 -9.73828125 10.1953125 C-10.06828125 7.5553125 -10.39828125 4.9153125 -10.73828125 2.1953125 C-6.99709569 0.46953018 -4.10812106 -0.04393712 0 0 Z " fill="#9A9A9A" transform="translate(47.73828125,184.8046875)"/>
<path d="M0 0 C1.60488281 0.00483398 1.60488281 0.00483398 3.2421875 0.00976562 C4.35335937 0.01814453 5.46453125 0.02652344 6.609375 0.03515625 C8.29933594 0.04192383 8.29933594 0.04192383 10.0234375 0.04882812 C12.80213717 0.06060228 15.58072909 0.07704785 18.359375 0.09765625 C18.359375 3.39765625 18.359375 6.69765625 18.359375 10.09765625 C16.379375 10.75765625 14.399375 11.41765625 12.359375 12.09765625 C12.37097656 13.38542969 12.38257812 14.67320312 12.39453125 16 C12.4039077 17.67838397 12.41300805 19.35676951 12.421875 21.03515625 C12.43025391 21.88529297 12.43863281 22.73542969 12.44726562 23.61132812 C12.45209961 24.8246582 12.45209961 24.8246582 12.45703125 26.0625 C12.46488647 27.18579712 12.46488647 27.18579712 12.47290039 28.33178711 C12.359375 30.09765625 12.359375 30.09765625 11.359375 31.09765625 C9.73685008 31.19651978 8.10990227 31.22736792 6.484375 31.22265625 C5.60007812 31.22523438 4.71578125 31.2278125 3.8046875 31.23046875 C1.359375 31.09765625 1.359375 31.09765625 -1.640625 30.09765625 C-1.640625 23.49765625 -1.640625 16.89765625 -1.640625 10.09765625 C-3.950625 9.76765625 -6.260625 9.43765625 -8.640625 9.09765625 C-8.970625 6.45765625 -9.300625 3.81765625 -9.640625 1.09765625 C-6.36436125 0.11545685 -3.41274381 -0.01815289 0 0 Z " fill="#9B9B9B" transform="translate(103.640625,184.90234375)"/>
<path d="M0 0 C3.92055094 3.09902471 6.08408939 5.83412211 7.0078125 10.86328125 C7.45227948 17.19693569 6.46674686 21.17232081 2.5703125 26.11328125 C-0.05532996 28.93104389 -1.30392736 29.69888139 -5.078125 30.06640625 C-9.84827263 30.16408845 -13.30691833 30.23267021 -16.9921875 26.86328125 C-20.27909594 22.25728456 -21.67423734 17.7576299 -21.37109375 12.10546875 C-20.70907966 8.18798332 -19.47606673 4.98461621 -16.9921875 1.86328125 C-11.82267324 -1.31795829 -5.55789761 -3.17127099 0 0 Z M-12.9921875 9.86328125 C-14.07345555 12.90434763 -14.45460703 14.79433935 -13.15234375 17.8046875 C-12.17082128 19.53370395 -11.08736436 21.20392237 -9.9921875 22.86328125 C-7.6490662 22.60766802 -5.31375347 22.27057353 -2.9921875 21.86328125 C-1.69842172 19.27574969 -1.82386353 17.3136914 -1.8046875 14.42578125 C-1.78341797 12.97365234 -1.78341797 12.97365234 -1.76171875 11.4921875 C-1.80069299 8.63061398 -1.80069299 8.63061398 -3.9921875 5.86328125 C-8.44371898 5.04326229 -10.36328453 6.29548436 -12.9921875 9.86328125 Z " fill="#989898" transform="translate(217.9921875,186.13671875)"/>
<path d="M0 0 C3.85256646 2.0694253 6.36792997 4.95691742 8 9 C8.81650396 15.33055666 8.10846868 20.44916307 5 26 C1.678903 29.94380269 -0.58334669 30.85833467 -5.75 31.375 C-9.91110814 31.32893607 -12.28606037 29.94724754 -15.5546875 27.484375 C-18.89751279 24.05120308 -19.31529348 20.81793223 -19.375 16.125 C-19.27363418 10.91733093 -18.69948398 7.89419367 -15 4 C-10.34756779 -0.11145172 -6.02803767 -1.2616823 0 0 Z M-11 10 C-12.74259962 13.48519924 -11.87314991 17.29757366 -11 21 C-9.42182765 23.26929996 -9.42182765 23.26929996 -7 24 C-4.36462492 24.00635246 -4.36462492 24.00635246 -2 23 C0.14553377 19.78169935 0.29583868 18.73213493 0.3125 15 C0.32925781 14.13375 0.34601563 13.2675 0.36328125 12.375 C-0.06867056 9.55105695 -0.72821525 8.6807954 -3 7 C-6.87302751 6.41904587 -8.60626009 6.88813812 -11 10 Z " fill="#979797" transform="translate(265,185)"/>
<path d="M0 0 C1.30324219 -0.00257813 2.60648438 -0.00515625 3.94921875 -0.0078125 C7.3125 0.125 7.3125 0.125 10.3125 1.125 C9.9825 3.105 9.6525 5.085 9.3125 7.125 C7.0025 7.455 4.6925 7.785 2.3125 8.125 C2.32035522 9.01807861 2.32035522 9.01807861 2.32836914 9.92919922 C2.34911999 12.61945547 2.36215407 15.30969489 2.375 18 C2.38337891 18.93714844 2.39175781 19.87429687 2.40039062 20.83984375 C2.40522461 22.18369141 2.40522461 22.18369141 2.41015625 23.5546875 C2.41801147 24.79581299 2.41801147 24.79581299 2.42602539 26.06201172 C2.3125 28.125 2.3125 28.125 1.3125 30.125 C-0.6675 30.125 -2.6475 30.125 -4.6875 30.125 C-5.86176264 27.77647472 -5.80258173 26.38725935 -5.78515625 23.7734375 C-5.78193359 22.92265625 -5.77871094 22.071875 -5.77539062 21.1953125 C-5.76701172 20.30585938 -5.75863281 19.41640625 -5.75 18.5 C-5.74548828 17.6028125 -5.74097656 16.705625 -5.73632812 15.78125 C-5.72452591 13.56243352 -5.70806155 11.34374982 -5.6875 9.125 C-7.9975 8.465 -10.3075 7.805 -12.6875 7.125 C-13.0175 5.145 -13.3475 3.165 -13.6875 1.125 C-9.07600032 0.2241489 -4.6956223 -0.00934452 0 0 Z " fill="#9A9A9A" transform="translate(236.6875,184.875)"/>
<path d="M0 0 C0.66 0 1.32 0 2 0 C2 5.94 2 11.88 2 18 C3.44375 17.896875 4.8875 17.79375 6.375 17.6875 C7.18710937 17.62949219 7.99921875 17.57148438 8.8359375 17.51171875 C11.37921338 17.17009472 11.37921338 17.17009472 13 14 C13.042721 15.66611905 13.04063832 17.33382885 13 19 C11.42077594 20.57922406 9.80556126 20.207659 7.625 20.25 C6.83351563 20.27578125 6.04203125 20.3015625 5.2265625 20.328125 C2.43874839 19.91728924 1.73620837 19.17817467 0 17 C-0.34057617 15.09887695 -0.34057617 15.09887695 -0.29296875 12.98828125 C-0.28330078 12.23095703 -0.27363281 11.47363281 -0.26367188 10.69335938 C-0.23853516 9.90767578 -0.21339844 9.12199219 -0.1875 8.3125 C-0.17396484 7.51521484 -0.16042969 6.71792969 -0.14648438 5.89648438 C-0.11117089 3.93070033 -0.05736447 1.96526418 0 0 Z " fill="#8C8C8C" transform="translate(45,196)"/>
<path d="M0 0 C1.03253906 0.00676758 1.03253906 0.00676758 2.0859375 0.01367188 C3.76566335 0.02533664 5.44534375 0.04326729 7.125 0.0625 C4.35457891 2.83292109 2.35966195 2.46046106 -1.5 2.6875 C-2.68851563 2.76226562 -3.87703125 2.83703125 -5.1015625 2.9140625 C-6.47441406 2.98753906 -6.47441406 2.98753906 -7.875 3.0625 C-7.875 4.0525 -7.875 5.0425 -7.875 6.0625 C-7.875 6.3925 -7.875 6.7225 -7.875 7.0625 C-9.525 7.0625 -11.175 7.0625 -12.875 7.0625 C-13.205 5.0825 -13.535 3.1025 -13.875 1.0625 C-9.21962644 0.14157719 -4.72814567 -0.05955997 0 0 Z " fill="#8E8E8E" transform="translate(236.875,184.9375)"/>
<path d="M0 0 C2.5 0.3125 2.5 0.3125 5 1 C5.33 1.66 5.66 2.32 6 3 C4.68 3 3.36 3 2 3 C2 3.99 2 4.98 2 6 C2.99 6 3.98 6 5 6 C5 6.66 5 7.32 5 8 C4.34 8 3.68 8 3 8 C3 8.66 3 9.32 3 10 C1.68 9.67 0.36 9.34 -1 9 C-1.09765625 2.84765625 -1.09765625 2.84765625 -1 1 C-0.67 0.67 -0.34 0.34 0 0 Z " fill="#8E8E8E" transform="translate(283,190)"/>
<path d="M0 0 C0.66 0 1.32 0 2 0 C2 6.27 2 12.54 2 19 C1.34 18.67 0.68 18.34 0 18 C-1.53718396 12.01166595 -0.86182357 6.03276501 0 0 Z " fill="#8E8E8E" transform="translate(193,195)"/>
<path d="M0 0 C0.66 0 1.32 0 2 0 C2 0.66 2 1.32 2 2 C2.66 2.33 3.32 2.66 4 3 C3.67 3.66 3.34 4.32 3 5 C3.99 5.33 4.98 5.66 6 6 C4.02 6.99 4.02 6.99 2 8 C0.68 7.01 -0.64 6.02 -2 5 C-1.34 3.35 -0.68 1.7 0 0 Z " fill="#9E9E9E" transform="translate(204,208)"/>
<path d="M0 0 C1 2 1 2 0.0625 5.125 C-0.288125 6.07375 -0.63875 7.0225 -1 8 C-3.97 8 -6.94 8 -10 8 C-10 7.34 -10 6.68 -10 6 C-4.375 4 -4.375 4 -1 4 C-0.67 2.68 -0.34 1.36 0 0 Z " fill="#909090" transform="translate(143,157)"/>
<path d="M0 0 C0 0.99 0 1.98 0 3 C-0.99 3.495 -0.99 3.495 -2 4 C-2.66 3.67 -3.32 3.34 -4 3 C-4.33 4.32 -4.66 5.64 -5 7 C-5.99 7 -6.98 7 -8 7 C-8.99 7.66 -9.98 8.32 -11 9 C-9.49364535 4.78220697 -6.75987578 3.2252326 -3 1 C-2.01 0.67 -1.02 0.34 0 0 Z " fill="#919191" transform="translate(209,68)"/>
<path d="M0 0 C1.109375 1.75 1.109375 1.75 2 4 C1.390625 6 1.390625 6 0.25 8 C-0.11609375 8.66 -0.4821875 9.32 -0.859375 10 C-1.23578125 10.66 -1.6121875 11.32 -2 12 C-2.67404321 13.32961948 -3.34290816 14.66192207 -4 16 C-5 14 -5 14 -4.00390625 10.7421875 C-3.53110016 9.4502948 -3.05028031 8.16131362 -2.5625 6.875 C-2.31951172 6.21628906 -2.07652344 5.55757812 -1.82617188 4.87890625 C-1.22421679 3.25008662 -0.61297588 1.62470425 0 0 Z " fill="#919191" transform="translate(69,195)"/>
<path d="M0 0 C3.27742098 3.10026309 5.93104837 5.97098894 8 10 C8 10.66 8 11.32 8 12 C7.01 12 6.02 12 5 12 C4.9175 11.46375 4.835 10.9275 4.75 10.375 C3.7404649 7.17813886 1.86510482 4.76757489 0 2 C0 1.34 0 0.68 0 0 Z " fill="#8C8C8C" transform="translate(280,55)"/>
<path d="M0 0 C0.66 0.33 1.32 0.66 2 1 C1.34 2.32 0.68 3.64 0 5 C-1.32 5 -2.64 5 -4 5 C-4.33 4.01 -4.66 3.02 -5 2 C-2.625 0.9375 -2.625 0.9375 0 0 Z " fill="#9F9F9F" transform="translate(263,185)"/>
<path d="M0 0 C0.66 0.33 1.32 0.66 2 1 C1.34 2.32 0.68 3.64 0 5 C0.66 5.33 1.32 5.66 2 6 C0.35 6 -1.3 6 -3 6 C-3 4.68 -3 3.36 -3 2 C-2.01 1.34 -1.02 0.68 0 0 Z " fill="#929292" transform="translate(123,209)"/>
<path d="M0 0 C2.26185454 2.26185454 3.03921617 3.96983561 4 7 C3.67 7.99 3.34 8.98 3 10 C1.68 9.34 0.36 8.68 -1 8 C-0.835 7.236875 -0.67 6.47375 -0.5 5.6875 C0.09145396 2.96403764 0.09145396 2.96403764 0 0 Z " fill="#909090" transform="translate(147,196)"/>
<path d="M0 0 C1.32 0.66 2.64 1.32 4 2 C4 2.99 4 3.98 4 5 C2.35 5 0.7 5 -1 5 C-0.67 3.35 -0.34 1.7 0 0 Z " fill="#959595" transform="translate(225,187)"/>
<path d="M0 0 C1.16659166 3.49977498 0.68403157 5.42783513 0 9 C0 9.66 0 10.32 0 11 C-0.99 10.67 -1.98 10.34 -3 10 C-2.69201674 8.51988629 -2.378482 7.04092675 -2.0625 5.5625 C-1.88847656 4.73878906 -1.71445313 3.91507813 -1.53515625 3.06640625 C-1 1 -1 1 0 0 Z " fill="#909090" transform="translate(205,193)"/>
<path d="M0 0 C0.33 0.99 0.66 1.98 1 3 C-3.455 3.495 -3.455 3.495 -8 4 C-8 3.34 -8 2.68 -8 2 C-4.71023192 0.90341064 -3.28696233 1.20046862 0 2 C0 1.34 0 0.68 0 0 Z " fill="#909090" transform="translate(315,189)"/>
<path d="M0 0 C3.375 -0.125 3.375 -0.125 7 0 C7.66 0.66 8.32 1.32 9 2 C6.36 2.33 3.72 2.66 1 3 C0.67 2.01 0.34 1.02 0 0 Z " fill="#A9A9A9" transform="translate(301,208)"/>
<path d="M0 0 C0.99 0 1.98 0 3 0 C3 0.66 3 1.32 3 2 C2.34 2 1.68 2 1 2 C0.34 3.98 -0.32 5.96 -1 8 C-1.93065133 5.39417629 -2.14917407 4.35801776 -1.0625 1.75 C-0.711875 1.1725 -0.36125 0.595 0 0 Z " fill="#909090" transform="translate(135,201)"/>
<path d="M0 0 C1.32 0.66 2.64 1.32 4 2 C3.01 3.485 3.01 3.485 2 5 C1.01 5 0.02 5 -1 5 C-0.67 3.35 -0.34 1.7 0 0 Z " fill="#909090" transform="translate(171,201)"/>
</svg>
