<svg xmlns="http://www.w3.org/2000/svg" xmlns:xlink="http://www.w3.org/1999/xlink" id="b" x="0px" y="0px" viewBox="0 0 1052.6 753" style="enable-background:new 0 0 1052.6 753;" xml:space="preserve"> <style type="text/css"> .st0{fill:#999999;} .st1{fill-rule:evenodd;clip-rule:evenodd;fill:#999999;} </style> <g id="c"> <g id="d"> <path class="st0" d="M645.5,643.3c12.7-1.1,26.2,2.1,36,10.7c12.1,10.6,17.7,27.2,17.2,43c0.3,13.4-2.9,27.4-11.2,38.2 c-7.3,9.9-19.2,16-31.3,17.3c-13.5,1.8-28.3-1.3-38.5-10.8c-11.9-10.6-17.1-27-16.9-42.6c-0.3-15.5,4.7-31.7,15.9-42.8 C624.3,648.7,634.8,644.2,645.5,643.3 M644.8,662.6c-5.8,1.3-10.6,5.3-13.7,10.2c-4.7,7.5-6.2,16.5-6.4,25.2 c0.2,9,1.8,18.3,6.8,25.9c3.9,5.9,10.5,10.3,17.8,10c7.3,0.5,14.3-3.7,18.2-9.7c6.4-9.7,7.4-21.9,6.4-33.3 c-1-8.7-4-17.8-10.7-23.8C658.4,662.6,651.2,661.2,644.8,662.6z"></path> <path class="st0" d="M828.5,643.3c12.7-1.1,26.2,2.1,35.9,10.6c12.2,10.6,17.7,27.3,17.3,43.1c0.3,13.4-3,27.4-11.2,38.2 c-7.3,9.9-19.1,16-31.3,17.3c-13.5,1.8-28.3-1.3-38.5-10.8c-11.9-10.6-17.1-27-16.9-42.6c-0.3-15.5,4.7-31.7,15.9-42.8 C807.3,648.7,817.8,644.2,828.5,643.3 M827.8,662.6c-5.8,1.3-10.5,5.3-13.6,10.3c-4.7,7.5-6.2,16.5-6.4,25.2 c0.2,9,1.8,18.3,6.8,25.9c3.9,5.9,10.5,10.3,17.7,10c7.6,0.5,14.8-3.9,18.7-10.3c6.2-10,7-22.3,5.9-33.7 c-1.2-8.6-4.3-17.5-11.1-23.3C840.9,662.4,834,661.3,827.8,662.6z"></path> <path class="st0" d="M1011.4,644.1c12.4-2.3,25.5-1,37.1,4.2c-1.7,6.4-3.6,12.8-5.1,19.2c-8.1-3.7-17.1-6-26-4.6 c-4.6,0.7-9.8,3.8-10.1,9c-0.6,3.5,1.3,7,4.2,9c8.1,5.5,18,7.5,26.2,12.8c5.4,3.5,10.3,8.3,12.7,14.4c4.4,11.4,2.1,25.5-6.8,34 c-7.4,7.3-18.1,10.1-28.2,10.7c-11.2,0.5-22.7-1.4-32.9-6.4c1.5-6.6,3.1-13.2,4.7-19.8c8,4.3,17.1,6.6,26.2,6.8 c4.7-0.3,10.1-1.2,13.4-5c3.3-4,3.1-10.5-0.7-14c-6.1-5.9-14.8-7.2-22-11c-8.3-4.1-16.2-10.6-19-19.8c-2.6-8.9-1.2-19.1,4.5-26.6 C994.7,650,1002.9,645.7,1011.4,644.1L1011.4,644.1z"></path> <path class="st0" d="M0,643.9c34.9,0,69.7,0,104.6,0c0,10.5-0.1,21.1,0.1,31.6c-10,0-20,0-30,0c0,25.5,0,50.9,0,76.4 c-14.5,0-29,0-43.5,0c0.2-19.6-0.1-39.3,0.1-58.9c-0.6-5.9,0.7-11.8-0.3-17.6c-10.3,0.3-20.7,0-31,0.1C0.1,665,0,654.4,0,643.9 L0,643.9z"></path> <path class="st0" d="M134.7,644.2c14.5-0.7,29.1-0.1,43.7-0.3c1.3-0.2,2.1,0.4,2.5,1.6c13.9,35.5,27.6,71.1,41.6,106.5 c-14.1-0.2-28.2-0.1-42.3,0c-7.6-21.3-14.8-42.8-22.4-64.1c-7.7,21.2-14.7,42.7-22,64c-14,0.2-28,0-41.9,0.1 C107.5,716,121.3,680.2,134.7,644.2L134.7,644.2z"></path> <path class="st0" d="M212.5,643.9c29.6,0,59.2,0,88.8,0c5.2,0,10.4-0.2,15.6,0.2c-0.1,10.5-0.1,21,0,31.5c-10-0.1-20,0-30.1,0 c0.1,25.5,0,50.9,0.1,76.4c-14.5,0-29-0.1-43.5,0c0.1-25.5,0-50.9,0.1-76.4c-10.3,0-20.7,0-31,0 C212.5,665,212.4,654.4,212.5,643.9L212.5,643.9z"></path> <path class="st0" d="M347.1,644.2c7-0.9,14.2,0,21.3-0.4c8.2,0.2,16.4-0.4,24.6,0.3c13.8,36,27.8,71.8,41.9,107.7 c-14.2,0-28.3,0-42.5,0c-6.8-20.1-13.9-40.1-20.8-60.1c-0.4-1.2-0.7-2.6-2.1-2.9c-6.9,21.1-14.4,42-21.4,63c-14,0.2-28,0-42,0.1 C319.9,716.1,333.6,680.2,347.1,644.2L347.1,644.2z"></path> <path class="st0" d="M897.5,646.2c11.2-1.7,22.6-2.4,33.9-2.2c10,0.3,20.9,1.5,29,7.9c12.5,9.4,13.8,30,3,41.2 c-3,3.3-6.8,5.9-10.9,7.5c5.5,2.7,9.6,7.7,11.7,13.5c4.3,12,5.8,25,10.3,37c-8-0.3-16,0.1-23.9-0.2c-3-8.5-5-17.2-7-26 c-1.2-4.8-2.6-10.2-6.8-13.3c-4.8-3.4-11-2.4-16.5-2.6c0,14,0,28,0,42c-7.6,0-15.3,0-22.9,0C897.5,716.1,897.3,681.2,897.5,646.2 M920.2,662.6c0.1,9.7-0.1,19.4,0.1,29.1c6.9-0.3,14.4,0.9,20.7-2.9c8.5-4.8,9.1-19,0.7-24.2C935.3,660.8,927.4,662,920.2,662.6z"></path> <path class="st0" d="M481.4,645c10.3,0.1,20.6,0,31,0.1c6.6,24.3,14.3,48.4,18.6,73.2c1-1.2,1.2-2.7,1.5-4.1 c5.1-23.4,12.5-46.2,19.5-69.1c10.1,0,20.3,0,30.4,0c1.5,35.3,3.7,70.6,5.3,105.9c-7.5,0-15,0-22.4,0c-0.6-22-2-44-2.3-66 c0.1-6.1-0.2-12.1-0.3-18.2c-7.3,27.8-16,55.1-24.2,82.6h-18.1c-6-23.7-13.1-47.2-17.9-71.2c-0.9-3.8-1.2-7.8-2.5-11.5 c-0.6,28.2-2.3,56.3-3.5,84.4c-7.1,0-14.3,0-21.4,0C477.2,715.6,479.5,680.4,481.4,645L481.4,645z"></path> <path class="st0" d="M701.8,645.1c26,0,52.1,0,78.2,0c0,6.7-0.1,13.3,0,20c-9.2,0.2-18.5,0-27.7,0.1c0,28.6,0,57.2,0,85.8 c-7.7-0.1-15.4,0-23.1,0c0-28.6,0-57.2,0-85.8c-9.1,0-18.2,0-27.4,0C701.8,658.5,701.8,651.8,701.8,645.1L701.8,645.1z"></path> </g> <path class="st1" d="M939.1,195.7c-10.5-20.6-24.3-40.3-41.4-58.8c-38.5-41.6-92.9-76.2-157.2-100.1C675.5,12.7,601.5,0,526.3,0 s-149.2,12.7-214,36.8C247.9,60.7,193.6,95.3,155,136.9c-17.1,18.5-31,38.3-41.4,58.8c83.8-20.3,227.1-47,360.1-49.8 c12.8-0.3,21.7,3.8,27.5,11.2c7.1,9,6.6,41,6.4,55.3l-3.8,370.1c7.5,0.2,15,0.4,22.6,0.4s15.2-0.1,22.7-0.4l-3.8-370.2 c-0.2-14.3-0.7-46.3,6.4-55.3c5.8-7.4,14.6-11.5,27.5-11.2C712.1,148.7,855.3,175.4,939.1,195.7"></path> <path class="st1" d="M956.9,243.8c-122.6-27.7-204.5-32.8-285.3-37.3c-70.4-3.9-71.3,21.2-64.3,69.3c0.5,2.9,1,6.6,1.7,10.8 c23.6,139.9,53,260.3,58.1,280.7c171.7-39.2,295.5-148,295.5-275.8C962.6,275.4,960.7,259.4,956.9,243.8"></path> <path class="st1" d="M445.4,275.8c7-48.1,6.1-73.2-64.3-69.3c-80.8,4.5-162.7,9.6-285.4,37.3C92,259.4,90,275.4,90,291.5 c0,55.2,22.5,108.7,65,154.6c38.5,41.6,92.9,76.2,157.3,100.1c23.3,8.6,47.9,15.7,73.2,21.4c4.8-19.1,34.8-142,58.7-284.4 C444.7,280.4,445.1,277.8,445.4,275.8"></path> </g> </svg>