<?xml version="1.0" encoding="UTF-8"?>
<svg version="1.1" xmlns="http://www.w3.org/2000/svg" width="430" height="270">
<path d="M0 0 C141.9 0 283.8 0 430 0 C430 89.1 430 178.2 430 270 C288.1 270 146.2 270 0 270 C0 180.9 0 91.8 0 0 Z " fill="#FEFEFE" transform="translate(0,0)"/>
<path d="M0 0 C2.84030694 2.16061384 5.60898039 4.34178908 8 7 C8 7.66 8 8.32 8 9 C8.66 9 9.32 9 10 9 C11.3043898 11.15982683 12.59324782 13.32678696 13.875 15.5 C14.42220703 16.40105469 14.42220703 16.40105469 14.98046875 17.3203125 C21.37087577 28.24209904 22.24740783 42.9202171 19.08984375 55.09765625 C14.38342194 69.00505703 6.15684978 79.40985326 -6.875 86.4375 C-20.08967917 92.55352459 -34.30274101 92.29913968 -48 88 C-58.96980364 83.92188856 -66.80304824 75.00647598 -75 67 C-76.90160277 65.14863471 -78.81682449 63.31895539 -80.75 61.5 C-81.48734375 60.7884375 -82.2246875 60.076875 -82.984375 59.34375 C-84.88028474 57.79242062 -84.88028474 57.79242062 -87.04296875 58.09375 C-89.26963557 59.12486118 -90.76795814 60.32991183 -92.5625 62 C-95.75564541 64.95845989 -97.86413158 65.91427408 -102.3125 66.25 C-106.33763189 65.9771097 -108.60309707 65.13293905 -112 63 C-112.66 62.01 -113.32 61.02 -114 60 C-110.37991995 55.79922452 -106.7009527 51.66461748 -102.92749023 47.60058594 C-98.56113831 42.89594816 -94.40045964 38.14513793 -90.6328125 32.9375 C-89 31 -89 31 -86.60546875 29.109375 C-83.68644676 26.7461488 -81.52708803 24.18321484 -79.1875 21.25 C-78.39730469 20.26515625 -77.60710937 19.2803125 -76.79296875 18.265625 C-76.20128906 17.51796875 -75.60960937 16.7703125 -75 16 C-71.75578691 16.59977049 -71.0844634 16.90615178 -68.75 19.5 C-66.55257918 23.89484165 -66.14969934 27.17601706 -67 32 C-68.07706299 34.63223688 -69.38822022 36.60535575 -71 39 C-72.00670514 40.6626252 -73.00795374 42.32858682 -74 44 C-53.30123249 65.24365706 -53.30123249 65.24365706 -25.8359375 72.27734375 C-17.38895086 71.66661457 -10.76416829 68.16959908 -5 62 C-4.67 61.34 -4.34 60.68 -4 60 C-3.34 60 -2.68 60 -2 60 C-1.51891725 58.58398286 -1.04021859 57.16715563 -0.5625 55.75 C-0.29566406 54.96109375 -0.02882813 54.1721875 0.24609375 53.359375 C3.11322675 44.3865857 3.32054913 34.95278346 -0.66796875 26.28515625 C-4.7752668 19.2389118 -10.257033 14.00258607 -17.8125 10.8125 C-22.75488682 9.55267591 -27.76490021 8.72443975 -32.8515625 9.3515625 C-37.51255753 8.831104 -39.65696789 6.23259335 -42.875 3 C-43.76445312 2.14148438 -43.76445312 2.14148438 -44.671875 1.265625 C-46.12748978 -0.14303446 -47.56554376 -1.56980031 -49 -3 C-48.67 -3.99 -48.34 -4.98 -48 -6 C-31.65317791 -12.15857018 -14.36982599 -9.47750356 0 0 Z " fill="#858585" transform="translate(271,42)"/>
<path d="M0 0 C3.995733 3.3918408 7.76938882 7.02016684 11.55371094 10.64355469 C13.40928921 12.38386409 15.34751855 14.01005573 17.3125 15.625 C18.6428125 16.800625 18.6428125 16.800625 20 18 C20 18.66 20 19.32 20 20 C20.53367187 20.21785156 21.06734375 20.43570313 21.6171875 20.66015625 C24.85483804 22.48067123 27.42627977 24.91935107 30.125 27.4375 C30.66253906 27.92798828 31.20007813 28.41847656 31.75390625 28.92382812 C34.18872383 31.17345384 36.15245155 33.22867732 38 36 C34.37 39.96 30.74 43.92 27 48 C23.15091317 46.07545658 20.86664543 44.21988495 17.75 41.3125 C14.53350795 38.3348986 11.31425819 35.36916153 8 32.5 C3.69440059 28.76609843 -0.49009994 24.90188557 -4.6796875 21.0390625 C-6.81946882 18.98422672 -6.81946882 18.98422672 -9 18 C-9 17.34 -9 16.68 -9 16 C-9.721875 15.731875 -10.44375 15.46375 -11.1875 15.1875 C-14 14 -14 14 -16.5625 12.4375 C-23.29950625 8.46439375 -33.26074005 8.8631255 -40.703125 10.6484375 C-49.11686354 14.09042145 -56.28189281 20.67923592 -60 29 C-63.29146984 39.31875794 -61.49525816 48.34459019 -57 58 C-52.79336352 64.90996086 -45.58130554 69.47289815 -38 72 C-37.05511719 71.86980469 -36.11023438 71.73960938 -35.13671875 71.60546875 C-26.18581462 70.52081785 -26.18581462 70.52081785 -21.97607422 73.36962891 C-17.56392764 77.19477467 -13.74816997 81.53409535 -10 86 C-10.33 86.66 -10.66 87.32 -11 88 C-26.30725803 93.00964808 -42.52838908 90.33590369 -56.6875 83.375 C-68.5981888 76.40542664 -75.77220677 66.24788165 -79.87109375 53.234375 C-81.8900725 44.37871648 -81.51981555 35.68901915 -79 27 C-78.63261719 25.68515625 -78.63261719 25.68515625 -78.2578125 24.34375 C-74.49439724 12.48732671 -65.64367279 2.21688198 -54.75 -3.79296875 C-37.13709179 -12.21914416 -15.97583322 -11.80922542 0 0 Z " fill="#858585" transform="translate(210,42)"/>
<path d="M0 0 C4.01405391 3.24212046 6.36618955 7.49610308 7 12.59375 C7.26935836 19.19302973 6.15548044 23.42133664 1.7265625 28.39453125 C-6.05167071 35.5818104 -13.19795253 36.82052952 -23.64453125 36.63671875 C-32.16195504 36.06827927 -37.46572858 32.57606971 -43.2734375 26.39453125 C-47.03823614 21.21793312 -47.07868944 15.57738526 -46.2734375 9.39453125 C-43.47695227 3.33547991 -37.93677188 -1.93012743 -31.84765625 -4.71484375 C-20.27932035 -8.52897627 -10.10186211 -6.66078956 0 0 Z " fill="#878787" transform="translate(141.2734375,156.60546875)"/>
<path d="M0 0 C3.71820941 1.12627928 4.86011889 3.58815112 6.65551758 6.8815918 C7.29384521 8.17589111 7.29384521 8.17589111 7.94506836 9.49633789 C8.40929199 10.36693848 8.87351563 11.23753906 9.35180664 12.13452148 C10.26932564 13.86125688 11.1727653 15.59555964 12.06079102 17.33764648 C13.51995906 20.198235 15.07110751 23.00302521 16.63256836 25.80883789 C17.07600586 26.63512695 17.51944336 27.46141602 17.97631836 28.31274414 C19.72115717 31.54175987 21.54516738 34.72485128 23.37475586 37.90649414 C24.25756836 39.68383789 24.25756836 39.68383789 24.25756836 41.68383789 C20.54964027 41.96712612 16.95552523 42.13653763 13.25756836 41.68383789 C10.99459498 39.22689536 10.25756836 38.00421249 10.25756836 34.68383789 C2.00756836 34.68383789 -6.24243164 34.68383789 -14.74243164 34.68383789 C-15.73243164 37.15883789 -15.73243164 37.15883789 -16.74243164 39.68383789 C-17.07243164 40.34383789 -17.40243164 41.00383789 -17.74243164 41.68383789 C-21.70243164 41.68383789 -25.66243164 41.68383789 -29.74243164 41.68383789 C-25.29268827 32.38652641 -20.41970396 23.45931148 -15.08618164 14.64086914 C-13.64222357 12.24630533 -12.34345675 9.88871105 -11.08618164 7.38305664 C-10.39008789 6.01600586 -10.39008789 6.01600586 -9.67993164 4.62133789 C-9.31770508 3.84661133 -8.95547852 3.07188477 -8.58227539 2.27368164 C-5.86647642 -0.07309156 -3.52516964 -0.16504738 0 0 Z " fill="#878787" transform="translate(224.742431640625,150.316162109375)"/>
<path d="M0 0 C4.34683042 3.20837483 7.19891646 6.61771185 8.1875 12 C7.17907203 17.26623493 4.7436368 20.06998575 0.5625 23.3125 C-4.71343671 26.01287191 -10.89368342 26.02100369 -16.49609375 24.27734375 C-21.34431389 21.8688731 -23.40702173 18.77544659 -25.375 13.9375 C-25.375 9.86848832 -24.81118669 7.64832275 -22.6875 4.1875 C-16.26238573 -2.06396254 -8.34094152 -2.62585196 0 0 Z " fill="#FCFCFC" transform="translate(130.375,160.0625)"/>
<path d="M0 0 C12.54 0 25.08 0 38 0 C38 2.64 38 5.28 38 8 C33.71 8 29.42 8 25 8 C25 18.89 25 29.78 25 41 C21.37 41 17.74 41 14 41 C14 30.11 14 19.22 14 8 C9.38 8 4.76 8 0 8 C0 5.36 0 2.72 0 0 Z " fill="#8B8B8B" transform="translate(156,151)"/>
<path d="M0 0 C3.63 0 7.26 0 11 0 C11 10.89 11 21.78 11 33 C18.92 33 26.84 33 35 33 C35 35.64 35 38.28 35 41 C23.45 41 11.9 41 0 41 C0 27.47 0 13.94 0 0 Z " fill="#878787" transform="translate(261,151)"/>
<path d="M0 0 C12.54 0 25.08 0 38 0 C38 2.64 38 5.28 38 8 C33.38 8 28.76 8 24 8 C24 18.89 24 29.78 24 41 C20.7 41 17.4 41 14 41 C14 30.11 14 19.22 14 8 C9.38 8 4.76 8 0 8 C0 5.36 0 2.72 0 0 Z " fill="#878787" transform="translate(49,151)"/>
<path d="M0 0 C12.21 0 24.42 0 37 0 C37 2.64 37 5.28 37 8 C32.71 8 28.42 8 24 8 C24 18.89 24 29.78 24 41 C20.7 41 17.4 41 14 41 C14 30.11 14 19.22 14 8 C9.38 8 4.76 8 0 8 C0 5.36 0 2.72 0 0 Z " fill="#888888" transform="translate(362,151)"/>
<path d="M0 0 C1.29808594 -0.00773438 2.59617188 -0.01546875 3.93359375 -0.0234375 C7.73099573 0.39350007 9.67661559 0.88660533 12.5625 3.375 C13.5828405 6.78943554 13.32727619 9.91367962 12.5625 13.375 C9.8308859 16.56188312 7.8037362 17.24769372 3.66796875 17.671875 C-1.49288392 17.79914634 -5.75076996 17.73076378 -10.4375 15.375 C-12.37820481 12.28751507 -12.43883221 10.41363416 -12.3125 6.75 C-11.4375 3.375 -11.4375 3.375 -9.84765625 1.6875 C-6.48761248 -0.14228072 -3.80606185 -0.02263268 0 0 Z " fill="#878787" transform="translate(197.4375,207.625)"/>
<path d="M0 0 C2.97 0 5.94 0 9 0 C9 13.2 9 26.4 9 40 C6.03 40 3.06 40 0 40 C0 26.8 0 13.6 0 0 Z " fill="#848484" transform="translate(337,152)"/>
<path d="M0 0 C3.45293166 2.6088817 4.78669341 4.2667586 6 8.4375 C6 12.55333147 5.29147823 14.60229091 3 18 C0.05200571 20.40206942 -3.29281806 20.43330029 -7.03125 20.30078125 C-10.44366629 19.77943987 -11.85165455 18.66915647 -14 16 C-15.27065565 11.76974268 -15.47398632 8.28255122 -13.9375 4.125 C-9.85861664 -0.34861401 -5.81421754 -1.9793081 0 0 Z " fill="#868686" transform="translate(255,83)"/>
<path d="M0 0 C2.79192205 -0.05380578 5.5828141 -0.09357669 8.375 -0.125 C9.1690625 -0.14175781 9.963125 -0.15851563 10.78125 -0.17578125 C12.85492015 -0.19335473 14.92883241 -0.10335168 17 0 C19 2 19 2 19.265625 4.96875 C19.26046875 6.1340625 19.2553125 7.299375 19.25 8.5 C19.25515625 9.6653125 19.2603125 10.830625 19.265625 12.03125 C19 15 19 15 17 17 C14.93701172 17.22705078 14.93701172 17.22705078 12.4296875 17.1953125 C11.53378906 17.18886719 10.63789063 17.18242187 9.71484375 17.17578125 C8.77769531 17.15902344 7.84054688 17.14226562 6.875 17.125 C5.93011719 17.11597656 4.98523438 17.10695312 4.01171875 17.09765625 C1.67437173 17.07404668 -0.66284549 17.03817494 -3 17 C-3 13.37 -3 9.74 -3 6 C2.28 6 7.56 6 13 6 C13 5.34 13 4.68 13 4 C8.05 4 3.1 4 -2 4 C-1.34 2.68 -0.68 1.36 0 0 Z " fill="#8D8D8D" transform="translate(240,208)"/>
<path d="M0 0 C1.18916016 0.01353516 1.18916016 0.01353516 2.40234375 0.02734375 C4.35169281 0.05082988 6.30088575 0.08669863 8.25 0.125 C7.58984375 2.0859375 7.58984375 2.0859375 6.25 4.125 C3.75390625 4.6640625 3.75390625 4.6640625 0.8125 4.75 C-3.75150748 4.89416795 -3.75150748 4.89416795 -7.75 7.125 C-7.42 8.445 -7.09 9.765 -6.75 11.125 C-3.78 11.455 -0.81 11.785 2.25 12.125 C2.25 11.465 2.25 10.805 2.25 10.125 C-0.39 10.125 -3.03 10.125 -5.75 10.125 C-5.09 8.805 -4.43 7.485 -3.75 6.125 C0.21 6.125 4.17 6.125 8.25 6.125 C8.25 9.755 8.25 13.385 8.25 17.125 C-8.47259811 17.89979219 -8.47259811 17.89979219 -13.75 13.125 C-14.97853383 9.72846528 -14.93308082 7.85732327 -14.0625 4.375 C-10.92782407 -0.99873017 -5.53574191 -0.11934435 0 0 Z " fill="#898989" transform="translate(106.75,207.875)"/>
<path d="M0 0 C3.25575772 0.70687608 4.04215758 1.85065104 5.96484375 4.53515625 C6.51140625 5.27765625 7.05796875 6.02015625 7.62109375 6.78515625 C9.98663111 10.31341536 12.21347841 13.93297171 14.46484375 17.53515625 C7.86484375 17.53515625 1.26484375 17.53515625 -5.53515625 17.53515625 C-3.53515625 13.53515625 -3.53515625 13.53515625 -2.53515625 12.53515625 C-0.53557261 12.49434842 1.46529629 12.49261269 3.46484375 12.53515625 C1.81484375 10.88515625 0.16484375 9.23515625 -1.53515625 7.53515625 C-1.78265625 8.25703125 -2.03015625 8.97890625 -2.28515625 9.72265625 C-3.7166546 12.94352753 -4.96399295 15.10297475 -7.53515625 17.53515625 C-11.28515625 17.84765625 -11.28515625 17.84765625 -14.53515625 17.53515625 C-12.22520156 13.10774308 -9.60257933 9.09096613 -6.59765625 5.09765625 C-5.94925781 4.23269531 -5.30085938 3.36773437 -4.6328125 2.4765625 C-2.53515625 0.53515625 -2.53515625 0.53515625 0 0 Z " fill="#888888" transform="translate(297.53515625,207.46484375)"/>
<path d="M0 0 C1.65 0 3.3 0 5 0 C5 3.96 5 7.92 5 12 C9.29 12 13.58 12 18 12 C16 16 16 16 15 17 C12.4672235 17.07320163 9.96896082 17.09227569 7.4375 17.0625 C4.983125 17.041875 2.52875 17.02125 0 17 C0 11.39 0 5.78 0 0 Z " fill="#868686" transform="translate(338,208)"/>
<path d="M0 0 C1.65 0 3.3 0 5 0 C5 3.96 5 7.92 5 12 C9.29 12 13.58 12 18 12 C16 16 16 16 15 17 C12.4672235 17.07320163 9.96896082 17.09227569 7.4375 17.0625 C4.983125 17.041875 2.52875 17.02125 0 17 C0 11.39 0 5.78 0 0 Z " fill="#868686" transform="translate(142,208)"/>
<path d="M0 0 C1.17369141 -0.02513672 1.17369141 -0.02513672 2.37109375 -0.05078125 C5.05309406 0.39382843 5.95644916 1.15191695 7.5625 3.3125 C7.31103421 5.44995922 7.10324221 6.77175779 5.5625 8.3125 C3.73134117 8.41101171 1.89630067 8.44222629 0.0625 8.4375 C-0.9378125 8.44007813 -1.938125 8.44265625 -2.96875 8.4453125 C-5.4375 8.3125 -5.4375 8.3125 -6.4375 7.3125 C-6.625 4.875 -6.625 4.875 -6.4375 2.3125 C-4.02263057 -0.10236943 -3.31042211 0.0163075 0 0 Z " fill="#F6F6F6" transform="translate(197.4375,211.6875)"/>
<path d="M0 0 C7 8.44827586 7 8.44827586 7 13 C2.71 13 -1.58 13 -6 13 C-5.21134375 9.84537499 -4.44418846 7.64247224 -3 4.8125 C-2.4740625 3.77029297 -2.4740625 3.77029297 -1.9375 2.70703125 C-1 1 -1 1 0 0 Z " fill="#F8F8F8" transform="translate(222,164)"/>
<path d="M0 0 C0.90105469 0.01804688 1.80210938 0.03609375 2.73046875 0.0546875 C3.41753906 0.07789063 4.10460937 0.10109375 4.8125 0.125 C4.8125 0.455 4.8125 0.785 4.8125 1.125 C2.9253125 1.24875 2.9253125 1.24875 1 1.375 C-2.52561212 1.79057143 -2.52561212 1.79057143 -5.1875 4.1875 C-5.5175 4.826875 -5.8475 5.46625 -6.1875 6.125 C-3.5475 6.125 -0.9075 6.125 1.8125 6.125 C1.8125 6.785 1.8125 7.445 1.8125 8.125 C0.35457116 8.17899736 -1.10392712 8.21779177 -2.5625 8.25 C-3.37460938 8.27320313 -4.18671875 8.29640625 -5.0234375 8.3203125 C-7.1875 8.125 -7.1875 8.125 -9.1875 6.125 C-9 4.125 -9 4.125 -8.1875 2.125 C-4.87379 -0.08414 -3.8428979 -0.09981553 0 0 Z " fill="#E5E5E5" transform="translate(107.1875,211.875)"/>
<path d="M0 0 C1.9375 0.8125 1.9375 0.8125 4 2 C4.33 2.99 4.66 3.98 5 5 C3.3603125 5.4021875 3.3603125 5.4021875 1.6875 5.8125 C-1.61692663 6.87663739 -2.94960422 7.34654664 -5 10 C-4.38545304 6.00544473 -2.29353263 3.25533664 0 0 Z " fill="#EDEDED" transform="translate(296,215)"/>
<path d="M0 0 C2.97 0.33 5.94 0.66 9 1 C9 1.66 9 2.32 9 3 C6.03 3 3.06 3 0 3 C0 2.01 0 1.02 0 0 Z " fill="#DEDEDE" transform="translate(100,217)"/>
<path d="M0 0 C2.97 1.98 2.97 1.98 6 4 C5.67 4.99 5.34 5.98 5 7 C3.02 5.35 1.04 3.7 -1 2 C-0.67 1.34 -0.34 0.68 0 0 Z " fill="#E9E9E9" transform="translate(156,102)"/>
</svg>
