<svg xmlns="http://www.w3.org/2000/svg" id="b" viewBox="0 0 250 250"><g id="c"><g id="d"><path d="m112.8000030518,134.5h30.3000030518v-10.0999984741h-3.3000030518c0,3.9000015259-2.8000030518,6.7000045776-7.1999969482,6.7000045776h-4.6000061035v-15.0999984741h5v-3.4000015259h-20.1999969482v3.4000015259h5.0999984741v15.0999984741h-5.0999984741v3.3999938965h0Z" style="fill:#999;"></path><polygon points="157.6999969482 134.5 169.5 134.5 179.6000061035 116 184.6000061035 116 184.6000061035 112.5999984741 169.5 112.5999984741 169.5 116 173.8999938965 116 166.5 129.5 159.1999969482 116 164.5 116 164.5 112.5999984741 142.5 112.5999984741 142.5 116 147.5 116 157.6999969482 134.5" style="fill:#999;"></polygon><polygon points="52.4000015259 112.5999984741 30.5 112.5999984741 30.5 116 35.5 116 45.7000007629 134.5 57.5 134.5 67.5 116 72.5 116 72.5 112.5999984741 57.4000015259 112.5999984741 57.4000015259 116 61.7999992371 116 54.5 129.5 47.0999984741 116 52.4000015259 116 52.4000015259 112.5999984741" style="fill:#999;"></polygon><path d="m75.5,123.5999984741c0,6.4000015259,5.1999969482,11.5999984741,15.5999984741,11.5999984741s15.5-5.1000061035,15.5-11.5999984741c0-6.4000015259-5.4000015259-11.4000015259-15.5999984741-11.4000015259-10.0999984741-.0999984741-15.5,5-15.5,11.4000015259Zm20.9000015259,0c-.0999984741,4-1.6999969482,8.0999984741-5.5,8.0000076294-3.6999969482-.1000061035-5.3000030518-4.1999969482-5.3000030518-8.1999969482.0999984741-4.1999969482,2.0999984741-7.9000015259,5.5999984741-7.8000030518,3.5-.0000076294,5.3000030518,3.7999954224,5.2000045776,7.9999923706Z" style="fill:#999;"></path><path d="m187.5,123.5999984741c0,6.4000015259,5.1999969482,11.5999984741,15.6000061035,11.5999984741,10.3999938965,0,15.5-5.1000061035,15.5-11.5999984741,0-6.4000015259-5.3999938965-11.4000015259-15.6000061035-11.4000015259-10.1000061035-.0999984741-15.5,5-15.5,11.4000015259Zm15.6999969482-8c3.5.0999984741,5.3000030518,3.8000030518,5.1999969482,8-.1000061035,4-1.6999969482,8.0999984741-5.5,8.0000076294-3.6999969482-.1000061035-5.3000030518-4.1999969482-5.3000030518-8.1999969482.1000061035-4.200012207,2.1000061035-7.9000091553,5.6000061035-7.8000106812Z" style="fill:#999;"></path><path d="m227.8999938965,54l-12.6999969482,12.6999969482c10.8999938965,16.8000030518,17.1999969482,36.8000030518,17.1999969482,58.3000030518,0,59.3000030518-48.1000061035,107.3999938965-107.4000015259,107.3999938965S17.6000003815,184.3000030518,17.6000003815,125,65.6999969482,17.6000003815,125,17.6000003815c21.6000061035,0,41.6000061035,6.3999996185,58.3999938965,17.3000011444l12.6999969482-12.7000007629C176,8.1999998093,151.3999938965,0,125,0,56,0,0,56,0,125s56,125,125,125,125-56,125-125c0-26.4000015259-8.1999969482-50.9000015259-22.1000061035-71Z" style="fill:#999;"></path><path d="m187.8999938965,4.9000000954v3.4999995232c7.6000061035,4.1000003815,14.6999969482,9,21.3000030518,14.3999996185l-17.8000030518,17.7999992371c6.6999969482,5.2999992371,12.8000030518,11.2999992371,18.1000061035,18l17.8000030518-17.7999992371c5.5,6.5999984741,10.3000030518,13.7999992371,14.3999938965,21.2000007629h3.3999938965V4.9000000954h-57.1999969482Z" style="fill:#999;"></path></g></g></svg>