<?xml version="1.0" encoding="UTF-8"?>
<svg version="1.1" xmlns="http://www.w3.org/2000/svg" width="300" height="260">
<path d="M0 0 C-0.79172949 4.94409799 -2.28216516 7.52463265 -6 11 C-12.35855633 11.85050754 -17.12520997 9.61723172 -22.8125 7.125 C-43.70157798 -1.96279257 -66.72644227 -2.13639247 -88 6 C-103.43175709 12.24955824 -118.13703743 24.03107865 -126.7734375 38.3125 C-127.17820312 38.869375 -127.58296875 39.42625 -128 40 C-128.66 40 -129.32 40 -130 40 C-130.69375044 42.08125132 -131.38633923 44.16289465 -132.07421875 46.24609375 C-132.70404906 48.11963962 -133.35328097 49.98675031 -134.01953125 51.84765625 C-141.591606 73.37276763 -141.95952756 98.42091096 -132.26416016 119.3828125 C-122.31154649 139.5467982 -106.77342231 155.54171896 -85.31640625 163.00390625 C-61.484241 170.16197708 -37.36840435 168.46129215 -14.9453125 157.5078125 C2.15182309 148.22651032 17.03416242 132.02993508 23.171875 113.453125 C29.12208339 93.01545271 30.35025211 68.65536772 20.5546875 49.1171875 C19.70417946 47.68347395 18.84054099 46.25736558 17.95703125 44.84375 C16.13293277 41.32956845 16.36101586 38.89780328 17 35 C18.7986652 31.62291432 21.00427986 29.47296707 24.5 27.8125 C28.34202089 28.10065157 29.51957303 30.14203468 32 33 C33.41085719 35.41480295 34.49885188 37.91614514 35.5625 40.5 C36.00855591 41.55731323 36.00855591 41.55731323 36.46362305 42.63598633 C46.99338488 68.08362823 48.37170011 94.80813806 38.21313477 120.60571289 C32.95472224 133.20161988 25.96782811 143.70719549 17 154 C16.45988281 154.62519531 15.91976562 155.25039062 15.36328125 155.89453125 C-0.47612212 172.93086687 -25.08229912 183.81952165 -48.17602539 185.12280273 C-76.30064786 186.0819611 -103.01820252 177.80695057 -124.09765625 158.7578125 C-143.15093234 140.92309621 -156.2011696 116.66925523 -157.23828125 90.234375 C-157.81985795 61.58779293 -148.51593499 34.38568292 -129 13 C-94.07157697 -21.18208921 -40.64665606 -27.42257275 0 0 Z " fill="#979797" transform="translate(192,53)"/>
<path d="M0 0 C10.30696008 -0.07337365 20.57482286 0.15153416 30.875 0.5 C38.361875 0.7475 38.361875 0.7475 46 1 C46 15.85 46 30.7 46 46 C41 45 41 45 39.234375 43.07421875 C38.74453125 42.28660156 38.2546875 41.49898437 37.75 40.6875 C37.24984375 39.90761719 36.7496875 39.12773438 36.234375 38.32421875 C35.0964157 36.18154222 34.45554403 34.36991359 34 32 C29.39226394 34.5634588 26.00147898 37.75909482 22.28125 41.453125 C20 43 20 43 17.4765625 42.94140625 C14.71332519 41.8910274 13.05052483 40.67959823 10.875 38.6875 C10.21242187 38.09324219 9.54984375 37.49898437 8.8671875 36.88671875 C5.32439052 33.30686322 5.32439052 33.30686322 4 31 C4.08591617 27.77056266 4.68628364 26.37025425 6.77734375 23.90234375 C7.84662109 22.92974609 7.84662109 22.92974609 8.9375 21.9375 C11.66455473 19.43811227 13.54426376 17.4221234 15 14 C14.00097656 13.43410156 13.00195312 12.86820313 11.97265625 12.28515625 C10.66922254 11.5443558 9.36583975 10.80346575 8.0625 10.0625 C7.40314453 9.68931641 6.74378906 9.31613281 6.06445312 8.93164062 C1.11328125 6.11328125 1.11328125 6.11328125 0 5 C-0.04063832 3.33382885 -0.042721 1.66611905 0 0 Z " fill="#969696" transform="translate(186,40)"/>
<path d="M0 0 C3.85544798 1.99657127 5.59805092 3.39707638 8 7 C8.33309573 10.17317509 8.01049242 12.97398488 7 16 C2.60492167 19.75412941 -1.13164193 20.60115251 -6.85546875 20.328125 C-10.00944806 19.84554893 -12.33092319 18.71583509 -15 17 C-15.61875 16.608125 -16.2375 16.21625 -16.875 15.8125 C-18.80042339 12.71042898 -18.7357463 9.46273257 -18 6 C-13.04628437 -0.29255769 -7.59860308 -0.87448931 0 0 Z M-7 5 C-8.23267348 6.00836062 -8.23267348 6.00836062 -8.09765625 8.06640625 C-8.08605469 8.89011719 -8.07445313 9.71382812 -8.0625 10.5625 C-8.05347656 11.38878906 -8.04445313 12.21507812 -8.03515625 13.06640625 C-8.02355469 13.70449219 -8.01195313 14.34257812 -8 15 C-7.01 15.33 -6.02 15.66 -5 16 C-1.77598054 13.29775069 -1.77598054 13.29775069 -0.625 9.375 C-0.79015749 6.81772804 -0.79015749 6.81772804 -3 5 C-4.32 5 -5.64 5 -7 5 Z " fill="#909090" transform="translate(114,126)"/>
<path d="M0 0 C2.625 1.625 2.625 1.625 4.625 3.625 C5.20387875 12.5976206 5.20387875 12.5976206 2.625 15.625 C-2.57794659 18.53865009 -6.44736124 19.18953702 -12.375 18.625 C-15.97759314 17.33350435 -17.85841796 16.24156566 -20.3125 13.3125 C-21.69881489 9.8059388 -21.63530892 8.18351929 -20.375 4.625 C-14.77446946 -1.6108146 -7.65552199 -3.11891637 0 0 Z M-11.125 4.1875 C-12.76349226 6.74783886 -12.76349226 6.74783886 -11.5625 10.375 C-11.170625 11.4475 -10.77875 12.52 -10.375 13.625 C-8.725 13.625 -7.075 13.625 -5.375 13.625 C-4.11104965 8.38128512 -4.11104965 8.38128512 -5.6875 3.625 C-8.21243543 2.12874196 -8.92436506 2.22264737 -11.125 4.1875 Z " fill="#969696" transform="translate(206.375,127.375)"/>
<path d="M0 0 C5.94 0 11.88 0 18 0 C18 0.99 18 1.98 18 3 C17.01 3 16.02 3 15 3 C15.61875 4.134375 16.2375 5.26875 16.875 6.4375 C17.22304687 7.07558594 17.57109375 7.71367187 17.9296875 8.37109375 C18.91410024 10.16618315 18.91410024 10.16618315 21 11 C21.33 7.37 21.66 3.74 22 0 C25.96 0 29.92 0 34 0 C33.67 1.32 33.34 2.64 33 4 C31.35 4 29.7 4 28 4 C27.91363281 4.58007812 27.82726562 5.16015625 27.73828125 5.7578125 C26.70065996 11.5266061 25.53961292 15.15119774 21 19 C17.98771758 19.70600369 16.16903407 19.46002107 13 19 C9.50145981 16.25553113 7.72772693 12.19208666 5.59765625 8.375 C4.12940839 5.90688061 4.12940839 5.90688061 1.80859375 4.375 C1.21175781 3.92125 0.61492187 3.4675 0 3 C0 2.01 0 1.02 0 0 Z " fill="#979797" transform="translate(150,127)"/>
<path d="M0 0 C0 1.32 0 2.64 0 4 C-0.66 4 -1.32 4 -2 4 C-0.68 6.31 0.64 8.62 2 11 C3.32 8.36 4.64 5.72 6 3 C5.34 3 4.68 3 4 3 C4 2.01 4 1.02 4 0 C7.96 0 11.92 0 16 0 C16 1.32 16 2.64 16 4 C14.33935415 5.0099669 12.67175341 6.0085272 11 7 C9.13357778 9.68096154 9.13357778 9.68096154 7.6875 12.6875 C6.800625 14.440625 5.91375 16.19375 5 18 C1.04 18 -2.92 18 -7 18 C-7.47050781 17.00097656 -7.94101563 16.00195312 -8.42578125 14.97265625 C-9.05415545 13.66901425 -9.68309095 12.36564269 -10.3125 11.0625 C-10.62123047 10.40314453 -10.92996094 9.74378906 -11.24804688 9.06445312 C-12.08950978 7.33723979 -13.03947665 5.6639473 -14 4 C-14.99 3.67 -15.98 3.34 -17 3 C-17 2.01 -17 1.02 -17 0 C-12.09873048 -2.45063476 -5.24757977 -0.87459663 0 0 Z " fill="#9C9C9C" transform="translate(78,127)"/>
<path d="M0 0 C5.28 0 10.56 0 16 0 C16 0.99 16 1.98 16 3 C15.01 3.495 15.01 3.495 14 4 C14.020625 5.093125 14.04125 6.18625 14.0625 7.3125 C14 11 14 11 13 14 C14.60875 13.2884375 14.60875 13.2884375 16.25 12.5625 C18.80839865 11.46233668 21.25835017 10.54832997 24 10 C24 12.64 24 15.28 24 18 C16.08 18 8.16 18 0 18 C0 17.01 0 16.02 0 15 C1.32 14.67 2.64 14.34 4 14 C4 10.7 4 7.4 4 4 C2.68 3.67 1.36 3.34 0 3 C0 2.01 0 1.02 0 0 Z " fill="#A2A2A2" transform="translate(126,127)"/>
<path d="M0 0 C0 1.32 0 2.64 0 4 C-0.66 4 -1.32 4 -2 4 C-0.68 6.31 0.64 8.62 2 11 C3.32 8.36 4.64 5.72 6 3 C5.34 3 4.68 3 4 3 C4 2.01 4 1.02 4 0 C7.96 0 11.92 0 16 0 C16 1.32 16 2.64 16 4 C14.33935415 5.0099669 12.67175341 6.0085272 11 7 C9.13357778 9.68096154 9.13357778 9.68096154 7.6875 12.6875 C6.800625 14.440625 5.91375 16.19375 5 18 C1.04 18 -2.92 18 -7 18 C-7.47050781 17.00097656 -7.94101563 16.00195312 -8.42578125 14.97265625 C-9.05415545 13.66901425 -9.68309095 12.36564269 -10.3125 11.0625 C-10.62123047 10.40314453 -10.92996094 9.74378906 -11.24804688 9.06445312 C-12.08950978 7.33723979 -13.03947665 5.6639473 -14 4 C-14.99 3.67 -15.98 3.34 -17 3 C-17 2.01 -17 1.02 -17 0 C-12.09873048 -2.45063476 -5.24757977 -0.87459663 0 0 Z M-12 1 C-11.59683075 7.31631828 -9.28767869 11.64993984 -6 17 C-2.74813628 17.81296593 -0.22269213 18.00927723 3 17 C5.48726864 14.10903855 7.3043217 11.13950491 9.17578125 7.8203125 C10.98642393 5.02098913 11.91481257 4.07606979 15 3 C15 2.34 15 1.68 15 1 C12.36 1 9.72 1 7 1 C6.87625 1.70125 6.7525 2.4025 6.625 3.125 C5.94856475 6.23660216 5.2647256 9.07116177 4 12 C1.875 12.875 1.875 12.875 0 13 C-1.80619523 8.53763531 -2.11658501 5.68965706 -1 1 C-4.63 1 -8.26 1 -12 1 Z " fill="#7A7A7A" transform="translate(78,127)"/>
<path d="M0 0 C3.85544798 1.99657127 5.59805092 3.39707638 8 7 C8.25 10.0625 8.25 10.0625 8 13 C7.34 13.66 6.68 14.32 6 15 C6.0825 13.9275 6.165 12.855 6.25 11.75 C6.36237217 7.95990735 6.36237217 7.95990735 4 5.5625 C3.34 5.046875 2.68 4.53125 2 4 C1.34 5.32 0.68 6.64 0 8 C-0.99 7.34 -1.98 6.68 -3 6 C-4.32 6 -5.64 6 -7 6 C-7 9.63 -7 13.26 -7 17 C-9 16 -9 16 -9.625 14.375 C-10.3069409 10.05604097 -10.38635713 6.15907138 -9 2 C-12.65316671 3.24976756 -13.78065836 3.67098753 -16 7 C-16.24682644 10.20874376 -15.91204104 12.92186148 -15 16 C-15.99 15.34 -16.98 14.68 -18 14 C-18.40443578 10.91617719 -18.61840339 8.96152816 -18 6 C-13.04628437 -0.29255769 -7.59860308 -0.87448931 0 0 Z " fill="#979797" transform="translate(114,126)"/>
<path d="M0 0 C2 2 2 2 2.265625 3.875 C2.26046875 4.57625 2.2553125 5.2775 2.25 6 C2.25515625 6.70125 2.2603125 7.4025 2.265625 8.125 C2 10 2 10 0 12 C0.06960937 11.07767578 0.06960937 11.07767578 0.140625 10.13671875 C0.53366346 5.13499104 0.53366346 5.13499104 -1.75 0.9375 C-4.20913462 -0.25641026 -4.20913462 -0.25641026 -8 0 C-8 0.99 -8 1.98 -8 3 C-8.5775 2.7525 -9.155 2.505 -9.75 2.25 C-10.4925 2.1675 -11.235 2.085 -12 2 C-12.639375 2.639375 -13.27875 3.27875 -13.9375 3.9375 C-16 6 -16 6 -18.75 6.25 C-19.4925 6.1675 -20.235 6.085 -21 6 C-21 8.31 -21 10.62 -21 13 C-21.66 12.67 -22.32 12.34 -23 12 C-23.9375 8.8125 -23.9375 8.8125 -24 5 C-18.18505558 -4.06447219 -9.00227002 -5.57283382 0 0 Z " fill="#8D8D8D" transform="translate(209,129)"/>
<path d="M0 0 C1.4540625 1.2375 1.4540625 1.2375 2.9375 2.5 C3.58203125 3.04785156 4.2265625 3.59570312 4.890625 4.16015625 C6.30080254 5.39014444 7.68661601 6.64861627 9.046875 7.93359375 C21.09553565 19.21272315 35.11903444 24.43488528 51 28 C51 28.66 51 29.32 51 30 C43.57013211 29.00240251 36.98258907 27.04632201 30.04296875 24.21875 C27.01094147 22.95530252 27.01094147 22.95530252 23.83984375 22.03125 C21.02621014 21.00951785 19.52154524 20.03464004 17.375 18 C15.03113876 15.79919133 12.8992875 14.38402201 10 13 C8.25 11.5 8.25 11.5 7 10 C7 9.34 7 8.68 7 8 C6.401875 7.7525 5.80375 7.505 5.1875 7.25 C2.68373081 5.81927475 1.51927612 4.4308418 0 2 C0 1.34 0 0.68 0 0 Z " fill="#898989" transform="translate(71,192)"/>
<path d="M0 0 C-0.01160156 0.67546875 -0.02320312 1.3509375 -0.03515625 2.046875 C-0.04417969 2.93890625 -0.05320312 3.8309375 -0.0625 4.75 C-0.07410156 5.63171875 -0.08570312 6.5134375 -0.09765625 7.421875 C-0.00826198 9.7818838 0.33087179 11.74498524 1 14 C1.66 13.67 2.32 13.34 3 13 C3 13.99 3 14.98 3 16 C-3.75 15.125 -3.75 15.125 -6 14 C-7.95273942 10.96240535 -8.61073459 8.57715974 -8 5 C-3.88888889 0 -3.88888889 0 0 0 Z " fill="#9D9D9D" transform="translate(105,128)"/>
<path d="M0 0 C5.28 0 10.56 0 16 0 C16 0.99 16 1.98 16 3 C15.01 3.495 15.01 3.495 14 4 C14.020625 5.093125 14.04125 6.18625 14.0625 7.3125 C14 11 14 11 13 14 C14.60875 13.2884375 14.60875 13.2884375 16.25 12.5625 C18.80839865 11.46233668 21.25835017 10.54832997 24 10 C24 12.64 24 15.28 24 18 C16.08 18 8.16 18 0 18 C0 17.01 0 16.02 0 15 C0.99 14.67 1.98 14.34 3 14 C3 14.66 3 15.32 3 16 C9.6 16.33 16.2 16.66 23 17 C22.67 15.35 22.34 13.7 22 12 C21.0925 12.680625 20.185 13.36125 19.25 14.0625 C16 16 16 16 13.625 15.75 C12.820625 15.37875 12.820625 15.37875 12 15 C10.9929762 9.96488101 11.02612187 6.76052962 13 2 C9.7 2 6.4 2 3 2 C2.67 2.66 2.34 3.32 2 4 C1.34 3.67 0.68 3.34 0 3 C0 2.01 0 1.02 0 0 Z " fill="#888888" transform="translate(126,127)"/>
<path d="M0 0 C23.52769193 -0.56999626 45.02551895 1.4596066 65 15 C64.34 15.33 63.68 15.66 63 16 C60.31338678 14.7777386 57.72973312 13.50343399 55.125 12.125 C53.69203412 11.37391055 52.25719059 10.6263903 50.8203125 9.8828125 C50.18367676 9.54652832 49.54704102 9.21024414 48.89111328 8.86376953 C46.94016817 7.9726717 45.08824871 7.47014476 43 7 C41.51689009 6.51182071 40.03777747 6.01136134 38.5625 5.5 C33.8401423 3.92331705 29.74247808 2.95581878 24.75 3 C23.5125 3 22.275 3 21 3 C20.67 2.67 20.34 2.34 20 2 C18.51361008 1.84344973 17.02050873 1.74933057 15.52734375 1.68359375 C14.17866211 1.62075195 14.17866211 1.62075195 12.80273438 1.55664062 C11.85720703 1.51732422 10.91167969 1.47800781 9.9375 1.4375 C8.98810547 1.39431641 8.03871094 1.35113281 7.06054688 1.30664062 C4.70718647 1.20020724 2.35371646 1.09818992 0 1 C0 0.67 0 0.34 0 0 Z " fill="#858585" transform="translate(124,36)"/>
<path d="M0 0 C0.33 0.66 0.66 1.32 1 2 C1.99 2.33 2.98 2.66 4 3 C4.0825 3.845625 4.165 4.69125 4.25 5.5625 C5.15551611 9.71278218 6.83188132 12.36315577 9 16 C9 16.66 9 17.32 9 18 C12.16486544 18.11032211 14.97362188 17.97674076 18 17 C20.23420533 14.58726228 21.6474921 11.98367321 23 9 C23.33 9.66 23.66 10.32 24 11 C22.88536076 13.78939871 21.41371466 16.34393004 20 19 C16.04 19 12.08 19 8 19 C7.52949219 18.00097656 7.05898437 17.00195312 6.57421875 15.97265625 C5.94584455 14.66901425 5.31690905 13.36564269 4.6875 12.0625 C4.37876953 11.40314453 4.07003906 10.74378906 3.75195312 10.06445312 C2.91049022 8.33723979 1.96052335 6.6639473 1 5 C0.01 4.67 -0.98 4.34 -2 4 C-2 3.01 -2 2.02 -2 1 C-1.34 0.67 -0.68 0.34 0 0 Z " fill="#828282" transform="translate(63,126)"/>
<path d="M0 0 C3.85544798 1.99657127 5.59805092 3.39707638 8 7 C8.25 10.0625 8.25 10.0625 8 13 C7.34 13.66 6.68 14.32 6 15 C6.103125 13.948125 6.20625 12.89625 6.3125 11.8125 C6.30909173 7.95280829 6.30909173 7.95280829 4.0625 5.125 C0.05125338 2.34168602 -3.17166579 1.83848882 -8 2 C-12.34255424 2.94746638 -13.50682042 3.26023063 -16 7 C-16.24682644 10.20874376 -15.91204104 12.92186148 -15 16 C-15.99 15.34 -16.98 14.68 -18 14 C-18.40443578 10.91617719 -18.61840339 8.96152816 -18 6 C-13.04628437 -0.29255769 -7.59860308 -0.87448931 0 0 Z " fill="#868686" transform="translate(114,126)"/>
<path d="M0 0 C3.96 0 7.92 0 12 0 C12.33 0.66 12.66 1.32 13 2 C10.36 2 7.72 2 5 2 C4.67 3.32 4.34 4.64 4 6 C5.32 6.66 6.64 7.32 8 8 C2.25 7.25 2.25 7.25 0 5 C0 3.35 0 1.7 0 0 Z " fill="#818181" transform="translate(186,40)"/>
<path d="M0 0 C4.875 1.75 4.875 1.75 6 4 C6 4.99 6 5.98 6 7 C2.3791799 8.01382963 -1.27811418 8.49897691 -5 9 C-5 8.34 -5 7.68 -5 7 C-3.66666667 5.66666667 -2.33333333 4.33333333 -1 3 C-0.67 2.01 -0.34 1.02 0 0 Z " fill="#9C9C9C" transform="translate(114,136)"/>
<path d="M0 0 C3.3 0 6.6 0 10 0 C9.835 0.928125 9.67 1.85625 9.5 2.8125 C8.92251612 5.95621353 8.92251612 5.95621353 9 9 C8.34 9 7.68 9 7 9 C6.360625 8.030625 5.72125 7.06125 5.0625 6.0625 C3.28938993 2.75744775 3.28938993 2.75744775 0 2 C0 1.34 0 0.68 0 0 Z " fill="#9D9D9D" transform="translate(151,128)"/>
<path d="M0 0 C5.28 0 10.56 0 16 0 C16 0.99 16 1.98 16 3 C15.01 3.495 15.01 3.495 14 4 C14.04125 5.11375 14.0825 6.2275 14.125 7.375 C14 11 14 11 12 13 C10.73735399 8.70700357 11.37049588 6.12168689 13 2 C9.7 2 6.4 2 3 2 C2.67 2.66 2.34 3.32 2 4 C1.34 3.67 0.68 3.34 0 3 C0 2.01 0 1.02 0 0 Z " fill="#808080" transform="translate(126,127)"/>
<path d="M0 0 C5.94 0 11.88 0 18 0 C18 0.99 18 1.98 18 3 C17.01 3 16.02 3 15 3 C15.66 4.98 16.32 6.96 17 9 C16.34 9 15.68 9 15 9 C14 7 14 7 14 1 C9.71 1 5.42 1 1 1 C0.67 1.66 0.34 2.32 0 3 C0 2.01 0 1.02 0 0 Z " fill="#818181" transform="translate(150,127)"/>
<path d="M0 0 C3.96 0 7.92 0 12 0 C11.67 1.32 11.34 2.64 11 4 C9.35 4 7.7 4 6 4 C6.99 3.34 7.98 2.68 9 2 C6.69 2 4.38 2 2 2 C1.87625 3.299375 1.7525 4.59875 1.625 5.9375 C1.4140625 8.15234375 1.4140625 8.15234375 1 10 C0.01 10.495 0.01 10.495 -1 11 C-0.67 7.37 -0.34 3.74 0 0 Z " fill="#818181" transform="translate(172,127)"/>
<path d="M0 0 C0.33 0.66 0.66 1.32 1 2 C0.07718425 4.03676486 -0.94139375 6.03039273 -2 8 C-2.6122851 9.21403061 -3.2202679 10.43023935 -3.82421875 11.6484375 C-5.54947917 15.09895833 -7.27473958 18.54947917 -9 22 C-10 19 -10 19 -9.41088867 17.23828125 C-9.0832251 16.60277344 -8.75556152 15.96726562 -8.41796875 15.3125 C-8.06283203 14.61382812 -7.70769531 13.91515625 -7.34179688 13.1953125 C-6.96087891 12.47085938 -6.57996094 11.74640625 -6.1875 11 C-5.81818359 10.27554688 -5.44886719 9.55109375 -5.06835938 8.8046875 C-3.49596435 5.74458659 -1.91234761 2.86852142 0 0 Z " fill="#8A8A8A" transform="translate(52,81)"/>
<path d="M0 0 C0.66 0.66 1.32 1.32 2 2 C1.01 2.495 1.01 2.495 0 3 C0 6.63 0 10.26 0 14 C-2 13 -2 13 -2.625 11.375 C-3.13126388 8.16866212 -3.23995177 5.23934886 -3 2 C-2.01 1.34 -1.02 0.68 0 0 Z " fill="#7A7A7A" transform="translate(107,129)"/>
<path d="M0 0 C3.40312738 1.05875074 6.01353231 2.00902154 9 4 C10.9896995 4.39013716 12.99019869 4.73202649 15 5 C15 5.33 15 5.66 15 6 C8.741346 6.5326514 4.54891215 4.81849506 -1 2 C-0.67 1.34 -0.34 0.68 0 0 Z " fill="#8C8C8C" transform="translate(171,58)"/>
<path d="M0 0 C0.33 0 0.66 0 1 0 C1.04898438 0.75925781 1.09796875 1.51851562 1.1484375 2.30078125 C1.22320312 3.29464844 1.29796875 4.28851563 1.375 5.3125 C1.44460937 6.29863281 1.51421875 7.28476563 1.5859375 8.30078125 C1.83865472 11.21528433 1.83865472 11.21528433 4 14 C1.69 14 -0.62 14 -3 14 C-2.34 13.67 -1.68 13.34 -1 13 C-0.53045739 9.95418731 -0.53045739 9.95418731 -0.375 6.4375 C-0.30023438 5.23996094 -0.22546875 4.04242188 -0.1484375 2.80859375 C-0.09945312 1.88175781 -0.05046875 0.95492187 0 0 Z " fill="#979797" transform="translate(130,130)"/>
<path d="M0 0 C0 3.99476331 -1.28869085 5.1421336 -4 8 C-6.75 9.3125 -6.75 9.3125 -9 10 C-8.06409496 8.8944811 -7.12620142 7.79064547 -6.1875 6.6875 C-5.66542969 6.07261719 -5.14335937 5.45773438 -4.60546875 4.82421875 C-3.12827531 3.14575321 -1.59960869 1.56117966 0 0 Z " fill="#868686" transform="translate(200,192)"/>
<path d="M0 0 C2.97 0 5.94 0 9 0 C8 2 8 2 4.9375 3.125 C3.4834375 3.558125 3.4834375 3.558125 2 4 C1.34 2.68 0.68 1.36 0 0 Z " fill="#9D9D9D" transform="translate(173,128)"/>
<path d="M0 0 C0.33 0.66 0.66 1.32 1 2 C1.99 2.33 2.98 2.66 4 3 C3.67 3.66 3.34 4.32 3 5 C1.35 4.67 -0.3 4.34 -2 4 C-2 3.01 -2 2.02 -2 1 C-1.34 0.67 -0.68 0.34 0 0 Z " fill="#8E8E8E" transform="translate(63,126)"/>
</svg>
